<?xml version="1.0" encoding="utf-8"?>
<!-- Generator: Adobe Illustrator 25.4.1, SVG Export Plug-In . SVG Version: 6.00 Build 0)  -->
<svg version="1.1"
	 id="Layer_1" xmlns:cc="http://creativecommons.org/ns#" xmlns:dc="http://purl.org/dc/elements/1.1/" xmlns:inkscape="http://www.inkscape.org/namespaces/inkscape" xmlns:rdf="http://www.w3.org/1999/02/22-rdf-syntax-ns#" xmlns:svg="http://www.w3.org/2000/svg"
	 xmlns="http://www.w3.org/2000/svg" xmlns:xlink="http://www.w3.org/1999/xlink" x="0px" y="0px" viewBox="0 0 1534.8 693.5"
	 style="enable-background:new 0 0 1534.8 693.5;" xml:space="preserve">
<style type="text/css">
	.st0{fill:none;stroke:#000000;stroke-width:0.5669;stroke-linecap:round;stroke-linejoin:round;stroke-miterlimit:11.3386;}
</style>
<g id="p-1">
	<path class="st0" d="M40,634.3h13.5c0.2,0,0.3-0.1,0.3-0.3v-8.6c0-0.3-0.3,0,0,0H62c0.3,0,0-0.3,0,0v8.6c0,0.2,0.1,0.3,0.3,0.3h8.8
		c0.2,0,0.3-0.1,0.3-0.3v-8.6c0-0.3-0.3,0,0,0h8.3c0.3,0,0-0.3,0,0v8.6c0,0.2,0.1,0.3,0.3,0.3h8.8c0.2,0,0.3-0.1,0.3-0.3v-8.6
		c0-0.3-0.3,0,0,0h8.3c0.3,0,0-0.3,0,0v8.6c0,0.2,0.1,0.3,0.3,0.3h8.8c0.2,0,0.3-0.1,0.3-0.3v-8.6c0-0.3-0.3,0,0,0h8.3
		c0.3,0,0-0.3,0,0v8.6c0,0.2,0.1,0.3,0.3,0.3h8.8c0.2,0,0.3-0.1,0.3-0.3v-8.6c0-0.3-0.3,0,0,0h8.3c0.3,0,0-0.3,0,0v8.6
		c0,0.2,0.1,0.3,0.3,0.3h8.8c0.2,0,0.3-0.1,0.3-0.3v-8.6c0-0.3-0.3,0,0,0h8.3c0.3,0,0-0.3,0,0v8.6c0,0.2,0.1,0.3,0.3,0.3h8.8
		c0.2,0,0.3-0.1,0.3-0.3v-8.6c0-0.3-0.3,0,0,0h8.3c0.3,0,0-0.3,0,0v8.6c0,0.2,0.1,0.3,0.3,0.3h8.8c0.2,0,0.3-0.1,0.3-0.3v-8.6
		c0-0.3-0.3,0,0,0h8.3c0.3,0,0-0.3,0,0v8.6c0,0.2,0.1,0.3,0.3,0.3h8.8c0.2,0,0.3-0.1,0.3-0.3v-8.6c0-0.3-0.3,0,0,0h8.3
		c0.3,0,0-0.3,0,0v8.6c0,0.2,0.1,0.3,0.3,0.3h8.8c0.2,0,0.3-0.1,0.3-0.3v-8.6c0-0.3-0.3,0,0,0h8.3c0.3,0,0-0.3,0,0v8.6
		c0,0.2,0.1,0.3,0.3,0.3h8.8c0.2,0,0.3-0.1,0.3-0.3v-8.6c0-0.3-0.3,0,0,0h8.3c0.3,0,0-0.3,0,0v8.6c0,0.2,0.1,0.3,0.3,0.3h8.8
		c0.2,0,0.3-0.1,0.3-0.3v-8.6c0-0.3-0.3,0,0,0h8.3c0.3,0,0-0.3,0,0v8.6c0,0.2,0.1,0.3,0.3,0.3h8.8c0.2,0,0.3-0.1,0.3-0.3v-8.6
		c0-0.3-0.3,0,0,0h8.3c0.3,0,0-0.3,0,0v8.6c0,0.2,0.1,0.3,0.3,0.3h8.8c0.2,0,0.3-0.1,0.3-0.3v-8.6c0-0.3-0.3,0,0,0h8.3
		c0.3,0,0-0.3,0,0v8.6c0,0.2,0.1,0.3,0.3,0.3h8.8c0.2,0,0.3-0.1,0.3-0.3v-8.6c0-0.3-0.3,0,0,0h8.3c0.3,0,0-0.3,0,0v8.6
		c0,0.2,0.1,0.3,0.3,0.3h13.5h431.4h8.8c0.2,0,0.3-0.1,0.3-0.3v-8.8v-13.4c0-0.2-0.1-0.3-0.3-0.3h-8.6c-0.3,0,0,0.3,0,0v-8.3
		c0-0.3-0.3,0,0,0h8.6c0.2,0,0.3-0.1,0.3-0.3v-8.8c0-0.2-0.1-0.3-0.3-0.3h-8.6c-0.3,0,0,0.3,0,0v-8.3c0-0.3-0.3,0,0,0h8.6
		c0.2,0,0.3-0.1,0.3-0.3v-8.8c0-0.2-0.1-0.3-0.3-0.3h-8.6c-0.3,0,0,0.3,0,0v-8.3c0-0.3-0.3,0,0,0h8.6c0.2,0,0.3-0.1,0.3-0.3v-8.8
		c0-0.2-0.1-0.3-0.3-0.3h-8.6c-0.3,0,0,0.3,0,0v-8.3c0-0.3-0.3,0,0,0h8.6c0.2,0,0.3-0.1,0.3-0.3V541c0-0.2-0.1-0.3-0.3-0.3h-8.6
		c-0.3,0,0,0.3,0,0v-8.3c0-0.3-0.3,0,0,0h8.6c0.2,0,0.3-0.1,0.3-0.3v-8.8c0-0.2-0.1-0.3-0.3-0.3h-8.6c-0.3,0,0,0.3,0,0v-8.3
		c0-0.3-0.3,0,0,0h8.6c0.2,0,0.3-0.1,0.3-0.3v-8.8c0-0.2-0.1-0.3-0.3-0.3h-8.6c-0.3,0,0,0.3,0,0v-8.3c0-0.3-0.3,0,0,0h8.6
		c0.2,0,0.3-0.1,0.3-0.3v-13.4v-8.8c0-0.2-0.1-0.3-0.3-0.3h-8.8H323.4h-13.5c-0.2,0-0.3,0.1-0.3,0.3v8.6c0,0.3,0.3,0,0,0h-8.3
		c-0.3,0,0,0.3,0,0v-8.6c0-0.2-0.1-0.3-0.3-0.3h-8.8c-0.2,0-0.3,0.1-0.3,0.3v8.6c0,0.3,0.3,0,0,0h-8.3c-0.3,0,0,0.3,0,0v-8.6
		c0-0.2-0.1-0.3-0.3-0.3h-8.8c-0.2,0-0.3,0.1-0.3,0.3v8.6c0,0.3,0.3,0,0,0H266c-0.3,0,0,0.3,0,0v-8.6c0-0.2-0.1-0.3-0.3-0.3h-8.8
		c-0.2,0-0.3,0.1-0.3,0.3v8.6c0,0.3,0.3,0,0,0h-8.3c-0.3,0,0,0.3,0,0v-8.6c0-0.2-0.1-0.3-0.3-0.3h-8.8c-0.2,0-0.3,0.1-0.3,0.3v8.6
		c0,0.3,0.3,0,0,0h-8.3c-0.3,0,0,0.3,0,0v-8.6c0-0.2-0.1-0.3-0.3-0.3h-8.8c-0.2,0-0.3,0.1-0.3,0.3v8.6c0,0.3,0.3,0,0,0h-8.3
		c-0.3,0,0,0.3,0,0v-8.6c0-0.2-0.1-0.3-0.3-0.3h-8.8c-0.2,0-0.3,0.1-0.3,0.3v8.6c0,0.3,0.3,0,0,0h-8.3c-0.3,0,0,0.3,0,0v-8.6
		c0-0.2-0.1-0.3-0.3-0.3h-8.8c-0.2,0-0.3,0.1-0.3,0.3v8.6c0,0.3,0.3,0,0,0h-8.3c-0.3,0,0,0.3,0,0v-8.6c0-0.2-0.1-0.3-0.3-0.3h-8.8
		c-0.2,0-0.3,0.1-0.3,0.3v8.6c0,0.3,0.3,0,0,0h-8.3c-0.3,0,0,0.3,0,0v-8.6c0-0.2-0.1-0.3-0.3-0.3h-8.8c-0.2,0-0.3,0.1-0.3,0.3v8.6
		c0,0.3,0.3,0,0,0h-8.3c-0.3,0,0,0.3,0,0v-8.6c0-0.2-0.1-0.3-0.3-0.3h-8.8c-0.2,0-0.3,0.1-0.3,0.3v8.6c0,0.3,0.3,0,0,0h-8.3
		c-0.3,0,0,0.3,0,0v-8.6c0-0.2-0.1-0.3-0.3-0.3h-8.8c-0.2,0-0.3,0.1-0.3,0.3v8.6c0,0.3,0.3,0,0,0h-8.3c-0.3,0,0,0.3,0,0v-8.6
		c0-0.2-0.1-0.3-0.3-0.3h-8.8c-0.2,0-0.3,0.1-0.3,0.3v8.6c0,0.3,0.3,0,0,0h-8.3c-0.3,0,0,0.3,0,0v-8.6c0-0.2-0.1-0.3-0.3-0.3H80
		c-0.2,0-0.3,0.1-0.3,0.3v8.6c0,0.3,0.3,0,0,0h-8.3c-0.3,0,0,0.3,0,0v-8.6c0-0.2-0.1-0.3-0.3-0.3h-8.8c-0.2,0-0.3,0.1-0.3,0.3v8.6
		c0,0.3,0.3,0,0,0h-8.3c-0.3,0,0,0.3,0,0v-8.6c0-0.2-0.1-0.3-0.3-0.3H40h-8.8c-0.2,0-0.3,0.1-0.3,0.3v8.8v13.4
		c0,0.2,0.1,0.3,0.3,0.3h8.6c0.3,0,0-0.3,0,0v8.3c0,0.3,0.3,0,0,0h-8.6c-0.2,0-0.3,0.1-0.3,0.3v8.8c0,0.2,0.1,0.3,0.3,0.3h8.6
		c0.3,0,0-0.3,0,0v8.3c0,0.3,0.3,0,0,0h-8.6c-0.2,0-0.3,0.1-0.3,0.3v8.8c0,0.2,0.1,0.3,0.3,0.3h8.6c0.3,0,0-0.3,0,0v8.3
		c0,0.3,0.3,0,0,0h-8.6c-0.2,0-0.3,0.1-0.3,0.3v8.8c0,0.2,0.1,0.3,0.3,0.3h8.6c0.3,0,0-0.3,0,0v8.3c0,0.3,0.3,0,0,0h-8.6
		c-0.2,0-0.3,0.1-0.3,0.3v8.8c0,0.2,0.1,0.3,0.3,0.3h8.6c0.3,0,0-0.3,0,0v8.3c0,0.3,0.3,0,0,0h-8.6c-0.2,0-0.3,0.1-0.3,0.3v8.8
		c0,0.2,0.1,0.3,0.3,0.3h8.6c0.3,0,0-0.3,0,0v8.3c0,0.3,0.3,0,0,0h-8.6c-0.2,0-0.3,0.1-0.3,0.3v8.8c0,0.2,0.1,0.3,0.3,0.3h8.6
		c0.3,0,0-0.3,0,0v8.3c0,0.3,0.3,0,0,0h-8.6c-0.2,0-0.3,0.1-0.3,0.3v13.4v8.8c0,0.2,0.1,0.3,0.3,0.3H40z"/>
	<path class="st0" d="M329.1,634.3v-50.4 M329.1,575.1v-91.9 M333.5,474.3v50.4 M333.5,533.5v91.9 M337.9,634.3v-50.4 M337.9,575.1
		v-91.9 M342.3,474.3v50.4 M342.3,533.5v91.9 M346.8,634.3v-50.4 M346.8,575.1v-91.9 M351.2,474.3v50.4 M351.2,533.5v91.9
		 M355.6,634.3v-50.4 M355.6,575.1v-91.9 M360,474.3v50.4 M360,533.5v91.9 M364.4,634.3v-50.4 M364.4,575.1v-91.9 M368.9,474.3v50.4
		 M368.9,533.5v91.9 M373.3,634.3v-50.4 M373.3,575.1v-91.9 M377.7,474.3v50.4 M377.7,533.5v91.9 M382.1,634.3v-50.4 M382.1,575.1
		v-91.9 M386.6,474.3v50.4 M386.6,533.5v91.9 M391,634.3v-50.4 M391,575.1v-91.9 M395.4,474.3v50.4 M395.4,533.5v91.9 M399.8,634.3
		v-50.4 M399.8,575.1v-91.9 M404.2,474.3v50.4 M404.2,533.5v91.9 M408.7,634.3v-50.4 M408.7,575.1v-91.9 M413.1,474.3v50.4
		 M413.1,533.5v91.9 M417.5,634.3v-50.4 M417.5,575.1v-91.9 M421.9,474.3v50.4 M421.9,533.5v91.9 M426.4,634.3v-50.4 M426.4,575.1
		v-91.9 M430.8,474.3v50.4 M430.8,533.5v91.9 M435.2,634.3v-50.4 M435.2,575.1v-91.9 M439.6,474.3v50.4 M439.6,533.5v91.9
		 M444,634.3v-50.4 M444,575.1v-91.9 M448.5,474.3v50.4 M448.5,533.5v91.9 M452.9,634.3v-50.4 M452.9,575.1v-91.9 M457.3,474.3v50.4
		 M457.3,533.5v91.9 M461.7,634.3v-50.4 M461.7,575.1v-91.9 M466.2,474.3v50.4 M466.2,533.5v91.9 M470.6,634.3v-50.4 M470.6,575.1
		v-91.9 M475,474.3v50.4 M475,533.5v91.9 M479.4,634.3v-50.4 M479.4,575.1v-91.9 M483.8,474.3v50.4 M483.8,533.5v91.9 M488.3,634.3
		v-50.4 M488.3,575.1v-91.9 M492.7,474.3v50.4 M492.7,533.5v91.9 M497.1,634.3v-50.4 M497.1,575.1v-91.9 M501.5,474.3v50.4
		 M501.5,533.5v91.9 M506,634.3v-50.4 M506,575.1v-91.9 M510.4,474.3v50.4 M510.4,533.5v91.9 M514.8,634.3v-50.4 M514.8,575.1v-91.9
		 M519.2,474.3v50.4 M519.2,533.5v91.9 M523.6,634.3v-50.4 M523.6,575.1v-91.9 M528.1,474.3v50.4 M528.1,533.5v91.9 M532.5,634.3
		v-50.4 M532.5,575.1v-91.9 M536.9,474.3v50.4 M536.9,533.5v91.9 M541.3,634.3v-50.4 M541.3,575.1v-91.9 M545.8,474.3v50.4
		 M545.8,533.5v91.9 M550.2,634.3v-50.4 M550.2,575.1v-91.9 M554.6,474.3v50.4 M554.6,533.5v91.9 M559,634.3v-50.4 M559,575.1v-91.9
		 M563.4,474.3v50.4 M563.4,533.5v91.9 M567.9,634.3v-50.4 M567.9,575.1v-91.9 M572.3,474.3v50.4 M572.3,533.5v91.9 M576.7,634.3
		v-50.4 M576.7,575.1v-91.9 M581.1,474.3v50.4 M581.1,533.5v91.9 M585.5,634.3v-50.4 M585.5,575.1v-91.9 M590,474.3v50.4 M590,533.5
		v91.9 M594.4,634.3v-50.4 M594.4,575.1v-91.9 M598.8,474.3v50.4 M598.8,533.5v91.9 M603.2,634.3v-50.4 M603.2,575.1v-91.9
		 M607.7,474.3v50.4 M607.7,533.5v91.9 M612.1,634.3v-50.4 M612.1,575.1v-91.9 M616.5,474.3v50.4 M616.5,533.5v91.9 M620.9,634.3
		v-50.4 M620.9,575.1v-91.9 M625.3,474.3v50.4 M625.3,533.5v91.9 M629.8,634.3v-50.4 M629.8,575.1v-91.9 M634.2,474.3v50.4
		 M634.2,533.5v91.9 M638.6,634.3v-50.4 M638.6,575.1v-91.9 M643,474.3v50.4 M643,533.5v91.9 M647.5,634.3v-50.4 M647.5,575.1v-91.9
		 M651.9,474.3v50.4 M651.9,533.5v91.9 M656.3,634.3v-50.4 M656.3,575.1v-91.9 M660.7,474.3v50.4 M660.7,533.5v91.9 M665.1,634.3
		v-50.4 M665.1,575.1v-91.9 M669.6,474.3v50.4 M669.6,533.5v91.9 M674,634.3v-50.4 M674,575.1v-91.9 M678.4,474.3v50.4 M678.4,533.5
		v91.9 M682.8,634.3v-50.4 M682.8,575.1v-91.9 M687.3,474.3v50.4 M687.3,533.5v91.9 M691.7,634.3v-50.4 M691.7,575.1v-91.9
		 M696.1,474.3v50.4 M696.1,533.5v91.9 M700.5,634.3v-50.4 M700.5,575.1v-91.9 M704.9,474.3v50.4 M704.9,533.5v91.9 M709.4,634.3
		v-50.4 M709.4,575.1v-91.9 M713.8,474.3v50.4 M713.8,533.5v91.9 M718.2,634.3v-50.4 M718.2,575.1v-91.9 M722.6,474.3v50.4
		 M722.6,533.5v91.9 M727.1,634.3v-50.4 M727.1,575.1v-91.9 M731.5,474.3v50.4 M731.5,533.5v91.9 M735.9,634.3v-50.4 M735.9,575.1
		v-91.9 M740.3,474.3v50.4 M740.3,533.5v91.9 M744.7,634.3v-50.4 M744.7,575.1v-91.9 M749.2,474.3v50.4 M749.2,533.5v91.9"/>
	<path class="st0" d="M782.5,634.3h431.4h13.5c0.2,0,0.3-0.1,0.3-0.3v-8.6c0-0.3-0.3,0,0,0h8.3c0.3,0,0-0.3,0,0v8.6
		c0,0.2,0.1,0.3,0.3,0.3h8.8c0.2,0,0.3-0.1,0.3-0.3v-8.6c0-0.3-0.3,0,0,0h8.3c0.3,0,0-0.3,0,0v8.6c0,0.2,0.1,0.3,0.3,0.3h8.8
		c0.2,0,0.3-0.1,0.3-0.3v-8.6c0-0.3-0.3,0,0,0h8.3c0.3,0,0-0.3,0,0v8.6c0,0.2,0.1,0.3,0.3,0.3h8.8c0.2,0,0.3-0.1,0.3-0.3v-8.6
		c0-0.3-0.3,0,0,0h8.3c0.3,0,0-0.3,0,0v8.6c0,0.2,0.1,0.3,0.3,0.3h8.8c0.2,0,0.3-0.1,0.3-0.3v-8.6c0-0.3-0.3,0,0,0h8.3
		c0.3,0,0-0.3,0,0v8.6c0,0.2,0.1,0.3,0.3,0.3h8.8c0.2,0,0.3-0.1,0.3-0.3v-8.6c0-0.3-0.3,0,0,0h8.3c0.3,0,0-0.3,0,0v8.6
		c0,0.2,0.1,0.3,0.3,0.3h8.8c0.2,0,0.3-0.1,0.3-0.3v-8.6c0-0.3-0.3,0,0,0h8.3c0.3,0,0-0.3,0,0v8.6c0,0.2,0.1,0.3,0.3,0.3h8.8
		c0.2,0,0.3-0.1,0.3-0.3v-8.6c0-0.3-0.3,0,0,0h8.3c0.3,0,0-0.3,0,0v8.6c0,0.2,0.1,0.3,0.3,0.3h8.8c0.2,0,0.3-0.1,0.3-0.3v-8.6
		c0-0.3-0.3,0,0,0h8.3c0.3,0,0-0.3,0,0v8.6c0,0.2,0.1,0.3,0.3,0.3h8.8c0.2,0,0.3-0.1,0.3-0.3v-8.6c0-0.3-0.3,0,0,0h8.3
		c0.3,0,0-0.3,0,0v8.6c0,0.2,0.1,0.3,0.3,0.3h8.8c0.2,0,0.3-0.1,0.3-0.3v-8.6c0-0.3-0.3,0,0,0h8.3c0.3,0,0-0.3,0,0v8.6
		c0,0.2,0.1,0.3,0.3,0.3h8.8c0.2,0,0.3-0.1,0.3-0.3v-8.6c0-0.3-0.3,0,0,0h8.3c0.3,0,0-0.3,0,0v8.6c0,0.2,0.1,0.3,0.3,0.3h8.8
		c0.2,0,0.3-0.1,0.3-0.3v-8.6c0-0.3-0.3,0,0,0h8.3c0.3,0,0-0.3,0,0v8.6c0,0.2,0.1,0.3,0.3,0.3h8.8c0.2,0,0.3-0.1,0.3-0.3v-8.6
		c0-0.3-0.3,0,0,0h8.3c0.3,0,0-0.3,0,0v8.6c0,0.2,0.1,0.3,0.3,0.3h8.8c0.2,0,0.3-0.1,0.3-0.3v-8.6c0-0.3-0.3,0,0,0h8.3
		c0.3,0,0-0.3,0,0v8.6c0,0.2,0.1,0.3,0.3,0.3h13.5c0.2,0,0.3-0.1,0.3-0.3v-8.8v-13.1c0-0.3-0.3,0,0,0h8.6c0.2,0,0.3-0.1,0.3-0.3
		v-8.8c0-0.2-0.1-0.3-0.3-0.3h-8.6c-0.3,0,0,0.3,0,0v-8.3c0-0.3-0.3,0,0,0h8.6c0.2,0,0.3-0.1,0.3-0.3v-8.8c0-0.2-0.1-0.3-0.3-0.3
		h-8.6c-0.3,0,0,0.3,0,0v-8.3c0-0.3-0.3,0,0,0h8.6c0.2,0,0.3-0.1,0.3-0.3v-8.8c0-0.2-0.1-0.3-0.3-0.3h-8.6c-0.3,0,0,0.3,0,0V559
		c0-0.3-0.3,0,0,0h8.6c0.2,0,0.3-0.1,0.3-0.3v-8.8c0-0.2-0.1-0.3-0.3-0.3h-8.6c-0.3,0,0,0.3,0,0v-8.3c0-0.3-0.3,0,0,0h8.6
		c0.2,0,0.3-0.1,0.3-0.3v-8.8c0-0.2-0.1-0.3-0.3-0.3h-8.6c-0.3,0,0,0.3,0,0v-8.3c0-0.3-0.3,0,0,0h8.6c0.2,0,0.3-0.1,0.3-0.3v-8.8
		c0-0.2-0.1-0.3-0.3-0.3h-8.6c-0.3,0,0,0.3,0,0v-8.3c0-0.3-0.3,0,0,0h8.6c0.2,0,0.3-0.1,0.3-0.3v-8.8c0-0.2-0.1-0.3-0.3-0.3h-8.6
		c-0.3,0,0,0.3,0,0v-13.1v-8.8c0-0.2-0.1-0.3-0.3-0.3h-13.5c-0.2,0-0.3,0.1-0.3,0.3v8.6c0,0.3,0.3,0,0,0h-8.3c-0.3,0,0,0.3,0,0v-8.6
		c0-0.2-0.1-0.3-0.3-0.3h-8.8c-0.2,0-0.3,0.1-0.3,0.3v8.6c0,0.3,0.3,0,0,0h-8.3c-0.3,0,0,0.3,0,0v-8.6c0-0.2-0.1-0.3-0.3-0.3h-8.8
		c-0.2,0-0.3,0.1-0.3,0.3v8.6c0,0.3,0.3,0,0,0h-8.3c-0.3,0,0,0.3,0,0v-8.6c0-0.2-0.1-0.3-0.3-0.3h-8.8c-0.2,0-0.3,0.1-0.3,0.3v8.6
		c0,0.3,0.3,0,0,0h-8.3c-0.3,0,0,0.3,0,0v-8.6c0-0.2-0.1-0.3-0.3-0.3h-8.8c-0.2,0-0.3,0.1-0.3,0.3v8.6c0,0.3,0.3,0,0,0h-8.3
		c-0.3,0,0,0.3,0,0v-8.6c0-0.2-0.1-0.3-0.3-0.3h-8.8c-0.2,0-0.3,0.1-0.3,0.3v8.6c0,0.3,0.3,0,0,0h-8.3c-0.3,0,0,0.3,0,0v-8.6
		c0-0.2-0.1-0.3-0.3-0.3h-8.8c-0.2,0-0.3,0.1-0.3,0.3v8.6c0,0.3,0.3,0,0,0h-8.3c-0.3,0,0,0.3,0,0v-8.6c0-0.2-0.1-0.3-0.3-0.3h-8.8
		c-0.2,0-0.3,0.1-0.3,0.3v8.6c0,0.3,0.3,0,0,0h-8.3c-0.3,0,0,0.3,0,0v-8.6c0-0.2-0.1-0.3-0.3-0.3h-8.8c-0.2,0-0.3,0.1-0.3,0.3v8.6
		c0,0.3,0.3,0,0,0h-8.3c-0.3,0,0,0.3,0,0v-8.6c0-0.2-0.1-0.3-0.3-0.3h-8.8c-0.2,0-0.3,0.1-0.3,0.3v8.6c0,0.3,0.3,0,0,0h-8.3
		c-0.3,0,0,0.3,0,0v-8.6c0-0.2-0.1-0.3-0.3-0.3h-8.8c-0.2,0-0.3,0.1-0.3,0.3v8.6c0,0.3,0.3,0,0,0h-8.3c-0.3,0,0,0.3,0,0v-8.6
		c0-0.2-0.1-0.3-0.3-0.3h-8.8c-0.2,0-0.3,0.1-0.3,0.3v8.6c0,0.3,0.3,0,0,0h-8.3c-0.3,0,0,0.3,0,0v-8.6c0-0.2-0.1-0.3-0.3-0.3h-8.8
		c-0.2,0-0.3,0.1-0.3,0.3v8.6c0,0.3,0.3,0,0,0h-8.3c-0.3,0,0,0.3,0,0v-8.6c0-0.2-0.1-0.3-0.3-0.3h-8.8c-0.2,0-0.3,0.1-0.3,0.3v8.6
		c0,0.3,0.3,0,0,0h-8.3c-0.3,0,0,0.3,0,0v-8.6c0-0.2-0.1-0.3-0.3-0.3h-8.8c-0.2,0-0.3,0.1-0.3,0.3v8.6c0,0.3,0.3,0,0,0h-8.3
		c-0.3,0,0,0.3,0,0v-8.6c0-0.2-0.1-0.3-0.3-0.3h-13.5H782.5c-0.2,0-0.3,0.1-0.3,0.3v8.8v13.1c0,0.3,0.3,0,0,0h-8.6
		c-0.2,0-0.3,0.1-0.3,0.3v8.8c0,0.2,0.1,0.3,0.3,0.3h8.6c0.3,0,0-0.3,0,0v8.3c0,0.3,0.3,0,0,0h-8.6c-0.2,0-0.3,0.1-0.3,0.3v8.8
		c0,0.2,0.1,0.3,0.3,0.3h8.6c0.3,0,0-0.3,0,0v8.3c0,0.3,0.3,0,0,0h-8.6c-0.2,0-0.3,0.1-0.3,0.3v8.8c0,0.2,0.1,0.3,0.3,0.3h8.6
		c0.3,0,0-0.3,0,0v8.3c0,0.3,0.3,0,0,0h-8.6c-0.2,0-0.3,0.1-0.3,0.3v8.8c0,0.2,0.1,0.3,0.3,0.3h8.6c0.3,0,0-0.3,0,0v8.3
		c0,0.3,0.3,0,0,0h-8.6c-0.2,0-0.3,0.1-0.3,0.3v8.8c0,0.2,0.1,0.3,0.3,0.3h8.6c0.3,0,0-0.3,0,0v8.3c0,0.3,0.3,0,0,0h-8.6
		c-0.2,0-0.3,0.1-0.3,0.3v8.8c0,0.2,0.1,0.3,0.3,0.3h8.6c0.3,0,0-0.3,0,0v8.3c0,0.3,0.3,0,0,0h-8.6c-0.2,0-0.3,0.1-0.3,0.3v8.8
		c0,0.2,0.1,0.3,0.3,0.3h8.6c0.3,0,0-0.3,0,0v13.1v8.8C782.2,634.2,782.3,634.3,782.5,634.3z"/>
	<path class="st0" d="M788.1,634.3v-50.4 M788.1,575.1v-91.9 M792.5,474.3v50.4 M792.5,533.5v91.9 M797,634.3v-50.4 M797,575.1
		v-91.9 M801.4,474.3v50.4 M801.4,533.5v91.9 M805.8,634.3v-50.4 M805.8,575.1v-91.9 M810.2,474.3v50.4 M810.2,533.5v91.9
		 M814.6,634.3v-50.4 M814.6,575.1v-91.9 M819.1,474.3v50.4 M819.1,533.5v91.9 M823.5,634.3v-50.4 M823.5,575.1v-91.9 M827.9,474.3
		v50.4 M827.9,533.5v91.9 M832.3,634.3v-50.4 M832.3,575.1v-91.9 M836.8,474.3v50.4 M836.8,533.5v91.9 M841.2,634.3v-50.4
		 M841.2,575.1v-91.9 M845.6,474.3v50.4 M845.6,533.5v91.9 M850,634.3v-50.4 M850,575.1v-91.9 M854.4,474.3v50.4 M854.4,533.5v91.9
		 M858.9,634.3v-50.4 M858.9,575.1v-91.9 M863.3,474.3v50.4 M863.3,533.5v91.9 M867.7,634.3v-50.4 M867.7,575.1v-91.9 M872.1,474.3
		v50.4 M872.1,533.5v91.9 M876.6,634.3v-50.4 M876.6,575.1v-91.9 M881,474.3v50.4 M881,533.5v91.9 M885.4,634.3v-50.4 M885.4,575.1
		v-91.9 M889.8,474.3v50.4 M889.8,533.5v91.9 M894.2,634.3v-50.4 M894.2,575.1v-91.9 M898.7,474.3v50.4 M898.7,533.5v91.9
		 M903.1,634.3v-50.4 M903.1,575.1v-91.9 M907.5,474.3v50.4 M907.5,533.5v91.9 M911.9,634.3v-50.4 M911.9,575.1v-91.9 M916.4,474.3
		v50.4 M916.4,533.5v91.9 M920.8,634.3v-50.4 M920.8,575.1v-91.9 M925.2,474.3v50.4 M925.2,533.5v91.9 M929.6,634.3v-50.4
		 M929.6,575.1v-91.9 M934,474.3v50.4 M934,533.5v91.9 M938.5,634.3v-50.4 M938.5,575.1v-91.9 M942.9,474.3v50.4 M942.9,533.5v91.9
		 M947.3,634.3v-50.4 M947.3,575.1v-91.9 M951.7,474.3v50.4 M951.7,533.5v91.9 M956.1,634.3v-50.4 M956.1,575.1v-91.9 M960.6,474.3
		v50.4 M960.6,533.5v91.9 M965,634.3v-50.4 M965,575.1v-91.9 M969.4,474.3v50.4 M969.4,533.5v91.9 M973.8,634.3v-50.4 M973.8,575.1
		v-91.9 M978.3,474.3v50.4 M978.3,533.5v91.9 M982.7,634.3v-50.4 M982.7,575.1v-91.9 M987.1,474.3v50.4 M987.1,533.5v91.9
		 M991.5,634.3v-50.4 M991.5,575.1v-91.9 M995.9,474.3v50.4 M995.9,533.5v91.9 M1000.4,634.3v-50.4 M1000.4,575.1v-91.9
		 M1004.8,474.3v50.4 M1004.8,533.5v91.9 M1009.2,634.3v-50.4 M1009.2,575.1v-91.9 M1013.6,474.3v50.4 M1013.6,533.5v91.9
		 M1018.1,634.3v-50.4 M1018.1,575.1v-91.9 M1022.5,474.3v50.4 M1022.5,533.5v91.9 M1026.9,634.3v-50.4 M1026.9,575.1v-91.9
		 M1031.3,474.3v50.4 M1031.3,533.5v91.9 M1035.7,634.3v-50.4 M1035.7,575.1v-91.9 M1040.2,474.3v50.4 M1040.2,533.5v91.9
		 M1044.6,634.3v-50.4 M1044.6,575.1v-91.9 M1049,474.3v50.4 M1049,533.5v91.9 M1053.4,634.3v-50.4 M1053.4,575.1v-91.9
		 M1057.9,474.3v50.4 M1057.9,533.5v91.9 M1062.3,634.3v-50.4 M1062.3,575.1v-91.9 M1066.7,474.3v50.4 M1066.7,533.5v91.9
		 M1071.1,634.3v-50.4 M1071.1,575.1v-91.9 M1075.5,474.3v50.4 M1075.5,533.5v91.9 M1080,634.3v-50.4 M1080,575.1v-91.9
		 M1084.4,474.3v50.4 M1084.4,533.5v91.9 M1088.8,634.3v-50.4 M1088.8,575.1v-91.9 M1093.2,474.3v50.4 M1093.2,533.5v91.9
		 M1097.7,634.3v-50.4 M1097.7,575.1v-91.9 M1102.1,474.3v50.4 M1102.1,533.5v91.9 M1106.5,634.3v-50.4 M1106.5,575.1v-91.9
		 M1110.9,474.3v50.4 M1110.9,533.5v91.9 M1115.3,634.3v-50.4 M1115.3,575.1v-91.9 M1119.8,474.3v50.4 M1119.8,533.5v91.9
		 M1124.2,634.3v-50.4 M1124.2,575.1v-91.9 M1128.6,474.3v50.4 M1128.6,533.5v91.9 M1133,634.3v-50.4 M1133,575.1v-91.9
		 M1137.5,474.3v50.4 M1137.5,533.5v91.9 M1141.9,634.3v-50.4 M1141.9,575.1v-91.9 M1146.3,474.3v50.4 M1146.3,533.5v91.9
		 M1150.7,634.3v-50.4 M1150.7,575.1v-91.9 M1155.1,474.3v50.4 M1155.1,533.5v91.9 M1159.6,634.3v-50.4 M1159.6,575.1v-91.9
		 M1164,474.3v50.4 M1164,533.5v91.9 M1168.4,634.3v-50.4 M1168.4,575.1v-91.9 M1172.8,474.3v50.4 M1172.8,533.5v91.9 M1177.3,634.3
		v-50.4 M1177.3,575.1v-91.9 M1181.7,474.3v50.4 M1181.7,533.5v91.9 M1186.1,634.3v-50.4 M1186.1,575.1v-91.9 M1190.5,474.3v50.4
		 M1190.5,533.5v91.9 M1194.9,634.3v-50.4 M1194.9,575.1v-91.9 M1199.4,474.3v50.4 M1199.4,533.5v91.9 M1203.8,634.3v-50.4
		 M1203.8,575.1v-91.9 M1208.2,474.3v50.4 M1208.2,533.5v91.9"/>
</g>
<g id="p-2">
	<path class="st0" d="M46.3,449.4h274.6c22.6,0,44.8-5.9,64.4-17.2c19.6-11.3,35.8-27.6,47.1-47.1c11.3-19.6,17.2-41.8,17.2-64.4
		c0-22.6-5.9-44.8-17.2-64.4c-11.3-19.6-27.6-35.8-47.1-47.1c-19.6-11.3-41.8-17.2-64.4-17.2h-17.4c-0.3,0,0,0.3,0,0v-17.4
		c0-22.6-5.9-44.8-17.2-64.4C275,90.6,258.7,74.3,239.2,63c-19.6-11.3-41.8-17.2-64.4-17.2S130,51.7,110.4,63
		c-19.6,11.3-35.8,27.6-47.1,47.1C52,129.7,46,151.9,46,174.5v274.6C46,449.3,46.2,449.4,46.3,449.4z M55.2,440.6h265.8
		c21,0,41.7-5.5,60-16.1c18.2-10.5,33.4-25.7,43.9-43.9c10.5-18.2,16.1-38.9,16.1-60c0-21-5.5-41.7-16.1-60
		c-10.5-18.2-25.7-33.4-43.9-43.9c-18.2-10.5-38.9-16.1-60-16.1h-26.2c-0.3,0,0,0.3,0,0v-26.2c0-21-5.5-41.7-16.1-60
		c-10.5-18.2-25.7-33.4-43.9-43.9c-18.2-10.5-38.9-16.1-60-16.1s-41.7,5.5-60,16.1c-18.2,10.5-33.4,25.7-43.9,43.9
		c-10.5,18.2-16.1,38.9-16.1,60v265.8C54.9,440.4,55,440.6,55.2,440.6z M37.5,458.5h13.2c0.3,0,0-0.3,0,0v8.6c0,0.2,0.1,0.3,0.3,0.3
		h8.8c0.2,0,0.3-0.1,0.3-0.3v-8.6c0-0.3-0.3,0,0,0h8.3c0.3,0,0-0.3,0,0v8.6c0,0.2,0.1,0.3,0.3,0.3h8.8c0.2,0,0.3-0.1,0.3-0.3v-8.6
		c0-0.3-0.3,0,0,0h8.3c0.3,0,0-0.3,0,0v8.6c0,0.2,0.1,0.3,0.3,0.3h8.8c0.2,0,0.3-0.1,0.3-0.3v-8.6c0-0.3-0.3,0,0,0h8.3
		c0.3,0,0-0.3,0,0v8.6c0,0.2,0.1,0.3,0.3,0.3h8.8c0.2,0,0.3-0.1,0.3-0.3v-8.6c0-0.3-0.3,0,0,0h8.3c0.3,0,0-0.3,0,0v8.6
		c0,0.2,0.1,0.3,0.3,0.3h8.8c0.2,0,0.3-0.1,0.3-0.3v-8.6c0-0.3-0.3,0,0,0h8.3c0.3,0,0-0.3,0,0v8.6c0,0.2,0.1,0.3,0.3,0.3h8.8
		c0.2,0,0.3-0.1,0.3-0.3v-8.6c0-0.3-0.3,0,0,0h8.3c0.3,0,0-0.3,0,0v8.6c0,0.2,0.1,0.3,0.3,0.3h8.8c0.2,0,0.3-0.1,0.3-0.3v-8.6
		c0-0.3-0.3,0,0,0h8.3c0.3,0,0-0.3,0,0v8.6c0,0.2,0.1,0.3,0.3,0.3h8.8c0.2,0,0.3-0.1,0.3-0.3v-8.6c0-0.3-0.3,0,0,0h8.3
		c0.3,0,0-0.3,0,0v8.6c0,0.2,0.1,0.3,0.3,0.3h8.8c0.2,0,0.3-0.1,0.3-0.3v-8.6c0-0.3-0.3,0,0,0h8.3c0.3,0,0-0.3,0,0v8.6
		c0,0.2,0.1,0.3,0.3,0.3h8.8c0.2,0,0.3-0.1,0.3-0.3v-8.6c0-0.3-0.3,0,0,0h8.3c0.3,0,0-0.3,0,0v8.6c0,0.2,0.1,0.3,0.3,0.3h8.8
		c0.2,0,0.3-0.1,0.3-0.3v-8.6c0-0.3-0.3,0,0,0h8.3c0.3,0,0-0.3,0,0v8.6c0,0.2,0.1,0.3,0.3,0.3h8.8c0.2,0,0.3-0.1,0.3-0.3v-8.6
		c0-0.3-0.3,0,0,0h8.3c0.3,0,0-0.3,0,0v8.6c0,0.2,0.1,0.3,0.3,0.3h8.8c0.2,0,0.3-0.1,0.3-0.3v-8.6c0-0.3-0.3,0,0,0h8.3
		c0.3,0,0-0.3,0,0v8.6c0,0.2,0.1,0.3,0.3,0.3h8.8c0.2,0,0.3-0.1,0.3-0.3v-8.6c0-0.3-0.3,0,0,0h8.3c0.3,0,0-0.3,0,0v8.6
		c0,0.2,0.1,0.3,0.3,0.3h8.8c0.2,0,0.3-0.1,0.3-0.3v-8.6c0-0.3-0.3,0,0,0h13.2c24.2,0,47.9-6.4,68.8-18.4
		c20.9-12.1,38.3-29.4,50.4-50.4c12.1-20.9,18.4-44.6,18.4-68.8c0-24.2-6.4-47.9-18.4-68.8c-12.1-20.9-29.4-38.3-50.4-50.4
		s-44.6-18.4-68.8-18.4h-8.6c-0.3,0,0,0.3,0,0v-8.6c0-24.2-6.4-47.9-18.4-68.8c-12.1-20.9-29.4-38.3-50.4-50.4s-44.6-18.4-68.8-18.4
		s-47.9,6.4-68.8,18.4S67.7,85.1,55.6,106s-18.4,44.6-18.4,68.8V188c0,0.3,0.3,0,0,0h-8.6c-0.2,0-0.3,0.1-0.3,0.3v8.8
		c0,0.2,0.1,0.3,0.3,0.3h8.6c0.3,0,0-0.3,0,0v8.3c0,0.3,0.3,0,0,0h-8.6c-0.2,0-0.3,0.1-0.3,0.3v8.8c0,0.2,0.1,0.3,0.3,0.3h8.6
		c0.3,0,0-0.3,0,0v8.3c0,0.3,0.3,0,0,0h-8.6c-0.2,0-0.3,0.1-0.3,0.3v8.8c0,0.2,0.1,0.3,0.3,0.3h8.6c0.3,0,0-0.3,0,0v8.3
		c0,0.3,0.3,0,0,0h-8.6c-0.2,0-0.3,0.1-0.3,0.3v8.8c0,0.2,0.1,0.3,0.3,0.3h8.6c0.3,0,0-0.3,0,0v8.3c0,0.3,0.3,0,0,0h-8.6
		c-0.2,0-0.3,0.1-0.3,0.3v8.8c0,0.2,0.1,0.3,0.3,0.3h8.6c0.3,0,0-0.3,0,0v8.3c0,0.3,0.3,0,0,0h-8.6c-0.2,0-0.3,0.1-0.3,0.3v8.8
		c0,0.2,0.1,0.3,0.3,0.3h8.6c0.3,0,0-0.3,0,0v8.3c0,0.3,0.3,0,0,0h-8.6c-0.2,0-0.3,0.1-0.3,0.3v8.8c0,0.2,0.1,0.3,0.3,0.3h8.6
		c0.3,0,0-0.3,0,0v8.3c0,0.3,0.3,0,0,0h-8.6c-0.2,0-0.3,0.1-0.3,0.3v8.8c0,0.2,0.1,0.3,0.3,0.3h8.6c0.3,0,0-0.3,0,0v8.3
		c0,0.3,0.3,0,0,0h-8.6c-0.2,0-0.3,0.1-0.3,0.3v8.8c0,0.2,0.1,0.3,0.3,0.3h8.6c0.3,0,0-0.3,0,0v8.3c0,0.3,0.3,0,0,0h-8.6
		c-0.2,0-0.3,0.1-0.3,0.3v8.8c0,0.2,0.1,0.3,0.3,0.3h8.6c0.3,0,0-0.3,0,0v8.3c0,0.3,0.3,0,0,0h-8.6c-0.2,0-0.3,0.1-0.3,0.3v8.8
		c0,0.2,0.1,0.3,0.3,0.3h8.6c0.3,0,0-0.3,0,0v8.3c0,0.3,0.3,0,0,0h-8.6c-0.2,0-0.3,0.1-0.3,0.3v8.8c0,0.2,0.1,0.3,0.3,0.3h8.6
		c0.3,0,0-0.3,0,0v8.3c0,0.3,0.3,0,0,0h-8.6c-0.2,0-0.3,0.1-0.3,0.3v8.8c0,0.2,0.1,0.3,0.3,0.3h8.6c0.3,0,0-0.3,0,0v8.3
		c0,0.3,0.3,0,0,0h-8.6c-0.2,0-0.3,0.1-0.3,0.3v8.8c0,0.2,0.1,0.3,0.3,0.3h8.6c0.3,0,0-0.3,0,0v8.3c0,0.3,0.3,0,0,0h-8.6
		c-0.2,0-0.3,0.1-0.3,0.3v8.8c0,0.2,0.1,0.3,0.3,0.3h8.6c0.3,0,0-0.3,0,0v13.2C37.2,458.4,37.3,458.5,37.5,458.5"/>
</g>
<g id="p-3">
	<path class="st0" d="M884,458.5h-13.2c-0.3,0,0-0.3,0,0v8.6c0,0.2-0.1,0.3-0.3,0.3h-8.8c-0.2,0-0.3-0.1-0.3-0.3v-8.6
		c0-0.3,0.3,0,0,0h-8.3c-0.3,0,0-0.3,0,0v8.6c0,0.2-0.1,0.3-0.3,0.3H844c-0.2,0-0.3-0.1-0.3-0.3v-8.6c0-0.3,0.3,0,0,0h-8.3
		c-0.3,0,0-0.3,0,0v8.6c0,0.2-0.1,0.3-0.3,0.3h-8.8c-0.2,0-0.3-0.1-0.3-0.3v-8.6c0-0.3,0.3,0,0,0h-8.3c-0.3,0,0-0.3,0,0v8.6
		c0,0.2-0.1,0.3-0.3,0.3h-8.8c-0.2,0-0.3-0.1-0.3-0.3v-8.6c0-0.3,0.3,0,0,0h-8.3c-0.3,0,0-0.3,0,0v8.6c0,0.2-0.1,0.3-0.3,0.3h-8.8
		c-0.2,0-0.3-0.1-0.3-0.3v-8.6c0-0.3,0.3,0,0,0h-8.3c-0.3,0,0-0.3,0,0v8.6c0,0.2-0.1,0.3-0.3,0.3h-8.8c-0.2,0-0.3-0.1-0.3-0.3v-8.6
		c0-0.3,0.3,0,0,0h-8.3c-0.3,0,0-0.3,0,0v8.6c0,0.2-0.1,0.3-0.3,0.3h-8.8c-0.2,0-0.3-0.1-0.3-0.3v-8.6c0-0.3,0.3,0,0,0H747
		c-0.3,0,0-0.3,0,0v8.6c0,0.2-0.1,0.3-0.3,0.3h-8.8c-0.2,0-0.3-0.1-0.3-0.3v-8.6c0-0.3,0.3,0,0,0h-8.3c-0.3,0,0-0.3,0,0v8.6
		c0,0.2-0.1,0.3-0.3,0.3h-8.8c-0.2,0-0.3-0.1-0.3-0.3v-8.6c0-0.3,0.3,0,0,0h-8.3c-0.3,0,0-0.3,0,0v8.6c0,0.2-0.1,0.3-0.3,0.3h-8.8
		c-0.2,0-0.3-0.1-0.3-0.3v-8.6c0-0.3,0.3,0,0,0h-8.3c-0.3,0,0-0.3,0,0v8.6c0,0.2-0.1,0.3-0.3,0.3h-8.8c-0.2,0-0.3-0.1-0.3-0.3v-8.6
		c0-0.3,0.3,0,0,0h-8.3c-0.3,0,0-0.3,0,0v8.6c0,0.2-0.1,0.3-0.3,0.3h-8.8c-0.2,0-0.3-0.1-0.3-0.3v-8.6c0-0.3,0.3,0,0,0h-8.3
		c-0.3,0,0-0.3,0,0v8.6c0,0.2-0.1,0.3-0.3,0.3h-8.8c-0.2,0-0.3-0.1-0.3-0.3v-8.6c0-0.3,0.3,0,0,0h-8.3c-0.3,0,0-0.3,0,0v8.6
		c0,0.2-0.1,0.3-0.3,0.3h-8.8c-0.2,0-0.3-0.1-0.3-0.3v-8.6c0-0.3,0.3,0,0,0h-8.3c-0.3,0,0-0.3,0,0v8.6c0,0.2-0.1,0.3-0.3,0.3H614
		c-0.2,0-0.3-0.1-0.3-0.3v-8.6c0-0.3,0.3,0,0,0h-13.2c-24.2,0-47.9-6.4-68.8-18.4c-20.9-12.1-38.3-29.4-50.4-50.4
		S463,345.1,463,320.9c0-24.2,6.4-47.9,18.4-68.8s29.4-38.3,50.4-50.4c20.9-12.1,44.6-18.4,68.8-18.4h8.6c0.3,0,0,0.3,0,0v-8.6
		c0-24.2,6.4-47.9,18.4-68.8c12.1-20.9,29.4-38.3,50.4-50.4s44.6-18.4,68.8-18.4c24.2,0,47.9,6.4,68.8,18.4
		c20.9,12.1,38.3,29.4,50.4,50.4s18.4,44.6,18.4,68.8V188c0,0.3-0.3,0,0,0h8.6c0.2,0,0.3,0.1,0.3,0.3v8.8c0,0.2-0.1,0.3-0.3,0.3
		h-8.6c-0.3,0,0-0.3,0,0v8.3c0,0.3-0.3,0,0,0h8.6c0.2,0,0.3,0.1,0.3,0.3v8.8c0,0.2-0.1,0.3-0.3,0.3h-8.6c-0.3,0,0-0.3,0,0v8.3
		c0,0.3-0.3,0,0,0h8.6c0.2,0,0.3,0.1,0.3,0.3v8.8c0,0.2-0.1,0.3-0.3,0.3h-8.6c-0.3,0,0-0.3,0,0v8.3c0,0.3-0.3,0,0,0h8.6
		c0.2,0,0.3,0.1,0.3,0.3v8.8c0,0.2-0.1,0.3-0.3,0.3h-8.6c-0.3,0,0-0.3,0,0v8.3c0,0.3-0.3,0,0,0h8.6c0.2,0,0.3,0.1,0.3,0.3v8.8
		c0,0.2-0.1,0.3-0.3,0.3h-8.6c-0.3,0,0-0.3,0,0v8.3c0,0.3-0.3,0,0,0h8.6c0.2,0,0.3,0.1,0.3,0.3v8.8c0,0.2-0.1,0.3-0.3,0.3h-8.6
		c-0.3,0,0-0.3,0,0v8.3c0,0.3-0.3,0,0,0h8.6c0.2,0,0.3,0.1,0.3,0.3v8.8c0,0.2-0.1,0.3-0.3,0.3h-8.6c-0.3,0,0-0.3,0,0v8.3
		c0,0.3-0.3,0,0,0h8.6c0.2,0,0.3,0.1,0.3,0.3v8.8c0,0.2-0.1,0.3-0.3,0.3h-8.6c-0.3,0,0-0.3,0,0v8.3c0,0.3-0.3,0,0,0h8.6
		c0.2,0,0.3,0.1,0.3,0.3v8.8c0,0.2-0.1,0.3-0.3,0.3h-8.6c-0.3,0,0-0.3,0,0v8.3c0,0.3-0.3,0,0,0h8.6c0.2,0,0.3,0.1,0.3,0.3v8.8
		c0,0.2-0.1,0.3-0.3,0.3h-8.6c-0.3,0,0-0.3,0,0v8.3c0,0.3-0.3,0,0,0h8.6c0.2,0,0.3,0.1,0.3,0.3v8.8c0,0.2-0.1,0.3-0.3,0.3h-8.6
		c-0.3,0,0-0.3,0,0v8.3c0,0.3-0.3,0,0,0h8.6c0.2,0,0.3,0.1,0.3,0.3v8.8c0,0.2-0.1,0.3-0.3,0.3h-8.6c-0.3,0,0-0.3,0,0v8.3
		c0,0.3-0.3,0,0,0h8.6c0.2,0,0.3,0.1,0.3,0.3v8.8c0,0.2-0.1,0.3-0.3,0.3h-8.6c-0.3,0,0-0.3,0,0v8.3c0,0.3-0.3,0,0,0h8.6
		c0.2,0,0.3,0.1,0.3,0.3v8.8c0,0.2-0.1,0.3-0.3,0.3h-8.6c-0.3,0,0-0.3,0,0v8.3c0,0.3-0.3,0,0,0h8.6c0.2,0,0.3,0.1,0.3,0.3v8.8
		c0,0.2-0.1,0.3-0.3,0.3h-8.6c-0.3,0,0-0.3,0,0v13.2C884.3,458.4,884.2,458.5,884,458.5"/>
</g>
<g id="p-4">
	<path class="st0" d="M897.8,467.4h292.3c25.7,0,51-6.8,73.2-19.6c22.3-12.9,40.7-31.3,53.6-53.6c12.9-22.3,19.6-47.5,19.6-73.2
		s-6.8-51-19.6-73.2c-12.9-22.3-31.3-40.7-53.6-53.6c-22.3-12.9-47.5-19.6-73.2-19.6h8.8h-8.6c-0.3,0,0,0.3,0,0v-8.6v8.8
		c0-25.7-6.8-51-19.6-73.2c-12.9-22.3-31.3-40.7-53.6-53.6s-47.5-19.6-73.2-19.6c-25.7,0-51,6.8-73.2,19.6
		c-22.3,12.9-40.7,31.3-53.6,53.6c-12.9,22.3-19.6,47.5-19.6,73.2v292.3C897.6,467.2,897.7,467.4,897.8,467.4"/>
</g>
<g>
	<path d="M666.2,405.6c-1.5-1.4-2.5-3.3-2.8-5.5c-0.4-2.2-0.6-5-0.9-8.4c-1.6-30.6-2.6-55-3-73.3c-0.4-18.3-0.4-29.8,0-34.5
		c0.2-1.1,0.7-2.5,1.5-4.2c0.8-1.7,1.2-3.1,1.1-4.1c-0.1-1,0.1-1.3,0.5-1c0.4,0.3,0.8,0.7,1,1.2c0.6,2,1.5,4,2.8,6
		c1.3,2,2.4,3.6,3.5,4.7c0.3,0.4,1.3,1.6,2.9,3.7c1.7,2.1,3.7,4.6,6.2,7.6c2.5,3,5.1,6.2,8,9.5c2.9,3.4,5.6,6.7,8.2,9.8
		c2.6,3.1,5,5.9,7.2,8.2c2.2,2.4,3.7,4,4.7,4.9c1.5,1.3,2.8,2.1,3.9,2.5c1.1,0.4,2.1,0.5,2.8,0.4c0.8-0.1,1.4-0.3,1.9-0.7
		c0.5-0.4,0.8-0.7,1-1c0.4-0.4,0.8-1,1.1-1.8c0.4-0.7,0.8-1.5,1.2-2.4c0.4-0.9,0.8-1.2,1.1-1c0.3,0.2,0.2,0.7-0.2,1.6
		c-0.2,0.4-0.6,1.2-1.1,2.4c-0.5,1.2-1.1,2.5-1.8,4c-0.7,1.5-1.3,3-2,4.5c-0.7,1.5-1.3,2.7-1.9,3.8c-1.1,1.3-2.8,1.5-4.9,0.4
		c-0.5-0.5-1.5-1.7-3-3.4c-1.5-1.7-3.1-3.6-4.8-5.5c-1.7-2-3.3-3.8-4.8-5.5c-1.5-1.7-2.5-2.8-3.1-3.3c-1-0.8-2.4-1.2-4.2-1.1
		c-1.8,0.1-3.7,0.8-5.6,2.2c-0.7,0.5-1.9,1.6-3.4,3.3c-1.6,1.7-3.4,3.8-5.5,6.3c-2.2,2.6-4.3,5.1-6.5,7.6c-2.1,2.5-3.8,4.2-5.1,5.3
		c0.5,12,1.3,22.4,2.5,31.3c1.2,8.9,2.6,15.9,4,21.1c0.6,1.7,1.2,3.1,1.9,4.2c0.7,1.1,1.7,2.4,3.1,3.8c0.4,0.6,0.3,1-0.3,1.1
		L666.2,405.6z M662.5,343.6c0.6,0.4,1.5,0.1,2.7-0.7c1.2-0.8,2.4-2,3.7-3.4c1.3-1.4,2.7-2.9,4-4.5c1.3-1.6,2.5-2.9,3.4-4
		c2.4-2.9,4.4-5.2,5.9-6.9c1.5-1.7,2.7-2.9,3.5-3.5c1-0.7,1.6-1.1,1.6-1.3c0.1-0.2-0.1-0.6-0.6-1.3c-1.5-1.9-3.5-4.3-6.1-7.4
		c-2.6-3.1-5.2-6.2-7.8-9.3c-2.6-3.1-4.9-5.8-6.8-8.1c-1.9-2.3-3.1-3.7-3.3-4.1c-0.6-0.8-0.9-1.1-1.1-1c-0.2,0.1-0.3,0.8-0.4,2
		c0,0.4-0.1,1.7-0.1,3.8c0,2.1,0,4.8,0,8.1c0,3.3,0,6.9,0,10.7c0,3.9,0.1,7.7,0.1,11.5c0.1,3.8,0.2,7.4,0.4,10.8
		C661.8,338.5,662.1,341.3,662.5,343.6z"/>
	<path d="M746.7,266.3c0.9,3.5,1.6,7.2,2.1,11.2c0.5,4,0.7,8,0.5,11.8c-0.2,3.9-0.7,7.5-1.7,11c-0.9,3.4-2.3,6.3-4.3,8.6
		c-0.9,1.1-1.9,1.9-2.9,2.6c-1.1,0.6-2.2,0.4-3.5-0.6c-1.3-1-2.5-2.8-3.6-5.3c-1.2-2.5-2.3-5.3-3.5-8.3c-1.1-3-2.3-6.1-3.4-9.3
		c-1.1-3.2-2.3-5.9-3.5-8.3c-0.3-0.6-0.7-0.9-1.1-1c-0.4-0.1-0.7,0.1-0.8,0.8c-0.2,1.5-0.3,3.4-0.4,5.6c-0.1,2.2-0.1,4.6,0,7
		c0,2.4,0.1,4.8,0.3,7.1c0.2,2.3,0.4,4.3,0.7,6c1,3.3,2.1,6.3,3.1,8.9c1,2.6,2,5.6,3.1,9.1c0.2,0.8,0.3,1.3,0.1,1.5
		c-0.4,0.4-1.2,0.4-2.4-0.1c-1.2-0.5-2-0.9-2.3-1.1c-0.8-0.7-1.4-2.1-1.9-4.4c-0.4-2.3-1-4.8-1.5-7.6c-1.7-3.8-3.4-7.8-5.3-12
		c-1.9-4.2-3.6-7.9-5.2-11c-0.2-0.6-0.1-1.2,0.3-1.8c0.5-0.5,1.1-0.8,1.9-0.9c0.8-0.1,1.5,0.1,2,0.6c0.4,0.3,1,2,2.1,5
		c1,3.1,2.4,6.4,4.1,10c-0.1-3-0.1-6.2-0.2-9.6c0-3.4,0-6.7,0.1-9.7c0.1-3,0.3-5.6,0.5-7.8c0.2-2.2,0.6-3.5,1-4.1
		c0.3-0.4,0.8-0.5,1.4-0.5c0.7,0,1.2,0.2,1.5,0.5c0.4,0.3,0.7,1,1,2c0.6,2.2,1.4,4.9,2.5,8.2c1,3.3,2.2,6.6,3.5,9.9
		c1.3,3.3,2.6,6.3,4,9c1.4,2.7,2.7,4.6,4,5.6c1.1,0.9,2,1.3,2.8,1.2c0.8-0.1,1.6-0.7,2.4-1.6c1.3-1.5,2.2-3.8,2.8-6.8
		c0.6-3,0.9-6.4,1-10c0.1-3.7-0.1-7.4-0.6-11.1c-0.5-3.8-1.2-7.1-2.1-10c-0.1-0.4,0-0.7,0.5-1C746.3,265,746.6,265.4,746.7,266.3z"
		/>
	<path d="M731.7,223c1.1,0.9,1.8,2.3,2,4.1c0.3,1.8-0.1,3.3-1,4.5c-0.9,1.1-1.9,1.2-3,0.3c-1.2-1-1.9-2.3-2.3-4.1
		c-0.4-1.7,0-3.2,1-4.5C729.4,222.1,730.5,222,731.7,223z M766.6,242c1,4.5,1.5,9.1,1.7,14c0.2,4.9,0.1,9.1-0.4,12.7
		c-0.3,2.8-1,5.3-1.9,7.7c-0.9,2.4-2.1,4.4-3.3,5.9c-0.5,0.5-1,1.1-1.7,1.8c-0.7,0.6-1.5,1.1-2.3,1.4c-0.8,0.3-1.7,0.4-2.6,0.3
		c-0.9-0.1-1.9-0.5-2.9-1.4c-1.2-1-2.4-2.8-3.6-5.3c-1.3-2.6-2.5-5.4-3.6-8.4s-2.2-5.9-3.1-8.8c-1-2.9-1.6-5.1-2-6.6
		c-0.3-1-0.3-2.3,0.2-3.9c0.4-1.5,0.8-2.5,1.1-2.8c0.4-0.4,0.7-0.6,1-0.3c0.2,0.2,0.4,0.4,0.6,0.9c0.2,0.4,0.4,0.8,0.4,1.1
		c0.8,2.7,1.8,5.5,2.9,8.5c1.1,3,2.3,5.8,3.5,8.5c1.2,2.7,2.4,5,3.6,7c1.2,2,2.3,3.4,3.3,4.2c1.1,0.9,2.1,1.3,3.1,1.1
		c1-0.2,1.9-0.7,2.7-1.7c1.5-1.8,2.5-4.3,3.1-7.4c0.6-3.2,0.9-6.5,1-10c0.1-3.5-0.1-7-0.5-10.3c-0.4-3.4-0.8-6.1-1.3-8.2
		c-0.1-0.8,0-1.2,0.3-1C766,241.1,766.3,241.5,766.6,242z"/>
</g>
</svg>
