0
SECTION
2
HEADER
9
$INSUNITS
70
1
9
$ACADVER
1
AC1014
9
$HANDSEED
5
FFFF
0
ENDSEC
0
SECTION
2
TABLES
0
TABLE
2
VPORT
5
8
100
AcDbSymbolTable
0
ENDTAB
0
TABLE
2
LTYPE
5
5
100
AcDbSymbolTable
0
LTYPE
5
14
100
AcDbSymbolTableRecord
100
AcDbLinetypeTableRecord
2
BYBLOCK
70
0
0
LTYPE
5
15
100
AcDbSymbolTableRecord
100
AcDbLinetypeTableRecord
2
BYLAYER
70
0
0
ENDTAB
0
TABLE
2
LAYER
5
2
100
AcDbSymbolTable
70
2
0
LAYER
5
50
100
AcDbSymbolTableRecord
100
AcDbLayerTableRecord
2
0
70
0
6
CONTINUOUS
0
ENDTAB
0
TABLE
2
STYLE
5
3
100
AcDbSymbolTable
70
1
0
STYLE
5
11
100
AcDbSymbolTableRecord
100
AcDbTextStyleTableRecord
2
STANDARD
70
0
0
ENDTAB
0
TABLE
2
VIEW
5
6
100
AcDbSymbolTable
70
0
0
ENDTAB
0
TABLE
2
UCS
5
7
100
AcDbSymbolTable
70
0
0
ENDTAB
0
TABLE
2
APPID
5
9
100
AcDbSymbolTable
70
2
0
APPID
5
12
100
AcDbSymbolTableRecord
100
AcDbRegAppTableRecord
2
ACAD
70
0
0
ENDTAB
0
TABLE
2
DIMSTYLE
5
A
100
AcDbSymbolTable
70
1
0
ENDTAB
0
TABLE
2
BLOCK_RECORD
5
1
100
AcDbSymbolTable
70
1
0
BLOCK_RECORD
5
1F
100
AcDbSymbolTableRecord
100
AcDbBlockTableRecord
2
*MODEL_SPACE
0
BLOCK_RECORD
5
1B
100
AcDbSymbolTableRecord
100
AcDbBlockTableRecord
2
*PAPER_SPACE
0
ENDTAB
0
ENDSEC
0
SECTION
2
BLOCKS
0
BLOCK
5
20
100
AcDbEntity
100
AcDbBlockBegin
2
*MODEL_SPACE
0
ENDBLK
5
21
100
AcDbEntity
100
AcDbBlockEnd
0
BLOCK
5
1C
100
AcDbEntity
100
AcDbBlockBegin
2
*PAPER_SPACE
0
ENDBLK
5
1D
100
AcDbEntity
100
AcDbBlockEnd
0
ENDSEC
0
SECTION
2
ENTITIES
0
LWPOLYLINE
5
100
100
AcDbEntity
8
0
100
AcDbPolyline
90
4
70
1
43
0.0
10
12.499999999999998
20
0
10
0
20
0
10
0
20
8.5
10
12.499999999999998
20
8.5
0
CIRCLE
5
101
100
AcDbEntity
8
0
100
AcDbCircle
10
10.01945286431526
20
6.064551089943504
30
0
40
1.5000000000000004
210
0
220
0
230
1
0
LWPOLYLINE
5
102
100
AcDbEntity
8
0
100
AcDbPolyline
90
8
70
1
43
0.0
10
11
20
0.49999999999999994
10
1.4999999999999996
20
0.49999999999999994
42
-0.41421356237309565
10
0.50000000000000011
20
1.4999999999999993
10
0.49999999999999978
20
7
42
-0.41421356237309509
10
1.4999999999999993
20
7.9999999999999991
10
11
20
7.9999999999999991
42
-0.41421356237309509
10
12
20
7
10
12
20
1.4999999999999993
42
-0.41421356237309565
0
LWPOLYLINE
5
103
100
AcDbEntity
8
0
100
AcDbPolyline
90
8
70
1
43
0.0
10
6.3951581133840829
20
7.3561309229862459
10
1.2731108692895883
20
7.3561309229862459
42
0.41421356237309509
10
1.0841344913368351
20
7.167154545033493
10
1.0841344913368351
20
6.7478632064508091
42
0.41421356237309215
10
1.2258667748014003
20
6.606130922986245
10
6.3951581133840802
20
6.606130922986245
42
0.41421356237309293
10
6.5841344913368376
20
6.7951073009390015
10
6.5841344913368376
20
7.1671545450334913
42
0.41421356237309509
0
LWPOLYLINE
5
104
100
AcDbEntity
8
0
100
AcDbPolyline
90
4
70
1
43
0.0
10
6.5870369552083972
20
5.6964762686077339
10
4.087036955208398
20
5.6964762686077339
10
4.087036955208398
20
3.1964762686077348
10
6.5870369552083972
20
3.1964762686077348
0
LWPOLYLINE
5
105
100
AcDbEntity
8
0
100
AcDbPolyline
90
8
70
1
43
0.0
10
6.8353837757354912
20
2.1442631867287161
10
0.96333653164100008
20
2.1442631867287161
42
0.41421356237309392
10
0.7743601536882444
20
1.9552868087759612
10
0.7743601536882444
20
1.583239564681473
42
0.4142135623730967
10
0.96333653164099997
20
1.3942631867287163
10
6.8353837757354912
20
1.3942631867287163
42
0.41421356237309614
10
7.0243601536882458
20
1.5832395646814716
10
7.0243601536882458
20
1.9552868087759621
42
0.41421356237309448
0
LWPOLYLINE
5
106
100
AcDbEntity
8
0
100
AcDbPolyline
90
4
70
1
43
0.0
10
3.5286270904512747
20
5.7196460403104403
10
1.0286270904512749
20
5.7196460403104403
10
1.0286270904512749
20
3.2196460403104408
10
3.5286270904512747
20
3.2196460403104408
0
CIRCLE
5
107
100
AcDbEntity
8
0
100
AcDbCircle
10
10.01945286431526
20
6.064551089943504
30
0
40
1.1249999999999998
210
0
220
0
230
1
0
LWPOLYLINE
5
108
100
AcDbEntity
8
0
100
AcDbPolyline
90
8
70
1
43
0.0
10
10.65305868168012
20
3.9125714884038416
10
9.40305868168012
20
3.9125714884038416
42
0.41421356237309509
10
8.90305868168012
20
3.4125714884038416
10
8.90305868168012
20
3.1625714884038416
42
0.41421356237309542
10
9.40305868168012
20
2.6625714884038421
10
10.65305868168012
20
2.6625714884038412
42
0.41421356237309381
10
11.153058681680122
20
3.1625714884038429
10
11.153058681680122
20
3.4125714884038416
42
0.41421356237309631
0
ENDSEC
0
SECTION
2
OBJECTS
0
DICTIONARY
5
C
100
AcDbDictionary
3
ACAD_GROUP
350
D
3
ACAD_MLINESTYLE
350
17
0
DICTIONARY
5
D
100
AcDbDictionary
0
DICTIONARY
5
1A
330
C
100
AcDbDictionary
0
DICTIONARY
5
17
100
AcDbDictionary
0
ENDSEC
0
EOF
