<?xml version="1.0" encoding="utf-8"?>
<!-- Generator: Adobe Illustrator 25.4.1, SVG Export Plug-In . SVG Version: 6.00 Build 0)  -->
<svg version="1.1" xmlns="http://www.w3.org/2000/svg" xmlns:xlink="http://www.w3.org/1999/xlink" x="0px" y="0px"
	 viewBox="0 0 1728 864" style="enable-background:new 0 0 1728 864;" xml:space="preserve">
<style type="text/css">
	.st0{display:none;}
	.st1{display:inline;fill:#FFFFFF;stroke:#000000;stroke-miterlimit:10;}
	.st2{display:inline;fill:none;stroke:#000000;stroke-miterlimit:10;}
	.st3{display:inline;}
	.st4{fill:none;stroke:#000000;stroke-miterlimit:10;}
	.st5{fill:#FFFFFF;}
</style>
<g id="Example_1" class="st0">
	<path class="st1" d="M875.8,610.4"/>
	<path class="st1" d="M438.3,321.6"/>
	<path class="st1" d="M41.4,321.6"/>
	<path class="st2" d="M448.3,320.3h-8.5v19.8H43v-19.8h-8.5v-215c0-40.3,32.7-73,73-73h267.9c40.3,0,73,32.7,73,73V320.3z"/>
	<g class="st3">
		<path d="M344.6,112.5c1.4,0,2.5,0.1,3.3,0.4c0.8,0.3,1.4,0.7,1.7,1.2l13.4,19.7v12.8c0,1.8-2,2.7-5.9,2.7v3.4h20.8v-3.4
			c-3.9,0-5.9-0.9-5.9-2.7v-12.8l13-19.6c0.4-0.7,1-1.1,1.8-1.4c0.8-0.3,1.7-0.4,2.8-0.4V109h-21.6v3.5h4.7c1.2,0,1.8,0.4,1.8,1.2
			c0,0.2-0.1,0.5-0.3,0.8l-9.5,15.1l-9.7-14.9c-0.2-0.3-0.2-0.5-0.2-0.8c0-0.9,0.8-1.4,2.4-1.4h2.8V109h-15.3V112.5z"/>
		<path d="M324.5,108.1c-3.1,0-6.1,0.4-8.7,1.2c-2.7,0.8-5,2.1-7,3.9c-1.9,1.8-3.5,4.1-4.6,7c-1.1,2.9-1.6,6.5-1.6,10.7
			c0,3.5,0.5,6.6,1.4,9.4c0.9,2.8,2.4,5.2,4.2,7.2s4.3,3.5,7.1,4.6c2.9,1.1,6.2,1.6,10,1.6c3.1,0,6-0.4,8.7-1.1c2.7-0.7,5-2,6.9-3.7
			c1.9-1.7,3.5-4,4.6-6.8c1.1-2.8,1.7-6.2,1.7-10.3c0-3.6-0.4-6.9-1.3-9.9c-0.9-2.9-2.2-5.4-4.1-7.5c-1.8-2.1-4.2-3.6-7.1-4.7
			C332,108.6,328.5,108.1,324.5,108.1z M324.2,112.9c2.4,0,4.5,0.4,6.3,1.1c1.8,0.7,3.2,1.8,4.3,3.2c1.1,1.4,1.9,3.1,2.5,5.1
			c0.5,2,0.8,4.3,0.8,6.8c0,4-0.3,7.2-0.9,9.7s-1.4,4.5-2.5,6c-1.1,1.5-2.4,2.5-4,3.1c-1.6,0.6-3.3,0.9-5.3,0.9
			c-2.6,0-4.8-0.4-6.5-1.1c-1.8-0.8-3.2-1.9-4.2-3.4c-1.1-1.5-1.8-3.3-2.3-5.5c-0.5-2.2-0.7-4.7-0.7-7.5c0-3.7,0.3-6.7,0.9-9
			c0.6-2.4,1.5-4.2,2.6-5.6c1.1-1.4,2.4-2.3,4-2.9C320.6,113.2,322.3,112.9,324.2,112.9z"/>
		<path d="M252.4,112.5c3.5,0,5.3,0.9,5.3,2.7v19.7c0,2.9,0.3,5.6,1,7.9c0.6,2.3,1.7,4.3,3.1,5.9c1.4,1.6,3.3,2.8,5.5,3.7
			c2.3,0.8,5,1.3,8.3,1.3c3.3,0,6.1-0.4,8.5-1.3c2.4-0.8,4.3-2.1,5.8-3.7c1.5-1.6,2.6-3.6,3.3-5.9c0.7-2.3,1-5,1-7.9v-19.7
			c0-1.8,1.7-2.7,5.2-2.7V109h-20.6v3.5c2.2,0,3.9,0.2,4.9,0.7c1,0.5,1.5,1.1,1.5,2v19.7c0,2.4-0.2,4.4-0.5,6.1
			c-0.4,1.7-1,3.2-1.8,4.3c-0.8,1.1-2,2-3.4,2.5c-1.4,0.6-3.2,0.8-5.4,0.8c-2.2,0-4-0.3-5.4-0.8c-1.5-0.5-2.7-1.4-3.6-2.5
			c-0.9-1.1-1.5-2.5-1.9-4.3c-0.4-1.7-0.6-3.8-0.6-6.1v-19.7c0-0.9,0.5-1.6,1.5-2c1-0.5,2.7-0.7,4.9-0.7V109h-16.6V112.5z"/>
		<path d="M185.3,147.6c-0.4,1.2-2,1.8-4.8,1.8v3.4h21.6v-3.4h-5.2c-1.1,0-1.7-0.4-1.7-1.1c0-0.1,0.1-0.3,0.2-0.6l2.4-6.4h18.1
			l2.2,5.9c0.1,0.2,0.1,0.5,0.1,0.7c0,1-0.9,1.5-2.6,1.5h-3.7v3.4h16.1v-3.5c-1.6,0-2.9-0.1-3.7-0.4c-0.8-0.3-1.3-0.7-1.5-1.2
			L208.1,109h-8.5L185.3,147.6z M214.2,136.8h-15.1l7.5-20.7L214.2,136.8z"/>
		<path d="M130.3,146.3c0,2,0.6,3.6,1.7,4.9c1.1,1.3,3.1,2,5.8,2c3.1,0,5.2-0.7,6.5-2.1c1.3-1.4,1.9-3.2,1.9-5.3v-4.4
			c0-3.3,0.5-5.7,1.4-7.2c0.9-1.5,2.7-2.3,5.2-2.3h9v14.8c0,1.8-2.2,2.7-6.5,2.7v3.4h20.8v-3.4c-3.5,0-5.2-0.9-5.2-2.7v-31.5
			c0-1.8,1.7-2.7,5.2-2.7V109h-25.2c-1.9,0-3.8,0.1-5.7,0.4c-1.8,0.3-3.5,0.8-4.9,1.6c-1.4,0.8-2.6,1.9-3.4,3.3
			c-0.9,1.4-1.3,3.3-1.3,5.7c0,1.5,0.2,2.9,0.7,4c0.5,1.2,1.1,2.1,1.9,3c0.8,0.8,1.6,1.5,2.6,2c1,0.5,2,0.9,3.1,1.1
			c-1,0.4-1.9,0.8-2.8,1.4c-0.8,0.6-1.5,1.3-2.1,2.2c-0.6,0.9-1,2-1.3,3.2c-0.3,1.3-0.4,2.7-0.4,4.5v5.4c0,0.9-0.2,1.5-0.5,1.9
			c-0.4,0.4-0.8,0.6-1.4,0.6c-0.6,0-1.1-0.2-1.4-0.6c-0.4-0.4-0.5-1-0.5-1.9v-2.8h-3.1V146.3z M161.9,113.9v13.9h-9.7
			c-2.4,0-4.2-0.5-5.4-1.6c-1.3-1.1-1.9-2.9-1.9-5.5c0-4.5,2.4-6.8,7.3-6.8H161.9z"/>
		<path d="M87.5,122.2l4.1,0.2c0.5-5.9,3-8.9,7.5-8.9h13.2v14.3h-6.7c-2.4,0-3.7-2.4-4.1-7.1h-3.7l0.9,18.4h3.6
			c0.4-4.9,1.6-7.3,3.7-7.3h6.3v16.4h-11.1c-6.6,0-10.2-4.2-11-12.6l-4.2,0.4l1.4,16.8h39.1v-3.4c-3.5,0-5.2-0.9-5.2-2.7v-31.5
			c0-1.8,1.7-2.7,5.2-2.7V109H87.5V122.2z"/>
		<path d="M380.9,218.2c-0.4,1.2-2,1.8-4.8,1.8v3.4h21.6V220h-5.2c-1.1,0-1.7-0.4-1.7-1.1c0-0.1,0.1-0.3,0.2-0.6l2.4-6.4h18.1
			l2.2,5.9c0.1,0.2,0.1,0.5,0.1,0.7c0,1-0.9,1.5-2.6,1.5h-3.7v3.4h16.1V220c-1.6,0-2.9-0.1-3.7-0.4c-0.8-0.3-1.3-0.7-1.5-1.2
			l-14.7-38.6h-8.5L380.9,218.2z M409.8,207.5h-15.1l7.5-20.7L409.8,207.5z"/>
		<path d="M316.2,183.2c1.5,0,2.7,0.2,3.4,0.6c0.7,0.4,1.2,0.9,1.4,1.6l11.3,38h8.6l9.2-28.4l9.3,28.4h8.7l10.8-37.9
			c0.2-0.7,0.7-1.2,1.5-1.7c0.8-0.5,1.8-0.7,2.9-0.7v-3.5h-19.2v3.5h4.2c1.1,0,1.6,0.4,1.6,1.1l-8.7,32.2l-8.9-29.7
			c0-0.2-0.1-0.4-0.1-0.5c0-0.2,0-0.3,0-0.5c0-1.6,1.4-2.5,4.3-2.5v-3.5h-18.2v3.5h4.2c0.6,0,0.9,0.1,1.1,0.3s0.3,0.5,0.3,0.9
			c0,0.5-0.1,1.2-0.4,2.1l-9.3,29.9l-8.6-31c0-0.1-0.1-0.4-0.1-0.8c0-1,0.8-1.5,2.3-1.5h2.9v-3.5h-14.4V183.2z"/>
		<path d="M272.8,192.9l4.1,0.2c0.5-5.9,3-8.9,7.5-8.9h13.2v14.3h-6.7c-2.4,0-3.7-2.4-4.1-7.1h-3.7l0.9,18.4h3.6
			c0.4-4.9,1.6-7.3,3.7-7.3h6.3v16.4h-11.1c-6.6,0-10.2-4.2-11-12.6l-4.2,0.4l1.4,16.8h39.1v-3.4c-3.5,0-5.2-0.9-5.2-2.7v-31.5
			c0-1.8,1.7-2.7,5.2-2.7v-3.5h-39.1V192.9z"/>
		<path d="M230.6,195l3.9,0.5c0.2-2,0.8-3.8,1.6-5.3c0.8-1.5,1.9-2.7,3.1-3.7c1.3-1,2.7-1.7,4.4-2.2c1.6-0.5,3.4-0.7,5.4-0.7
			c2.9,0,5.3,0.5,7,1.5c1.8,1,2.7,2.6,2.7,4.8c0,1.3-0.4,2.4-1.3,3.2c-0.9,0.8-2,1.4-3.4,1.9c-1.4,0.5-3,0.9-4.9,1.2
			c-1.8,0.3-3.7,0.7-5.6,1s-3.7,0.8-5.6,1.4c-1.8,0.6-3.4,1.4-4.9,2.4c-1.4,1-2.6,2.3-3.4,3.8c-0.9,1.6-1.3,3.5-1.3,5.9
			c0,2.4,0.4,4.4,1.2,6.1c0.8,1.7,2,3.2,3.4,4.3c1.5,1.1,3.3,2,5.4,2.5c2.1,0.5,4.4,0.8,7,0.8c2.6,0,4.8-0.3,6.7-0.9
			c1.9-0.6,3.6-1.3,5.1-2.3c0.7-0.5,1.4-0.7,2-0.7c0.3,0,0.7,0.3,1.3,0.9s1,1.3,1.4,2.1h3.9v-16.1l-3.9-0.4
			c-0.2,1.9-0.6,3.6-1.5,5.1c-0.8,1.5-1.9,2.8-3.3,3.9c-1.4,1.1-3,1.9-4.9,2.5c-1.9,0.6-4,0.9-6.2,0.9c-3.3,0-5.9-0.7-7.7-2
			c-1.8-1.3-2.7-3.4-2.7-6.2c0-0.9,0.3-1.7,0.8-2.3c0.6-0.6,1.3-1.1,2.2-1.6c0.9-0.4,2-0.8,3.2-1c1.2-0.3,2.5-0.5,3.9-0.7
			c1.4-0.2,2.8-0.4,4.2-0.7c1.4-0.2,2.7-0.5,4-0.9c1.8-0.5,3.4-1,4.8-1.7c1.4-0.7,2.6-1.5,3.6-2.6c1-1,1.7-2.3,2.2-3.7
			c0.5-1.5,0.8-3.2,0.8-5.2c0-1.5-0.3-3-0.8-4.5c-0.5-1.5-1.4-2.7-2.6-3.9c-1.2-1.1-2.8-2-4.7-2.7c-1.9-0.7-4.3-1-7.1-1
			c-2.6,0-4.8,0.2-6.7,0.7c-1.8,0.5-3.4,1.1-4.8,1.9c-0.8,0.5-1.6,0.7-2.2,0.7c-0.4,0-1-0.3-1.6-0.8c-0.6-0.5-1.1-1.1-1.4-1.7h-3.2
			V195z"/>
		<path d="M202,178.8c-3.1,0-6.1,0.4-8.7,1.2c-2.7,0.8-5,2.1-7,3.9c-1.9,1.8-3.5,4.1-4.6,7c-1.1,2.9-1.6,6.5-1.6,10.7
			c0,3.5,0.5,6.6,1.4,9.4c0.9,2.8,2.4,5.2,4.2,7.2s4.3,3.5,7.1,4.6c2.9,1.1,6.2,1.6,10,1.6c3.1,0,6-0.4,8.7-1.1c2.7-0.7,5-2,6.9-3.7
			c1.9-1.7,3.5-4,4.6-6.8c1.1-2.8,1.7-6.2,1.7-10.3c0-3.6-0.4-6.9-1.3-9.9c-0.9-2.9-2.2-5.4-4.1-7.5c-1.8-2.1-4.2-3.6-7.1-4.7
			C209.4,179.3,206,178.8,202,178.8z M201.7,183.6c2.4,0,4.5,0.4,6.3,1.1c1.8,0.7,3.2,1.8,4.3,3.2c1.1,1.4,1.9,3.1,2.5,5.1
			c0.5,2,0.8,4.3,0.8,6.8c0,4-0.3,7.2-0.9,9.7c-0.6,2.5-1.4,4.5-2.5,6c-1.1,1.5-2.4,2.5-4,3.1c-1.6,0.6-3.3,0.9-5.3,0.9
			c-2.6,0-4.8-0.4-6.5-1.1c-1.8-0.8-3.2-1.9-4.2-3.4c-1.1-1.5-1.8-3.3-2.3-5.5c-0.5-2.2-0.7-4.7-0.7-7.5c0-3.7,0.3-6.7,0.9-9
			c0.6-2.4,1.5-4.2,2.6-5.6c1.1-1.4,2.4-2.3,4-2.9C198.1,183.9,199.8,183.6,201.7,183.6z"/>
		<path d="M118.1,183.1c3.5,0,5.3,0.9,5.3,2.7v31.5c0,1.8-1.8,2.7-5.3,2.7v3.4h19.3v-3.4c-3.5,0-5.2-0.9-5.2-2.7v-30.9l12.9,36.9
			h7.7l12.9-36.9v30.9c0,1.8-1.7,2.7-5.2,2.7v3.4h15.4v-3.4c-3.5,0-5.2-0.9-5.2-2.7v-31.5c0-1.8,1.7-2.7,5.2-2.7v-3.5h-17.6
			l-11.7,34.4l-11.7-34.4h-16.8V183.1z"/>
		<path d="M74.6,192.9l4.1,0.2c0.5-5.9,3-8.9,7.5-8.9h13.2v14.3h-6.7c-2.4,0-3.7-2.4-4.1-7.1H85l0.9,18.4h3.6
			c0.4-4.9,1.6-7.3,3.7-7.3h6.3v16.4H88.4c-6.6,0-10.2-4.2-11-12.6l-4.2,0.4l1.4,16.8h39.1v-3.4c-3.5,0-5.2-0.9-5.2-2.7v-31.5
			c0-1.8,1.7-2.7,5.2-2.7v-3.5H74.6V192.9z"/>
		<path d="M55.2,219.2c0,1.3,0.5,2.4,1.4,3.3c0.9,0.9,2,1.4,3.2,1.4c1.3,0,2.4-0.5,3.3-1.4c0.9-0.9,1.4-2,1.4-3.3
			c0-1.3-0.5-2.3-1.4-3.3c-0.9-0.9-2-1.4-3.3-1.4c-1.3,0-2.3,0.5-3.2,1.4C55.7,216.9,55.2,218,55.2,219.2z M61.6,210.4
			c0.2-4.3,0.4-7.9,0.7-10.8c0.3-2.9,0.6-5.3,0.9-7.3c0.3-2,0.6-3.6,0.8-4.9c0.2-1.3,0.3-2.4,0.3-3.4c0-1.9-0.4-3.2-1.3-3.9
			c-0.8-0.7-2-1-3.4-1c-1.4,0-2.5,0.4-3.3,1.1c-0.8,0.7-1.2,1.9-1.2,3.7c0,1,0.1,2.2,0.3,3.5c0.2,1.3,0.4,2.9,0.7,4.9
			c0.3,2,0.6,4.4,0.9,7.3c0.3,2.9,0.6,6.5,0.9,10.8H61.6z"/>
	</g>
</g>
<g id="Example_2" class="st0">
	<g class="st3">
		<g>
			<path class="st4" d="M263.4,451.8c-0.2,0.5-0.3,0.9-0.3,1.2c0,0.4,0,0.6,0.1,0.8c0.7,1,1.6,1.9,2.8,2.7c1.1,0.8,2.2,1.2,3.2,1.2
				c1,0,1.8-0.3,2.4-0.8c0.6-0.5,0.9-1.3,1-2.2c0,0,0,0.1,0,0.1c0.5,1,1.2,1.7,2.1,2.3c0.9,0.6,1.9,0.8,3.2,0.8c1.2,0,2.2-0.5,3-1.4
				c0.1-0.1,0.1-0.2,0.2-0.3c1.4,1.1,3,1.6,4.6,1.6c2.1,0,3.6-1.1,4.5-3.2c0.9,2.2,2.5,3.3,4.8,3.3c1.3,0,2.4-0.5,3.3-1.5
				c0.9-1,1.3-2.3,1.3-4c0-0.6,0-1.2-0.1-1.8c0.9,0.5,1.8,0.8,2.9,1.1c1,4.1,3.3,6.1,6.9,6.1c1.5,0,2.8-0.6,3.8-1.7
				c1-1.1,1.5-2.5,1.5-4.1c0-0.4,0-0.9-0.1-1.3c1.6,1.3,3.2,2.6,4.8,4.1c1.8,6.7,3.5,11.4,5.1,14.2c1.6,2.8,3.8,4.2,6.4,4.2
				c0.9,0,1.6-0.3,2.2-0.9c0.5-0.6,0.8-1.3,0.8-2.2c0-3.6-3.7-8.8-11.1-15.7c-0.2-0.8-0.5-1.7-0.7-2.6c3.2,3.2,6.2,4.7,9.1,4.7
				c2.1,0,3.8-0.9,5-2.6c1.3-1.7,1.9-4.1,1.9-7.1c0-4.7-1.6-10-4.7-15.8c-0.6-0.9-1.3-1.4-2.2-1.4c-0.9,0-1.4,0.3-1.4,0.8
				c0,0.1,0,0.2,0.1,0.4c2.9,7.1,4.3,12.7,4.3,16.7c0,2.1-0.4,3.6-1.1,4.6c-0.7,1-1.7,1.5-3,1.5c-1.3,0-2.7-0.5-4.3-1.5
				c-1.6-1-3.1-2.4-4.4-4.1l-3.8-15.6c-0.3-1.4-0.9-2.1-1.8-2.1c-1.3,0-1.9,0.5-1.9,1.5c0,0.4,0.1,0.9,0.2,1.6l4.3,17.3
				c-1.9-1.6-3.7-3-5.2-4.1c-0.3-0.4-0.6-0.8-0.9-1.2c-1.6-1.9-3.6-2.9-5.8-2.9c-1.3,0-2.4,0.5-3.2,1.4c-0.9,0.9-1.3,2.1-1.3,3.5
				c0,0.3,0.1,0.8,0.2,1.5c-1.2-0.2-2.4-0.8-3.6-1.7c-0.3-0.6-0.7-1.1-1.1-1.6c-1.6-2.1-3.4-3.1-5.5-3.1c-0.5,0-1.1,0.1-1.6,0.3
				c-1.4-10.2-4.3-15.3-8.6-15.3c-0.9,0-1.7,0.3-2.3,0.9c-0.6,0.6-1,1.3-1,2.2c0,0.2,0,0.5,0,1c0,2.7,0.8,5.5,2.3,8.3
				c0.9,1.6,1.5,2.8,2,3.6c0.5,0.8,1.4,2.1,2.6,4c1.3,1.8,2,2.9,2.2,3.1v0.4c0,2.6-0.7,4-2.1,4c-1.1,0-2.2-0.5-3.3-1.6
				c0-0.2,0-0.3,0-0.5c0-2.8-1-5.2-3-7.4s-4.1-3.2-6.3-3.2c-1.3,0-1.9,0.3-1.9,1v0.3h-1.1c-0.9,0-1.3,0.4-1.3,1.2v0.3l1.3,7.9
				c0,0.1,0,0.3,0,0.5c0,0.7-0.3,1.1-0.8,1.1c-1.2,0-2.5-1-4.1-3.1c-0.2-0.3-0.4-0.4-0.6-0.4C263.9,451.1,263.6,451.3,263.4,451.8z
				 M287.3,446.1c-0.1-0.2-0.2-0.4-0.4-0.6c-0.1-0.1-0.4-0.6-1.1-1.7c-0.7-1.1-1.3-2-1.8-3c-0.5-0.9-1.1-2.2-1.7-3.7
				c-0.6-1.6-0.9-2.9-0.9-4.1s0.3-1.7,0.9-1.7c1,0,1.8,0.8,2.4,2.5c0.3,0.8,0.7,1.8,1,3.1C286.1,438.1,286.6,441.2,287.3,446.1z
				 M324.1,459.6c4.3,4.4,6.4,7.5,6.4,9.2c0,0.9-0.3,1.3-0.9,1.3c-0.3,0-0.7-0.4-1.3-1.2C327,467.1,325.6,464,324.1,459.6z
				 M305.2,451c1.1-0.5,1.7-1.1,1.7-1.9c0-0.8-0.4-1.5-1.2-2.3c0-0.4,0.1-0.7,0.3-0.9c0.2-0.2,0.4-0.3,0.7-0.3c1.2,0,2.2,0.7,3,2
				c0.8,1.4,1.2,2.8,1.2,4.3c0,2-0.8,3-2.3,3c-0.8,0-1.5-0.4-2.2-1.3C305.6,452.8,305.3,451.9,305.2,451z M290.3,445.6
				c1.6,0,3,0.7,4,2c1.1,1.4,1.6,2.9,1.6,4.5v0.5c-0.1,1.4-0.7,2.1-1.7,2.1c-0.9,0-1.6-0.4-2.1-1.2c-0.5-0.8-1-2.3-1.3-4.4
				L290.3,445.6z M271.6,445.2c1.8,0,3.4,0.8,4.8,2.5c1.2,1.5,1.9,2.9,2.1,4.2c-0.2,0.2-0.3,0.5-0.3,0.8c0,0.3,0.1,0.5,0.2,0.8
				c-0.2,0.8-0.8,1.2-1.6,1.2c-0.8,0-1.6-0.5-2.4-1.4c-0.8-0.9-1.3-1.9-1.5-3L271.6,445.2z"/>
			<path class="st4" d="M209.8,452c-0.2,0.2-0.3,0.5-0.3,0.8s0.1,0.6,0.3,0.9c0.8,1.1,2,2.1,3.6,3c1.7,0.9,3.4,1.4,5.2,1.4
				s3.3-0.5,4.6-1.6c0.4-0.3,0.7-0.8,1-1.2c0.7,0.6,1.5,1.1,2.4,1.5c1.5,0.7,2.7,1,3.7,1c1.8,0,2.7-1,2.7-2.9c0-1-0.3-2.5-0.9-4.4
				c-0.6-1.9-0.9-2.9-0.9-3.1c0-0.1,0-0.2,0.1-0.2h0c0.5,0.2,1.6,1.4,3.3,3.7c1.7,2.2,2.7,3.8,3.1,4.7s0.7,1.5,0.9,1.8
				c0.3,0.3,0.7,0.4,1.3,0.4c1.1,0,1.7-1.2,1.7-3.5c0-1.3-0.1-2.6-0.4-3.9c1.1,0.6,2.2,1.1,3.5,1.5c1,4.1,3.3,6.1,6.9,6.1
				c1.5,0,2.8-0.6,3.8-1.7c1-1.1,1.5-2.5,1.5-4.1c0-2.5-0.8-4.7-2.5-6.7c-1.6-1.9-3.6-2.9-5.8-2.9c-1.3,0-2.4,0.5-3.2,1.4
				c-0.9,0.9-1.3,2.1-1.3,3.5c0,0.3,0.1,0.8,0.2,1.5c-1.3-0.2-2.5-0.8-3.8-1.8c-0.3-1-0.6-1.9-0.9-2.9c-0.4-1.1-1.1-1.7-2-1.7
				c-0.4,0-0.7,0.1-0.9,0.4c-0.2,0.2-0.4,0.5-0.4,0.8c0,0.3,0,0.4,0,0.5c0.2,0.6,0.4,1.3,0.6,1.9c0,0,0,0,0,0c0,0.3,0.1,0.5,0.2,0.6
				c0.4,1.3,0.7,2.7,0.9,4.2c-1.6-2.8-3.2-4.9-4.7-6.3c-1.5-1.5-2.9-2.2-4.1-2.2c-0.6,0-1.1,0.2-1.6,0.6c-0.5,0.4-0.7,0.8-0.7,1.2
				c0,0.7,0.4,2.2,1.2,4.6c0.8,2.4,1.2,3.8,1.3,4.2c0.1,0.4,0.1,0.8,0.1,1.1s-0.1,0.5-0.3,0.5c-0.2,0-0.3,0-0.3,0
				c-1-0.2-2.2-0.9-3.7-2.2c0-0.2,0-0.4,0-0.7c0-2.3-0.7-4.4-2.2-6.3c-1.5-1.9-3.3-2.9-5.4-2.9c-1.3,0-2.3,0.4-3.1,1.1
				c-0.8,0.7-1.2,1.7-1.2,2.9c0,1.7,0.7,3.1,2.1,4.1c1.4,1,3.5,1.9,6.3,2.4c-0.4,1.3-1.5,2-3.3,2c-2.5,0-4.8-1-6.9-3.1
				c-0.1-0.1-0.3-0.2-0.6-0.2C210.3,451.7,210,451.8,209.8,452z M247.4,451c1.1-0.5,1.7-1.1,1.7-1.9c0-0.8-0.4-1.5-1.2-2.3
				c0-0.4,0.1-0.7,0.3-0.9c0.2-0.2,0.4-0.3,0.7-0.3c1.2,0,2.2,0.7,3,2c0.8,1.4,1.2,2.8,1.2,4.3c0,2-0.8,3-2.3,3
				c-0.8,0-1.5-0.4-2.2-1.3C247.9,452.8,247.5,451.9,247.4,451z M221.6,451c-3.8-1.3-5.8-2.7-5.8-4.1c0-0.9,0.5-1.3,1.5-1.3
				c1,0,2,0.6,2.9,1.7C221.1,448.4,221.6,449.7,221.6,451z"/>
			<path class="st4" d="M159.3,447.9c-0.3,0.3-0.4,0.6-0.4,0.9c0,0.3,0.1,0.5,0.2,0.6c1.8,1.7,3.6,2.5,5.4,2.5
				c2.1,0,3.1-0.9,3.1-2.7c0-0.1-0.2-1.1-0.7-3c0,0,0.3,0.4,0.7,1.1c1.4,2.4,2.9,5.5,4.2,9.2c0.4,0.8,1.1,1.2,2,1.2
				c1.3,0,1.9-1,1.9-3v-0.4c0-1.3-0.1-2.7-0.3-4c1.1,0.6,2.3,1.1,3.5,1.5c1,4.1,3.3,6.1,6.9,6.1c1.5,0,2.8-0.6,3.8-1.7
				c1-1.1,1.5-2.5,1.5-4.1c0-0.5,0-1.1-0.1-1.6c1.1,0.2,2.4,0.4,4,0.4c-0.5,1-0.9,2.4-1.3,4.1c-0.4,1.7-0.6,3.1-0.6,4.1
				c0,1,0,1.8,0,2.1c0,0.4,0.1,1,0.1,1.9c0.1,0.9,0.4,1.9,0.9,2.9c0.8,1.5,2.3,2.4,4.6,2.6h0.2c2.3,0,3.5-2.8,3.5-8.3
				c0-4.6-0.6-9.6-1.7-15c-0.6-3-1.3-5.8-2.2-8.2c-0.9-2.5-2-4.6-3.4-6.2c-1.4-1.7-2.9-2.5-4.6-2.5c-1,0-1.7,0.3-2.3,1
				c-0.6,0.7-0.8,1.6-0.8,2.9s0.3,2.7,0.8,4.2c1.1,3.1,3.6,6.9,7.6,11.6c-0.5,0.2-1,0.2-1.6,0.2c-0.6,0-1.2,0-1.9-0.1
				c-0.2,0-0.5-0.1-0.8-0.2c-0.3-0.1-0.5-0.2-0.6-0.2c-0.1,0-0.4-0.1-0.7-0.3c-0.3-0.1-0.5-0.2-0.6-0.3c-0.4-0.7-0.8-1.3-1.3-1.9
				c-1.6-1.9-3.6-2.9-5.8-2.9c-1.3,0-2.4,0.5-3.2,1.4c-0.9,0.9-1.3,2.1-1.3,3.5c0,0.3,0.1,0.8,0.2,1.5c-1.2-0.2-2.4-0.8-3.6-1.7
				c-0.2-0.9-0.4-1.8-0.7-2.6c-0.5-1.4-1.2-2.1-2.2-2.1c-0.4,0-0.7,0.1-1,0.4c-0.2,0.2-0.4,0.6-0.4,0.9l0.5,2.1c0,0.1,0,0.2,0,0.2
				c0,0.3,0.1,0.5,0.2,0.6c0,0,0,0.1,0.1,0.1l1.1,5.1c-0.6-1.7-1.6-3.7-3.1-6c-1.5-2.2-2.8-3.4-3.7-3.4c-1.3,0-2,0.5-2,1.6
				c0,0.7,0.2,1.4,0.5,2.3c0.3,0.9,0.5,1.4,0.5,1.6c0,0.5-0.3,0.7-1,0.7c-0.7,0-1.7-0.4-3.2-1.3c-0.1,0-0.2,0-0.4,0
				S159.6,447.6,159.3,447.9z M197.9,447c-0.8-0.9-1.6-1.9-2.5-3.1c-0.9-1.2-1.9-2.8-3.1-4.9c-1.1-2.1-1.7-3.8-1.7-5
				c0-1.2,0.3-1.8,0.8-1.8c0.7,0,1.3,0.5,2,1.4c0.7,0.9,1.2,2.1,1.7,3.5c0.5,1.5,0.9,2.8,1.3,4.1c0.4,1.3,0.7,2.6,1,3.9
				C197.7,446.2,197.9,446.9,197.9,447z M196,460.6c0-2,0.3-4,0.8-6.2c0.5-2.1,1.1-3.8,1.8-5c0,0.2,0.1,1.7,0.3,4.6
				c0.2,2.9,0.3,5,0.3,6.3c0,3.6-0.3,5.4-0.8,5.4C196.8,465.9,196,464.1,196,460.6z M181.8,451c1.1-0.5,1.7-1.1,1.7-1.9
				c0-0.8-0.4-1.5-1.2-2.3c0-0.4,0.1-0.7,0.3-0.9c0.2-0.2,0.4-0.3,0.7-0.3c1.2,0,2.2,0.7,3,2c0.8,1.4,1.2,2.8,1.2,4.3
				c0,2-0.8,3-2.3,3c-0.8,0-1.5-0.4-2.2-1.3C182.2,452.8,181.8,451.9,181.8,451z"/>
			<path class="st4" d="M112.4,452.8c0,0.3,0.1,0.6,0.3,0.9c0.8,1.1,2,2.1,3.6,3c1.7,0.9,3.4,1.4,5.2,1.4s3.3-0.5,4.6-1.6
				c0.5-0.4,0.9-0.9,1.2-1.5c0.7,0.6,1.4,1.2,2.2,1.7c1.4,0.8,2.7,1.2,3.7,1.2h0.1c1,0,1.7-0.3,2.3-0.9s0.8-1.4,0.8-2.3v-0.4
				c-0.2-1.4-0.8-4.1-2.1-8c1.4,1.1,3.3,4.4,5.8,9.9c0.5,1,1.1,1.5,1.7,1.5c1.2,0,1.8-0.8,1.8-2.4c0-1.5-0.6-4.5-1.7-8.8
				c1.8,2.6,3.5,5.5,5,8.6c0.4,0.8,0.8,1.4,1.1,1.9s0.6,0.7,0.8,0.7s0.4,0.1,0.8,0.1c1.2,0,1.8-1,1.8-2.9c0-3.6-0.6-7.1-1.8-10.7
				c-0.3-1-0.9-1.6-1.7-1.6c-0.3,0-0.6,0.1-0.8,0.3c-0.2,0.2-0.4,0.4-0.4,0.6c0,0.2,0,0.4,0,0.5c0.8,2.5,1.3,5.3,1.7,8.5
				c-1.3-3.4-2.7-5.9-4-7.5c-1.3-1.6-2.5-2.4-3.5-2.4c-0.4,0-0.8,0.1-1.2,0.4c-0.3,0.2-0.5,0.6-0.5,1c0,1.4,0.5,4,1.5,7.9
				c-2.4-6.2-4.8-9.3-7.4-9.3c-1.4,0-2.1,0.7-2.1,2.1c0,0.9,0.4,2.4,1.1,4.5c0.8,2.1,1.1,3.8,1.1,4.9c0,0.8-0.4,1.2-1.1,1.2
				c-0.2,0-0.4,0-0.5,0c-0.8-0.2-2.1-1.2-4-3c0-0.2,0-0.3,0-0.5c0-2.3-0.7-4.4-2.2-6.3c-1.5-1.9-3.3-2.9-5.4-2.9
				c-1.3,0-2.3,0.4-3.1,1.1c-0.8,0.7-1.2,1.7-1.2,2.9c0,1.7,0.7,3.1,2.1,4.1c1.4,1,3.5,1.9,6.3,2.4c-0.4,1.3-1.5,2-3.3,2
				c-2.5,0-4.8-1-6.9-3.1c-0.1-0.1-0.3-0.2-0.6-0.2c-0.3,0-0.5,0.1-0.7,0.3C112.5,452.2,112.4,452.5,112.4,452.8z M124.5,451
				c-3.8-1.3-5.8-2.7-5.8-4.1c0-0.9,0.5-1.3,1.5-1.3c1,0,2,0.6,2.9,1.7C124.1,448.4,124.5,449.7,124.5,451z"/>
		</g>
		<g id="_x38_qsSol_1_">
			<g>
				<path d="M248.2,410.4c-12.8,0-25.5,0-38.3,0c0-2.8,0-5.6,0.1-8.3c0.3-9.4,0.9-18.8,0.9-28.2c0-7.3-0.6-14.5-0.9-21.8
					c-0.2-5.7,0.4-11.2,3.1-16.3c0.4-0.8,0.8-1.2,1.9-0.9c4.8,1.3,9.6,1.6,14.5,1c1.2-0.2,2.3-0.4,3.5-0.4c1.2,0,2.5,0.1,3.7,0.1
					c1.6,0.1,3.2-0.1,4.8,0.2c3.9,0.8,7.7,0.8,11.6-0.4c5-1.5,10.2-2.2,15.4-2.2c3.2,0,6.5,0.1,9.7-0.3c4.5-0.6,9-1.6,13.6-2.4
					c0.4-0.1,1,0.1,1.4,0.4c1.9,1.6,3.7,3.3,5.7,4.8c2.7,2,4.6,4.5,5.8,7.7c1.4,3.7,3.4,6.9,6.3,9.6c1.8,1.7,2.8,3.9,3.4,6
					c-16.7-1-31.6,4.2-45.8,12.5c-2.2-4-2.2-8.6-3.1-13.1c-1.4,4-2.8,7.9-4.2,11.9c0.2,0.1,0.4,0.2,0.6,0.3c0.9-1.8,1.7-3.6,2.6-5.5
					c0.6,2.3,1.2,4.5,1.8,6.6c0.1,0.5,0,1.2-0.2,1.7c-1.6,3.2-0.3,5.6,1.7,8.1c1.5,1.8,2.7,3.8,3.6,6c1.3,2.9,2.1,3.7,5.3,3.9
					c0.4,0,0.9,0.3,1.2,0.6c1.6,1.6,3,3.4,4.6,4.9c1.5,1.4,3,1.1,3.8-0.8c0.8-1.8,1.2-3.8,1.8-5.9c1.9-0.4,4.1-0.9,6.6-1.5
					c-1.6,3.1-0.4,6-0.2,8.9c0.1,0.8,0.6,1.2,1.4,0.9c0.8-0.4,1.2,0,1.5,0.7c1.8,3.7,3.6,7.5,5.4,11.2c-17.5,0-34.9,0-52.4,0
					c0.9-2,1.8-4,2.7-6c2.9-6.4,4.2-13.2,3.5-20.5c-0.1,0.8-0.3,1.3-0.3,1.8c-0.5,7.2-2.8,13.8-6.2,20.1
					C249.7,407.4,249,408.9,248.2,410.4z"/>
				<path d="M131.9,410.4c-9.1,0-18.2,0-27.3,0c1-2.1,1.9-4.3,3.1-6.3c4.7-8.3,10.5-15.8,17.4-22.4c0.4-0.4,1.1-0.6,1.6-0.6
					c1.5,0.1,3,0.4,4.6,0.6c2.1,0.3,3.4,1.7,4.8,3.1c0.5,0.5,1.1,1.3,1.6,1.2c0.7-0.1,1.3-0.8,1.8-1.3c0.4-0.4,0.6-1,0.6-1.6
					c0.1-1.3,0.8-1.7,1.9-2.1c2.5-1,4.5-2.6,4.7-5.4c0.3-4.2,1.4-8.1,3.2-11.8c0.4-0.9,0.7-2,0.9-3c0.4-2.3,0.7-4.7,1-7
					c0.2,0,0.3-0.1,0.5-0.1c0.5,1.2,1.1,2.4,1.6,3.6c0.1,0,0.2-0.1,0.3-0.1c-0.9-5.5-1.9-10.9-2.8-16.4c-0.4,3-0.6,6-1,9
					c-0.4,3-1.5,5.8-3.1,8.4c-6.3-5.3-13.8-7.8-21.3-10.2c-7.6-2.5-15.5-2.9-23.7-3.7c2.8-3.2,5.4-6.1,8-9.1c0.9,1,1.7,1.9,2.4,2.7
					c-0.5-3.2,0.7-5.8,2.3-8.2c3.1-4.4,7.7-7.2,11.9-10.9c1.1,1,1.9,2.3,3.1,2.9c2.5,1.3,5.2,2.3,7.9,3.4c0.4,0.2,0.9,0.2,1.4,0.1
					c4.2-0.3,8.1,0.8,12,2.5c2.3,1,4.8,1.5,7.3,1.9c3,0.6,6,0.8,8.9,1.4c2.8,0.6,5.6,0.8,8.5,0.3c1.2-0.2,2.6,0,3.6,0.4
					c3.9,1.7,7.9,2.5,12.1,2.7c0.9,0.1,1.3,0.4,1.4,1.3c0.8,5.1,1,10.3,0.1,15.5c-1.2,6.5-1.8,13.1-1.4,19.7c0.2,3.3,0.5,6.7,0,9.9
					c-1.4,9.8-1.8,19.6-1.1,29.5c-18.9,0-37.8,0-56.7,0c-0.2-0.4-0.3-0.8-0.5-1.2c-1.1-2.5-2.3-5-3.4-7.6c-0.5-1.2-0.8-2.5-1.2-3.7
					c-0.1,0.7-0.1,1.3-0.1,1.9C129.2,403.6,130.5,407,131.9,410.4z"/>
				<path class="st5" d="M190.6,410.4c-0.7-9.9-0.4-19.7,1.1-29.5c0.5-3.2,0.2-6.6,0-9.9c-0.4-6.7,0.2-13.2,1.4-19.7
					c0.9-5.1,0.7-10.3-0.1-15.5c-0.1-0.8-0.5-1.2-1.4-1.3c-4.2-0.3-8.2-1.1-12.1-2.7c-1.1-0.5-2.5-0.6-3.6-0.4
					c-2.9,0.5-5.7,0.2-8.5-0.3c-2.9-0.6-6-0.8-8.9-1.4c-2.5-0.5-5-1-7.3-1.9c-3.9-1.7-7.7-2.7-12-2.5c-0.5,0-1,0-1.4-0.1
					c-2.6-1.1-5.3-2.1-7.9-3.4c-1.2-0.6-2-1.8-3.1-2.9c-4.2,3.6-8.8,6.4-11.9,10.9c-1.7,2.4-2.9,5-2.3,8.2c-0.8-0.9-1.6-1.7-2.4-2.7
					c-2.6,2.9-5.2,5.9-8,9.1c8.2,0.8,16.2,1.3,23.7,3.7c7.5,2.4,15,4.9,21.3,10.2c1.6-2.6,2.7-5.4,3.1-8.4c0.4-3,0.6-6,1-9
					c0.9,5.5,1.9,10.9,2.8,16.4c-0.1,0-0.2,0.1-0.3,0.1c-0.5-1.2-1.1-2.4-1.6-3.6c-0.2,0-0.3,0.1-0.5,0.1c-0.3,2.3-0.6,4.7-1,7
					c-0.2,1-0.4,2.1-0.9,3c-1.8,3.8-2.9,7.7-3.2,11.8c-0.2,2.9-2.2,4.5-4.7,5.4c-1.1,0.4-1.9,0.8-1.9,2.1c0,0.5-0.2,1.2-0.6,1.6
					c-0.5,0.6-1.2,1.2-1.8,1.3c-0.5,0.1-1.1-0.7-1.6-1.2c-1.4-1.4-2.7-2.8-4.8-3.1c-1.5-0.2-3-0.5-4.6-0.6c-0.5,0-1.2,0.2-1.6,0.6
					c-6.8,6.6-12.6,14.1-17.4,22.4c-1.2,2-2.1,4.2-3.1,6.3c-0.4,0-0.8,0-1.2,0c1.7-3.3,3.3-6.7,5.2-9.8c4.2-6.9,9.2-13.1,14.9-18.8
					c0.3-0.3,0.5-0.6,0.9-1c-2.2-0.6-4.3-1.1-6.4-1.7c-2.7-0.8-5.4-1.5-8.1-2.4c-1.8-0.6-3.3-0.9-4.8,0.5c1.1-0.9,2.2-1.7,3.3-2.6
					c0.8-0.5,1.3-1.2,1-2.2c-0.4-1.3-0.4-2.9-1.9-3.5c-2-0.8-4.9,1.1-5,3.2c-0.1,0.8-0.1,1.6-0.1,2.4c0.1,3,0.1,3,2.7,2.5
					c-1,0.8-2,1.2-3,0c-0.7,0.8-1.3,1.6-2,2.3c-1.1,1.3-2.4,2.3-4.3,2.2c-0.5,0-1,0.2-1.5,0.3c0.2-0.2,0.4-0.5,0.7-0.7
					c2.5-2.3,2.2-6.1-0.7-8.3c-0.9,3.1-1.9,6.1-0.9,9.3c-0.2-0.5-0.7-0.9-0.7-1.4c0.3-2.5,0.7-5.1,1.2-7.6c0.2-1,0.2-1.6-0.8-2
					c-1.2-0.5-2.3-1.2-3.4-1.9c-3.4-2.2-4.3-8-0.2-10.5c2.1-1.3,2.9-3.1,2.3-5.6c-0.8-3.3,1.4-5.3,3.8-6.9c1.2-0.8,2.8-1.2,4.2-1.8
					c0.5-0.2,1-0.5,1.4-1c0.6-0.7,1.1-1.6,1.7-2.3c1.6-1.9,3.2-3.8,5-5.6c0.9-0.9,2-1.6,3-2.4c0.4-0.3,1.1-0.6,1.3-1.1
					c1.5-4.2,4.8-6.8,8-9.5c1.7-1.4,3.4-2.8,5.2-4.3c-2.6-2.1-4.1-4.8-4.5-8.1c-0.6-4.6,0.7-8.8,3.2-12.7c1.3-2,2.9-3.9,4.3-5.9
					c0.3-0.5,0.6-1,0.7-1.5c1.5-9,7-14.7,14.8-18.4c2-0.9,4.1-1.6,6.2-2.4c-4.5-2.5-9-5-13.5-7.5c-3.6-2-7-4.3-10.1-7.1
					c-5-4.6-8-10.3-9.5-17c-0.8-3.6-1.8-7.2-2.9-10.8c-0.8-2.5-2.1-4.8-3.9-6.8c-1.8-1.9-3.1-4.2-3.7-6.9c-0.7-3.2,0.9-4.9,4.1-4.2
					c4,0.8,7.9,1.8,11.9,2.6c3.5,0.6,7,1.1,10.5,1.6c3.2,0.4,6.3,1,9.5,1.1c4.9,0.2,9.9,0.1,14.8,0.1c1,0,1.4-0.3,1.8-1.2
					c3.5-8.2,10.2-12.5,18.5-14.8c0.7-0.2,1.5-0.3,2.3-0.2c2.5,0.2,4.8-0.4,7.1-1.3c3.1-1.2,6.2-1.5,9.4-0.4c2.3,0.8,4.5,0.9,6.9,0
					c2.7-1.1,5.6-0.9,8.5-0.5c3.8,0.5,7.7,0.8,11.5,1.4c2.1,0.3,4.2,0.7,6.1,1.5c5.5,2.2,11,4.5,16.3,7c6.8,3.3,12.2,8.4,17.6,13.6
					c0.1,0.1,0.1,0.1,0.2,0.2c4.1,5,9.7,7.3,15.8,8.9c6.2,1.6,12.4,2.4,18.7,2.6c6.4,0.2,12.8,0.9,19.2,1.4
					c8.1,0.6,16.2,1.2,24.3,0.8c4.4-0.2,8.7-0.3,13.1-0.5c1.9-0.1,3.8-0.3,5.5-1.3c0.6-0.3,1.8-0.4,2.4,0c0.5,0.3,0.7,1.5,0.5,2.2
					c-1.2,5.9-3.1,11.5-6.4,16.7c-3.6,5.6-8.1,10.2-13.4,14.1c-10.2,7.4-21.3,13.1-33.3,16.9c-8.8,2.8-17.8,4.8-27.1,5.1
					c-0.8,0-1.5,0.2-1.9,0.2c1.8,1.4,3.9,2.8,5.5,4.5c3.2,3.4,4.5,7.9,5.3,12.4c1.2,6.7,2.2,13.4,3.2,20.1c0.3,2-0.1,3.8-2.5,5.1
					c2.2,2,4.1,3.9,6.2,5.4c3.2,2.4,5.7,5.3,7.1,9.1c1.2,3.5,3.2,6.5,6,9c2,1.7,2.9,4.1,3.7,6.6c0.2,0.5,0.6,1.1,1.1,1.3
					c2.8,1.4,4.3,3.5,3.7,6.7c-0.3,2.1,0.2,3.9,1.4,5.6c0.5,0.7,0.9,1.5,1.3,2.2c1.6,3.1,1,5.4-1.8,7.5c-2.2,1.7-4.6,2.8-7.2,3.3
					c-0.9,0.2-1.2,0.6-1.6,1.3c-1.2,2.1-2.4,4.2-3.9,6.2c-0.6,0.8-1.8,1.1-2.7,1.6c0.7-0.5,1.5-0.8,2.1-1.4c0.3-0.2,0.4-1.1,0.3-1.1
					c-1-0.7-2.1-1.4-3.3-1.9c-0.2-0.1-0.9,1-1.3,1.6c-0.3,0.4-0.7,0.9-0.8,1.3c-0.2,0.7-0.2,1.4-0.4,2.4c1.4-0.4,2.4-0.7,3.4-1
					c-0.8,0.4-1.6,0.8-2.5,1.1c-0.4,0.1-0.9-0.3-1.4-0.5c-0.6,0.4-1.5,0.9-2.3,1.4c0.3-0.2,0.6-0.5,0.9-0.7c1.2-1.1,1.2-1.7-0.3-2.4
					c-1.4-0.7-3-1.3-4.4-0.3c-1.3,1-1,2.7-0.6,4.2c0,0.2,0.1,0.3,0.2,0.6c1.2-0.4,2.4-0.7,3.6-1c-0.4,0.3-0.7,0.5-1,0.7
					c1.8,3.8,3.6,7.6,5.4,11.4c0.2,0.5,0.3,1,0.4,1.5c-0.3,0-0.6,0-0.9,0c-1.8-3.7-3.6-7.5-5.4-11.2c-0.3-0.7-0.7-1.1-1.5-0.7
					c-0.8,0.4-1.3-0.1-1.4-0.9c-0.3-2.9-1.4-5.7,0.2-8.9c-2.5,0.5-4.7,1-6.6,1.5c-0.7,2.1-1.1,4.1-1.8,5.9c-0.8,1.9-2.3,2.2-3.8,0.8
					c-1.6-1.5-3-3.3-4.6-4.9c-0.3-0.3-0.8-0.6-1.2-0.6c-3.2-0.2-4-1-5.3-3.9c-0.9-2.1-2.1-4.2-3.6-6c-2.1-2.5-3.3-4.9-1.7-8.1
					c0.2-0.5,0.4-1.2,0.2-1.7c-0.5-2.2-1.1-4.3-1.8-6.6c-0.9,1.9-1.8,3.7-2.6,5.5c-0.2-0.1-0.4-0.2-0.6-0.3c1.4-4,2.8-7.9,4.2-11.9
					c0.9,4.5,0.9,9,3.1,13.1c14.2-8.4,29.1-13.5,45.8-12.5c-0.6-2.2-1.5-4.4-3.4-6c-3-2.7-5-5.9-6.3-9.6c-1.2-3.1-3.1-5.7-5.8-7.7
					c-2-1.5-3.8-3.3-5.7-4.8c-0.3-0.3-0.9-0.4-1.4-0.4c-4.5,0.8-9,1.8-13.6,2.4c-3.2,0.4-6.5,0.3-9.7,0.3c-5.3,0-10.4,0.6-15.4,2.2
					c-3.9,1.2-7.7,1.1-11.6,0.4c-1.6-0.3-3.2-0.2-4.8-0.2c-1.2,0-2.5-0.2-3.7-0.1c-1.2,0-2.4,0.3-3.5,0.4c-4.9,0.7-9.8,0.4-14.5-1
					c-1.1-0.3-1.4,0-1.9,0.9c-2.7,5.1-3.3,10.6-3.1,16.3c0.3,7.3,0.9,14.5,0.9,21.8c0,9.4-0.6,18.8-0.9,28.2
					c-0.1,2.8-0.1,5.6-0.1,8.3c-0.4,0-0.8,0-1.2,0c0.1-2.8,0.2-5.6,0.3-8.5c0.2-6.2,0.2-12.4,0.5-18.5c0.6-9.5,0.5-19-0.4-28.6
					c-0.3-3.7-0.1-7.5,0.4-11.2c0.5-3.2,1.8-6.2,2.7-9.4c-0.8,0-1.9-0.1-3-0.2c-3.5-0.1-7.1-0.3-10.6-0.3c-0.5,0-1.3,0.6-1.4,1
					c-0.8,2.8-1.8,5.7-2,8.6c-0.6,8.6-0.9,17.3-1.3,26c-0.2,5.3-0.5,10.6-0.7,15.9c-0.3,8.3-0.7,16.7-1,25
					C191.8,410.4,191.2,410.4,190.6,410.4z M197,197.9c-3.3-1.5-6.3-1.2-9.2,0c-2.5,1-5,1.6-7.7,1.4c-0.9-0.1-1.9,0.2-2.8,0.4
					c-7.8,2.5-14.2,6.7-17.3,14.7c-0.3,0.7-0.6,1.1-1.4,1.1c-9.1-0.3-18.3,0.5-27.3-1.5c-5.7-1.3-11.6-1.5-17.2-3.2
					c-1.3-0.4-2.6-0.6-4-0.7c-2.1-0.2-2.8,0.7-2.4,2.7c0.6,2.8,2.1,5,3.8,7.1c1.2,1.5,2.5,3.1,3.1,4.9c1.4,4,2.7,8,3.5,12.1
					c1.9,9.6,6.9,17,15.7,21.2c6.5,3.2,13.4,5.6,20.1,8.3c1.9,0.8,3.9,1.2,6.3,1.9c-0.5-0.7-0.7-1-1-1.3c-2.6-3.5-5.5-6.9-7.8-10.6
					c-3.4-5.4-5.6-11.3-5.4-17.9c0-1.8-0.2-3.5-0.4-5.3c-0.4-4,0-4.7-5.5-5.7c-3.9-0.7-7.4-1.9-10.1-5c-0.4-0.4-0.9-0.8-1.4-1
					c-3.4-1.8-6.7-3.6-10.1-5.3c-0.4-0.2-0.8-0.2-1.2-0.4c-1.9-0.7-3.8-1.5-5.7-2.3c-0.5-0.2-0.9-0.7-1.3-1.1
					c0.1-0.1,0.2-0.3,0.3-0.4c0.7,0.3,1.4,0.6,2.1,1c1.6,0.9,3.2,1.3,5,1.5c6.4,0.8,12.8,1.5,17.6,6.6c0.9,1,2.6,1.5,4,1.8
					c3.8,0.7,7.7,1,11.5,1.5c1.4,0.2,2.7,0.5,3.2,2c0.5,1.5-0.7,2.2-1.6,2.9c-1.7,1.6-3.2,3.2-3.9,5.4c-1.6,5-1.6,10,1.1,14.7
					c3.3,5.9,7.5,11.1,12.6,15.5c1.9,1.7,3.9,3.5,5.4,5.5c1.8,2.4,4,3.7,6.9,4.2c1.2,0.2,2.4,0.4,3.4,0.9c2,1,4.1,1.3,6.4,1.4
					c2.9,0.1,5.8,0.3,8.7,0.8c2.7,0.5,5.3,1.5,7.9,2.5c1.5,0.6,3,1.5,4.3,2.5c0.7,0.5,1.3,0.8,2.2,0.7c6.3-0.3,12.6-0.6,19-0.9
					c1.3-0.1,2.8-0.3,4-0.9c6.9-3.5,12.8-8.3,17.5-14.6c0.2-0.3,0.5-0.5,0.7-0.8c3.3,6.5,6,9.7,10.9,12.3c5.9,3.1,12.1,5.2,18.8,4.9
					c7.4-0.4,14.7-1.2,22-1.9c3.6-0.4,7.2-0.4,10.7-1.8c10.8-4.1,21.2-9,30.8-15.7c10.9-7.6,18-17.6,20.4-30.7
					c0.1-0.5-0.1-1-0.1-1.5c-0.5,0.1-1,0.1-1.5,0.3c-1.3,0.4-2.6,1-3.9,1.1c-4.4,0.3-8.8,0.3-13.2,0.6c-7.5,0.5-15,0.1-22.5-0.5
					c-8.5-0.6-17-1.4-25.5-1.7c-8.6-0.3-16.6-2.5-24.6-5.3c-0.4-0.2-1.1-0.1-1.5,0.1c-10,6.2-16.1,15.2-18.5,26.7
					c0,0.1-0.1,0.3-0.1,0.4c0,0.2-0.1,0.3-0.1,0.5c-0.1-0.1-0.2-0.2-0.3-0.3c2.2-12,8.1-21.7,18.4-28.5c-1.8-1.6-3.5-3.1-5.1-4.8
					c-7.9-7.9-16.7-14.5-27.3-18.4c-3.5-1.3-6.8-3-10.4-3.8c-5.1-1-10.3-1.2-15.5-2c-3-0.4-5.7,0.5-8.4,1.3c-4.9,1.3-7.9,4.4-9,9.4
					c-0.1,0.4-0.2,0.8-0.4,1.5C192.2,204.4,194.1,201,197,197.9z M203.1,331.4c0.7,0.1,1.2,0.1,1.6,0.1c3.6,0.2,7.3,0.6,10.9,0.7
					c9.1,0.2,18.1,0.6,27.2,0.3c10.6-0.4,21.2-1.3,31.8-2.2c5.4-0.5,10.8-1.4,16.2-2.2c2.7-0.4,3.5-1.7,3.2-4.4
					c-0.5-3.4-1-6.8-1.5-10.2c-0.8-4.7-1.5-9.4-2.6-13.9c-1.9-7.2-6.5-12-14.1-12.9c-9.5-1.1-19-2.1-28.5-2.5
					c-9.7-0.4-19.5-0.1-29.2-0.1c-2.9,0-5.8,0.3-8.9,0.5c0.1,1.3,0.2,2.4,0.2,3.6c0,1.5,0.3,3-0.1,4.3c-1.1,3.4-1.1,6.9-0.7,10.4
					c0.4,3.3,0,6.5-1.2,9.7c-1,2.6-1.5,5.5-1.7,8.4c-0.1,1.6-0.1,3.2-0.7,4.7C204.4,327.6,203.8,329.5,203.1,331.4z M126.3,296.3
					c-2,2.7-3.5,5.6-4.1,8.9c-1.3,6.8,1.6,12.3,8.1,14.6c3.1,1.1,6.5,1.8,9.7,2.3c8.8,1.6,17.5,3,26.3,4.4
					c8.4,1.4,16.7,2.8,25.1,4.1c1.6,0.3,3.2,0.4,4.8,0.6c3.1,0.4,5.7-1.8,6.4-5.9c1.4-8,2.7-16,3.7-24.1c0.5-3.8,0.6-7.6,0.6-11.5
					c0-3.3-1.6-5.9-4.5-7.3c-2.2-1-4.6-1.6-6.9-2c-3.8-0.6-7.6-0.8-11.4-1.4c-8.5-1.4-16.6-4.2-24.3-8.1c-2.3-1.2-4.7-2-7.3-1.2
					c-1.8,0.6-3.7,1.1-5.4,1.8c-6.4,2.4-11.5,6.2-14.8,12.3c-4.5,8.4-1.8,18.8,5.3,22.9c0.2,0.1,0.3,0.2,0.4,0.4
					c0.1,0.1,0.2,0.4,0.1,0.5c-0.1,0.1-0.4,0.3-0.6,0.3c-0.3-0.1-0.6-0.3-0.9-0.5C132.5,304.3,128.8,301,126.3,296.3z M88.6,366.4
					c2.3-3.3,5.4-5.1,9-5.8c3.3-0.7,6.8-1.2,10.2-1.2c9,0.2,17.3,2.9,24.8,8c4.5,3.1,8,7,10.6,11.8c1.3-1.7,2-3.7,1.9-5.8
					c-0.3-3.5,0.1-6.8,2.3-9.7c0.9-1.3,0.6-2.7-0.3-3.8c-1-1.2-2.2-2.3-3.5-3.2c-6.1-3.8-12.8-6.5-19.8-8.2
					c-6.1-1.5-12.3-2.1-18.5-2.9c-3.9-0.5-7.6-0.2-10.6,3c-1.4,1.5-2,3-1.6,5c0.5,2.3,0,4.3-2.1,5.7c-0.4,0.3-0.8,0.6-1.1,0.9
					C87.9,361.7,87.5,363.8,88.6,366.4z M322.9,377.9c0.2-0.1,0.3-0.2,0.5-0.3c-0.8-1.6-1.6-3.3-2.5-4.9c-1.1-1.8-1.9-3.6-1.5-5.8
					c0.6-3.1-0.6-4.9-3.5-6c-2.7-1-5.4-1.1-8.2-1c-7.1,0.3-14,1.9-20.7,4.2c-6.1,2.1-12.1,4.6-17.4,8.4c-3.3,2.4-3.2,5.6,0.2,7.7
					c1.9,1.2,3,2.7,3.3,4.9c0.1,0.6,0.2,1.2,0.3,1.8c0.3,1.4,0.7,2.7,2.1,3c0.8-1.3,1.5-2.5,2.4-3.6c2.8-3.5,6.5-5.6,10.6-7.2
					c5.4-2.2,10.9-3.5,16.6-4.2c4.5-0.6,9.1-0.9,13.6,0.2C320.3,375.8,321.9,376.4,322.9,377.9z M103.2,369.2
					c5.5-1.4,5.6-1.4,7.1,4.5c1.3-1.4,2.5-2.7,3.7-4c0.3-0.3,0.5-0.8,0.9-1.1c1.3-0.9,2.9-1.6,4.1-2.6c2.2-2,8.2-0.7,9.5,2.9
					c0.7,1.8,0.5,3.9,2,5.5c0.2,0.2,0.1,0.6,0.1,1c0.2,3.2,2,5.4,4.8,7.3c0.1-2.8,1-4.9,3.5-6.2c0.2-0.1,0.4-0.6,0.3-0.8
					c-0.2-0.7-0.5-1.5-0.9-2c-7.2-8-16.3-12-26.8-13.1c-0.6-0.1-1.3,0.2-1.9,0.5C106.2,362.9,104.5,365.8,103.2,369.2z M307.3,375.6
					c-4.7,0.9-9,1.8-13.4,2.7c0,0.1,0,0.3,0.1,0.4c0.4,0.1,0.8,0.1,1.3,0.2c1.1,0.2,1.7,0.5,1.5,1.9c-0.3,1.7,0,3.5,0,5.3
					c0,0.8-0.1,1.7-0.4,2.4c-0.6,1.3-1.3,2.6-1,4.2c2.2-1,4.2-0.6,6.7,1.1C305.8,388.6,307,382.5,307.3,375.6z M96.6,381
					c-0.2,0,0,0,0.2,0c1.9-0.4,2.8-1.9,3.9-3.2c0.9-0.9,1.3-2,1.3-3.4c0-1.9,0.2-3.9,0.7-5.7c1-3.3,3-6.1,6-8.3
					c-2-0.1-3.9,0-5.9,0.2c-0.4,0-0.8,0.3-1.1,0.6c-2.5,2.4-4.7,5.1-6.1,8.4c-0.7,1.5-1.3,2.9,0.5,4.3c0.6,0.4,0.9,1.4,0.9,2.2
					C97.1,377.7,96.8,379.3,96.6,381z M309,391.7c2.9-3.9,4.7-8.3,4.8-13.3c0-3.3,0.4-2.7-2.8-2.8c-0.7,0-1.5-0.1-2.1,0.1
					c-0.4,0.1-0.9,0.7-0.9,1c-0.3,4.4-0.9,8.7-2.6,12.7C306.5,390.2,307.7,390.9,309,391.7z M286.9,393.1c-0.4-4.3-0.3-8.3,0.7-12.3
					c-3.1,1.4-5.7,3-7.8,5.1c-2.1,2.1-1.8,5.4,0.6,7.3C282.8,391.3,283.5,390.4,286.9,393.1z M139.6,377c-3,0.9-4.6,4.3-3.3,7.1
					c0.2,0.5,0.8,0.9,1.2,1.3c0.5-0.4,1.1-0.8,1.3-1.3C139.8,381.9,139.7,379.5,139.6,377z M280.4,393.9c1.2,1.1,2,1.9,2.9,2.6
					c0.6,0.5,1.5,1,2.1,0.1c0.7-0.9,1.6-1.8,0.9-3.1c-1-1.9-2.6-2.2-4.3-0.9C281.5,393.1,281.1,393.4,280.4,393.9z"/>
				<path d="M192.4,410.4c0.3-8.3,0.6-16.7,1-25c0.2-5.3,0.5-10.6,0.7-15.9c0.4-8.7,0.7-17.3,1.3-26c0.2-2.9,1.2-5.8,2-8.6
					c0.1-0.5,0.9-1,1.4-1c3.5,0,7.1,0.2,10.6,0.3c1.1,0,2.2,0.1,3,0.2c-1,3.2-2.2,6.2-2.7,9.4c-0.5,3.7-0.8,7.5-0.4,11.2
					c0.9,9.5,1,19,0.4,28.6c-0.4,6.2-0.4,12.4-0.5,18.5c-0.1,2.8-0.2,5.6-0.3,8.5C203.3,410.4,197.8,410.4,192.4,410.4z"/>
				<path class="st5" d="M248.2,410.4c0.8-1.5,1.5-3.1,2.3-4.6c3.4-6.3,5.7-12.9,6.2-20.1c0-0.5,0.2-1,0.3-1.8
					c0.7,7.3-0.6,14-3.5,20.5c-0.9,2-1.8,4-2.7,6C249.9,410.4,249.1,410.4,248.2,410.4z"/>
				<path class="st5" d="M131.9,410.4c-1.4-3.4-2.7-6.9-3.1-10.6c-0.1-0.6-0.1-1.2,0.1-1.9c0.4,1.2,0.7,2.5,1.2,3.7
					c1.1,2.5,2.3,5.1,3.4,7.6c0.2,0.4,0.3,0.8,0.5,1.2C133.3,410.4,132.6,410.4,131.9,410.4z"/>
				<path d="M93.5,382.3c-1-3.2,0.1-6.2,0.9-9.3c2.9,2.2,3.1,6,0.7,8.3c-0.2,0.2-0.5,0.5-0.7,0.7C94.1,382.1,93.8,382.2,93.5,382.3z
					"/>
				<path d="M299.2,396.9c-1.2,0.3-2.3,0.7-3.6,1c-0.1-0.2-0.2-0.4-0.2-0.6c-0.4-1.5-0.7-3.2,0.6-4.2c1.3-1,3-0.4,4.4,0.3
					c1.5,0.7,1.5,1.3,0.3,2.4c-0.3,0.3-0.6,0.5-0.9,0.7C299.6,396.7,299.4,396.8,299.2,396.9z"/>
				<path d="M197,197.9c-2.9,3.2-4.8,6.6-4.5,11.1c0.2-0.7,0.4-1.1,0.4-1.5c1.1-5,4-8.1,9-9.4c2.8-0.8,5.5-1.7,8.4-1.3
					c5.2,0.7,10.4,0.9,15.5,2c3.6,0.7,6.9,2.5,10.4,3.8c10.6,3.9,19.4,10.4,27.3,18.4c1.6,1.6,3.4,3.1,5.1,4.8
					c-10.3,6.8-16.2,16.5-18.4,28.5c0.1,0.1,0.2,0.2,0.3,0.3c0-0.2,0.1-0.3,0.1-0.5c0-0.1,0.1-0.3,0.1-0.4
					c2.4-11.5,8.5-20.5,18.5-26.7c0.4-0.2,1.1-0.3,1.5-0.1c8,2.8,16,5,24.6,5.3c8.5,0.3,17,1.1,25.5,1.7c7.5,0.6,15,1,22.5,0.5
					c4.4-0.3,8.8-0.3,13.2-0.6c1.3-0.1,2.6-0.8,3.9-1.1c0.5-0.1,1-0.2,1.5-0.3c0,0.5,0.2,1,0.1,1.5c-2.4,13.2-9.6,23.2-20.4,30.7
					c-9.5,6.6-19.9,11.6-30.8,15.7c-3.5,1.3-7.1,1.4-10.7,1.8c-7.3,0.7-14.7,1.5-22,1.9c-6.7,0.3-13-1.8-18.8-4.9
					c-4.9-2.6-7.7-5.8-10.9-12.3c-0.3,0.3-0.5,0.5-0.7,0.8c-4.7,6.3-10.5,11.1-17.5,14.6c-1.2,0.6-2.6,0.8-4,0.9
					c-6.3,0.4-12.6,0.6-19,0.9c-0.9,0-1.5-0.2-2.2-0.7c-1.3-1-2.8-1.9-4.3-2.5c-2.6-1-5.2-1.9-7.9-2.5c-2.8-0.6-5.8-0.7-8.7-0.8
					c-2.2-0.1-4.3-0.4-6.4-1.4c-1-0.5-2.3-0.7-3.4-0.9c-2.8-0.5-5.1-1.8-6.9-4.2c-1.5-2-3.5-3.8-5.4-5.5c-5.1-4.4-9.3-9.6-12.6-15.5
					c-2.6-4.7-2.7-9.7-1.1-14.7c0.7-2.2,2.3-3.8,3.9-5.4c0.8-0.8,2.1-1.5,1.6-2.9c-0.5-1.5-1.9-1.8-3.2-2c-3.8-0.5-7.7-0.9-11.5-1.5
					c-1.4-0.2-3-0.8-4-1.8c-4.8-5.1-11.3-5.8-17.6-6.6c-1.8-0.2-3.5-0.6-5-1.5c-0.7-0.4-1.4-0.7-2.1-1c-0.1,0.1-0.2,0.3-0.3,0.4
					c0.4,0.4,0.8,0.9,1.3,1.1c1.9,0.8,3.8,1.5,5.7,2.3c0.4,0.2,0.9,0.2,1.2,0.4c3.4,1.8,6.8,3.5,10.1,5.3c0.5,0.3,1,0.6,1.4,1
					c2.6,3.1,6.2,4.3,10.1,5c5.5,1,5,1.7,5.5,5.7c0.2,1.8,0.5,3.5,0.4,5.3c-0.1,6.6,2,12.5,5.4,17.9c2.3,3.7,5.2,7.1,7.8,10.6
					c0.2,0.3,0.5,0.6,1,1.3c-2.4-0.7-4.4-1.1-6.3-1.9c-6.7-2.7-13.6-5.1-20.1-8.3c-8.8-4.3-13.8-11.6-15.7-21.2
					c-0.8-4.1-2.1-8.2-3.5-12.1c-0.6-1.8-1.9-3.4-3.1-4.9c-1.7-2.2-3.2-4.4-3.8-7.1c-0.4-2.1,0.3-3,2.4-2.7c1.3,0.1,2.7,0.3,4,0.7
					c5.6,1.6,11.5,1.9,17.2,3.2c9.1,2,18.2,1.3,27.3,1.5c0.8,0,1.2-0.4,1.4-1.1c3.1-8,9.5-12.3,17.3-14.7c0.9-0.3,1.9-0.5,2.8-0.4
					c2.7,0.2,5.2-0.4,7.7-1.4C190.7,196.7,193.7,196.4,197,197.9z M354.6,237.1c-5,0.9-10.2,2-15.6,2.7c-9.8,1.3-19.7,0.9-29.6,0.7
					c-7.1-0.2-14.2-0.3-21.2,0.7c-3.4,0.5-6.8,1.1-10.2,1.6c-1.9,0.2-3.5,1-4.8,2.3c-1.1,1.1-2.2,2.2-3.1,3.4
					c-4.1,5.8-8.1,11.6-12.2,17.4c3.3,4,6.5,7.8,10.7,10.6c3.4,2.2,7.1,3.3,11.2,2.9c2.4-0.2,4.6-1,6.5-2.6
					c-2.6,0.1-5.2,0.4-7.8,0.3c-7.6-0.4-11.9-6.9-8.9-13.7c0.9-2.1,2.3-4,3.6-5.9c1.8-2.6,4.5-3.7,7.6-3.5c1,0,1.9-0.1,2.9-0.1
					c1.8,0,2.9-0.9,3.5-2.4c1.3-3,3.7-4.9,6.8-5.5c4.6-0.9,9.3-1.6,14-1.9c6.4-0.3,12.9,0.1,19.3-0.2c4.9-0.2,9.7-0.9,14.5-1.7
					C346.7,241.4,351.1,239.6,354.6,237.1z M200.3,233.1c0.9,0.4,1.6,0.8,2.4,0.9c3.2,0.7,6.4,1.5,9.7,1.8c6,0.6,11.8-0.2,17.6-1.9
					c1.3-0.4,1.7-1.3,1-2.4c-2.6-4.3-5.8-8.1-10.1-10.9c-4.7-3-9.4-2.6-13.6,1.2C203.9,224.8,202.1,228.8,200.3,233.1z M179,226.7
					c-0.2-3.7-1.6-7.4-4-9.9c-3.5-3.7-8.8-4.2-12.5-0.9c-3.4,3.1-4.3,7.3-4.9,11.6c0,0.4,0.6,1.1,1.1,1.3c1.4,0.6,3,0.8,4.2,1.5
					c1.9,1.1,3.8,1.3,5.9,1.1c2.2-0.2,4.4-0.3,6.7-0.3c1.5,0,2.5-0.5,3-1.9C178.8,228.4,178.8,227.5,179,226.7z M225.3,237.5
					c-2.9,0.3-5.7,0.8-8.5,0.9c-5.7,0.3-11.1-0.6-15.9-3.9c-0.8-0.6-1.2-1.1-0.9-2.3c0.9-3.4,2.6-6.4,4.8-9.1
					c5.7-7.1,11.7-7.2,19-2.1c2.6,1.8,4.4,4.6,6.6,6.9c0.4,0.4,0.6,0.8,1.2,1.5c0-0.6,0-0.8-0.1-0.9c-2.2-3.7-4.8-7.1-8.4-9.5
					c-4.2-2.7-8.7-4-13.6-2.4c-0.8,0.3-1.6,0.7-2.5,1.1c-0.6-1.9,1.7-2.3,1.9-4.3c-1.1,0.5-2,0.7-2.7,1.2c-2.9,2.2-4.5,5.3-5.4,8.8
					c-0.9,3.4-1.6,6.8-2.4,10.5C205.7,242.8,218,241.8,225.3,237.5z M165.4,246.1c1.8,1,3.2,0.5,4.4-0.3c1.7-1,3.3-1,5.1,0.1
					c2,1.3,4.3,1.9,6.7,2c3.9,0.1,7.9,0.2,11.8,0.3c2.9,0,5.5,0.8,7.7,2.7c0.8,0.7,1.7,1.3,2.6,1.7c0.4,0.2,0.9,0,1.4-0.1
					c-0.2-0.4-0.3-1-0.7-1.2c-1.4-0.8-2.8-1.6-4.3-2.3c-3.3-1.6-6.7-3-10.4-3.2c-5.3-0.2-10.5-0.5-15.6-1.9
					C171.2,243.1,168.3,244.4,165.4,246.1z M178.8,209.1c-2.7-1.3-5.4-1.5-8.2-1c-5.2,1-8.8,3.9-11.1,8.6c-0.1,0.3,0,0.7,0,1
					c0.3-0.2,0.7-0.3,0.9-0.6c1-1,1.8-2.3,3-3c5.6-3.6,14.3,0.3,15.9,7.1c0.5,2,0.5,4,0.7,6c2.9-4,1.8-12.3-0.5-13.5
					c-0.1,0.3-0.1,0.5-0.2,0.8c-0.2,0.5-0.4,1-0.6,1.5c-0.4-0.3-0.9-0.5-1.3-0.8c-1.7-1.1-3.3-2.3-5.1-3.1c-2.7-1.1-5.6-0.9-8.4,0.1
					C168.3,208.3,173.3,207.5,178.8,209.1z M176.9,265.5c-0.5,4.4,3,7.6,7.6,7c2.7-0.4,5.4-0.5,8,0.7c0.3,0.1,0.7,0,1,0
					c-0.1-0.4-0.1-0.8-0.4-1.1c-1.2-1.3-2.9-1.6-4.6-1.7C184.2,270.1,180.3,268.8,176.9,265.5z M236.5,227.6
					c0.1-0.1,0.3-0.1,0.4-0.2c-1.3-2.2-2.5-4.6-4-6.7c-3.2-4.7-7.4-8.3-13-9.8c-2.6-0.7-5.1-0.8-7.6-0.2c2,0.4,4.2,0.6,6.2,1.1
					c5.5,1.5,9.6,5.1,13.1,9.3C233.3,223.2,234.8,225.4,236.5,227.6z M214.2,201.9c2.3,0.5,4.5,0.8,6.5,1.5
					c7.4,2.3,12.8,7.3,17.3,13.4c1.5,1.9,2.8,4,4.3,6.2C238,211.3,226.5,200.9,214.2,201.9z M161.3,231.5c-0.1,0.1-0.2,0.2-0.2,0.3
					c0.6,0.5,1.2,1,2.1,1.8c-1.7-0.3-3-0.5-4.3-0.7c2.9,3.5,10.8,3.7,15.9-0.7C170.1,232.6,165.6,233,161.3,231.5z M173.5,246.9
					c0.8,2.1,2,3.5,3.9,3.8c4.8,0.7,9.6,0.4,14.4-0.7c-2.6-0.2-5.1-0.4-7.7-0.4c-3.4-0.1-6.9,0-9.8-2.4
					C174.1,247,173.9,247,173.5,246.9z M180.7,232.3c-0.1-0.1-0.2-0.2-0.3-0.2c0.4-0.6,0.8-1.1,1.1-1.7c0.2-0.3,0.1-0.7,0.1-1
					c-0.3,0-0.8-0.1-1,0.1c-0.6,0.8-1.3,1.6-1.5,2.5c-0.3,1.3,0.6,2,1.9,1.8c0.3,0,0.6,0.1,0.8,0.2c0.9,0.2,1.9,0.6,2.8,0.5
					c1-0.1,1.9-0.6,3-0.1c0.3,0.1,0.9-0.4,1.4-0.7c-0.4-0.5-0.6-1.2-1.1-1.4c-0.6-0.2-1.4,0.1-2.1,0.3c-0.7,0.2-1.3,0.6-2,0.7
					c-0.4,0.1-1.3-0.2-1.3-0.4C182.4,230.8,181.5,231.7,180.7,232.3z M167.6,264.3c-3.2-3.6-6.3-7.1-9.6-10.8
					C159.9,258.4,162.9,262.1,167.6,264.3z M202.2,245c-3.1-2.6-6.1-4.9-7.2-8.7C194.8,239.9,197.4,243.2,202.2,245z M200.3,210.2
					c0.5-3.1,1.1-6.1,3.4-8.4C200.5,204,199.2,207.4,200.3,210.2z M173.1,236.1c-2.6,1.1-5.2,2.2-7.8,3.3
					C167.8,239.7,171.8,238,173.1,236.1z M178.7,241.6c1.2-2.1,2.3-3.9,3.4-5.7C179.5,237,178.4,239,178.7,241.6z M185.2,236.3
					c-2.6,1.2-3.7,3.6-2.7,5.5C183.4,240,184.2,238.3,185.2,236.3z M190.7,234.7c2.1,0.2,3.4-1.5,3.2-4.4
					C192.8,231.8,191.8,233.2,190.7,234.7z M183.1,202.4c-2.2,2-2.2,4.8,0,6.4C182.5,206.7,182,204.5,183.1,202.4z"/>
				<path d="M203.1,331.4c0.7-2,1.2-3.8,1.9-5.7c0.6-1.6,0.5-3.1,0.7-4.7c0.2-2.8,0.7-5.7,1.7-8.4c1.2-3.2,1.6-6.4,1.2-9.7
					c-0.4-3.5-0.3-6.9,0.7-10.4c0.4-1.3,0.1-2.9,0.1-4.3c0-1.1-0.1-2.3-0.2-3.6c3.1-0.2,6-0.5,8.9-0.5c9.7-0.1,19.5-0.4,29.2,0.1
					c9.5,0.4,19,1.4,28.5,2.5c7.6,0.9,12.2,5.6,14.1,12.9c1.2,4.6,1.8,9.3,2.6,13.9c0.6,3.4,1.1,6.8,1.5,10.2c0.4,2.8-0.4,4-3.2,4.4
					c-5.4,0.9-10.8,1.8-16.2,2.2c-10.6,0.9-21.2,1.8-31.8,2.2c-9,0.3-18.1-0.1-27.2-0.3c-3.6-0.1-7.3-0.4-10.9-0.7
					C204.3,331.5,203.8,331.5,203.1,331.4z"/>
				<path d="M126.3,296.3c2.4,4.7,6.2,8.1,10.3,11.1c0.3,0.2,0.6,0.4,0.9,0.5c0.2,0,0.4-0.1,0.6-0.3c0.1-0.1,0-0.4-0.1-0.5
					c-0.1-0.2-0.3-0.3-0.4-0.4c-7.1-4.1-9.8-14.5-5.3-22.9c3.3-6.1,8.4-9.9,14.8-12.3c1.8-0.7,3.6-1.2,5.4-1.8
					c2.6-0.8,5.1,0,7.3,1.2c7.7,3.9,15.8,6.7,24.3,8.1c3.8,0.6,7.6,0.8,11.4,1.4c2.4,0.4,4.8,1,6.9,2c2.9,1.4,4.6,4,4.5,7.3
					c0,3.8-0.1,7.7-0.6,11.5c-1.1,8.1-2.3,16.1-3.7,24.1c-0.7,4.1-3.3,6.3-6.4,5.9c-1.6-0.2-3.2-0.3-4.8-0.6
					c-8.4-1.4-16.7-2.7-25.1-4.1c-8.8-1.5-17.6-2.9-26.3-4.4c-3.3-0.6-6.6-1.2-9.7-2.3c-6.5-2.3-9.4-7.8-8.1-14.6
					C122.9,301.9,124.3,299,126.3,296.3z"/>
				<path d="M88.6,366.4c-1.2-2.6-0.8-4.6,1.1-6.3c0.4-0.3,0.7-0.6,1.1-0.9c2-1.4,2.6-3.4,2.1-5.7c-0.5-2,0.2-3.5,1.6-5
					c3-3.2,6.7-3.5,10.6-3c6.2,0.8,12.5,1.4,18.5,2.9c7,1.7,13.6,4.4,19.8,8.2c1.3,0.8,2.4,2,3.5,3.2c1,1.1,1.3,2.5,0.3,3.8
					c-2.1,2.9-2.5,6.2-2.3,9.7c0.2,2.2-0.6,4.1-1.9,5.8c-2.6-4.8-6.2-8.7-10.6-11.8c-7.4-5.1-15.7-7.9-24.8-8
					c-3.4-0.1-6.9,0.5-10.2,1.2C94,361.3,90.9,363.1,88.6,366.4z"/>
				<path d="M322.9,377.9c-1-1.6-2.6-2.2-4.3-2.6c-4.5-1.2-9-0.8-13.6-0.2c-5.7,0.7-11.3,2.1-16.6,4.2c-4,1.6-7.8,3.7-10.6,7.2
					c-0.9,1.1-1.6,2.3-2.4,3.6c-1.4-0.3-1.8-1.7-2.1-3c-0.1-0.6-0.2-1.2-0.3-1.8c-0.2-2.2-1.4-3.8-3.3-4.9c-3.4-2.1-3.5-5.3-0.2-7.7
					c5.3-3.8,11.2-6.4,17.4-8.4c6.7-2.3,13.6-3.9,20.7-4.2c2.8-0.1,5.6,0,8.2,1c2.9,1.1,4.1,2.9,3.5,6c-0.4,2.2,0.4,4,1.5,5.8
					c0.9,1.6,1.7,3.3,2.5,4.9C323.2,377.8,323,377.9,322.9,377.9z"/>
				<path d="M103.2,369.2c1.2-3.4,3-6.3,6.2-8.1c0.5-0.3,1.3-0.5,1.9-0.5c10.5,1.1,19.6,5.1,26.8,13.1c0.5,0.5,0.7,1.3,0.9,2
					c0.1,0.2-0.1,0.7-0.3,0.8c-2.4,1.2-3.4,3.3-3.5,6.2c-2.7-1.9-4.5-4-4.8-7.3c0-0.3,0.1-0.8-0.1-1c-1.5-1.6-1.4-3.7-2-5.5
					c-1.3-3.6-7.3-4.9-9.5-2.9c-1.2,1.1-2.7,1.7-4.1,2.6c-0.4,0.3-0.6,0.7-0.9,1.1c-1.2,1.3-2.3,2.6-3.7,4
					C108.8,367.8,108.8,367.8,103.2,369.2z"/>
				<path d="M307.3,375.6c-0.3,6.8-1.5,12.9-5.4,18.2c-2.5-1.7-4.5-2.1-6.7-1.1c-0.4-1.6,0.4-2.8,1-4.2c0.3-0.7,0.4-1.6,0.4-2.4
					c0-1.8-0.3-3.6,0-5.3c0.2-1.5-0.3-1.8-1.5-1.9c-0.4-0.1-0.8-0.1-1.3-0.2c0-0.1,0-0.3-0.1-0.4
					C298.2,377.5,302.6,376.6,307.3,375.6z"/>
				<path d="M96.6,381c0.2-1.7,0.5-3.3,0.5-4.9c0-0.7-0.4-1.8-0.9-2.2c-1.8-1.3-1.1-2.7-0.5-4.3c1.4-3.3,3.6-6,6.1-8.4
					c0.3-0.3,0.7-0.6,1.1-0.6c1.9-0.2,3.9-0.2,5.9-0.2c-3,2.1-4.9,4.9-6,8.3c-0.6,1.8-0.7,3.8-0.7,5.7c0,1.3-0.4,2.4-1.3,3.4
					c-1.2,1.2-2.1,2.8-3.9,3.2C96.6,381,96.4,381,96.6,381z"/>
				<path d="M309,391.7c-1.3-0.8-2.5-1.5-3.7-2.2c1.7-4,2.3-8.3,2.6-12.7c0-0.4,0.6-0.9,0.9-1c0.7-0.2,1.4-0.1,2.1-0.1
					c3.2,0.1,2.9-0.5,2.8,2.8C313.8,383.4,312,387.8,309,391.7z"/>
				<path d="M286.9,393.1c-3.4-2.7-4.1-1.8-6.5,0.1c-2.4-1.8-2.7-5.2-0.6-7.3c2.2-2.2,4.8-3.8,7.8-5.1
					C286.6,384.8,286.5,388.8,286.9,393.1z"/>
				<path d="M105.2,377.1c-2.6,0.4-2.6,0.4-2.7-2.5c0-0.8,0-1.6,0.1-2.4c0.1-2.1,3-3.9,5-3.2c1.6,0.6,1.5,2.2,1.9,3.5
					c0.3,1-0.2,1.6-1,2.2C107.3,375.4,106.2,376.3,105.2,377.1C105.1,377.1,105.2,377.1,105.2,377.1z"/>
				<path d="M139.6,377c0.1,2.5,0.2,4.9-0.8,7.1c-0.2,0.5-0.9,0.9-1.3,1.3c-0.4-0.4-0.9-0.8-1.2-1.3
					C135.1,381.3,136.6,377.9,139.6,377z"/>
				<path d="M280.4,393.9c0.7-0.5,1.2-0.9,1.6-1.2c1.7-1.3,3.3-1,4.3,0.9c0.7,1.2-0.2,2.2-0.9,3.1c-0.7,0.9-1.5,0.4-2.1-0.1
					C282.4,395.8,281.5,395,280.4,393.9z"/>
				<path d="M306,394.6c-1,0.3-2,0.6-3.4,1c0.1-1,0.2-1.7,0.4-2.4c0.1-0.5,0.5-0.9,0.8-1.3c0.4-0.6,1.1-1.7,1.3-1.6
					c1.2,0.4,2.2,1.1,3.3,1.9c0.1,0.1,0,0.9-0.3,1.1C307.4,393.8,306.6,394.2,306,394.6C305.9,394.7,306,394.6,306,394.6z"/>
				<path class="st5" d="M354.6,237.1c-3.6,2.5-8,4.4-12.6,5.2c-4.8,0.9-9.7,1.5-14.5,1.7c-6.4,0.3-12.9-0.1-19.3,0.2
					c-4.7,0.2-9.4,1-14,1.9c-3.1,0.6-5.5,2.5-6.8,5.5c-0.7,1.5-1.8,2.4-3.5,2.4c-1,0-1.9,0.1-2.9,0.1c-3.2-0.1-5.8,1-7.6,3.5
					c-1.3,1.9-2.7,3.8-3.6,5.9c-3,6.8,1.2,13.3,8.9,13.7c2.6,0.1,5.1-0.2,7.8-0.3c-1.8,1.7-4,2.4-6.5,2.6c-4.1,0.3-7.8-0.7-11.2-2.9
					c-4.3-2.8-7.5-6.7-10.7-10.6c4.1-5.8,8.1-11.7,12.2-17.4c0.9-1.2,2-2.3,3.1-3.4c1.3-1.4,2.9-2.1,4.8-2.3
					c3.4-0.4,6.8-1.1,10.2-1.6c7-1,14.1-0.9,21.2-0.7c9.9,0.2,19.8,0.6,29.6-0.7C344.4,239.1,349.7,237.9,354.6,237.1z"/>
				<path class="st5" d="M200.3,233.1c1.8-4.3,3.6-8.3,7-11.3c4.2-3.7,8.8-4.2,13.6-1.2c4.3,2.7,7.4,6.6,10.1,10.9
					c0.7,1.2,0.4,2-1,2.4c-5.7,1.8-11.6,2.6-17.6,1.9c-3.3-0.3-6.5-1.2-9.7-1.8C201.9,233.8,201.2,233.4,200.3,233.1z M208.6,224.7
					c-0.1-0.2-0.4-0.8-0.6-1.3c-0.5,0.4-1.2,0.6-1.5,1.1c-1.2,1.7-1.7,3.6-1.6,5.7c0,0.4,0.4,0.8,0.6,1.2c0.4-0.2,0.9-0.3,1.2-0.6
					C207.8,229.1,208.4,227.2,208.6,224.7z"/>
				<path class="st5" d="M179,226.7c-0.1,0.8-0.2,1.7-0.5,2.5c-0.5,1.5-1.4,1.9-3,1.9c-2.2,0-4.5,0.1-6.7,0.3c-2.1,0.2-4,0-5.9-1.1
					c-1.3-0.7-2.9-0.9-4.2-1.5c-0.5-0.2-1.2-0.9-1.1-1.3c0.5-4.3,1.4-8.6,4.9-11.6c3.7-3.2,9-2.8,12.5,0.9
					C177.4,219.3,178.8,223,179,226.7z M159.7,226.6c0.2,0.3,0.5,0.8,0.8,1.4c0.5-0.4,1.1-0.7,1.4-1.2c0.9-1.6,1.7-3.2,2.5-4.8
					c0.5-1,1-2.1,1.2-3.2c0.1-0.5-0.2-1.1-0.3-1.7c-0.6,0.2-1.2,0.3-1.6,0.6C161,219.9,160.3,223.1,159.7,226.6z"/>
				<path class="st5" d="M225.3,237.5c-7.3,4.3-19.6,5.2-27-3.4c0.9-3.7,1.6-7.1,2.4-10.5c0.9-3.4,2.5-6.5,5.4-8.8
					c0.7-0.5,1.6-0.7,2.7-1.2c-0.2,1.9-2.5,2.3-1.9,4.3c0.9-0.4,1.7-0.8,2.5-1.1c5-1.7,9.5-0.4,13.6,2.4c3.6,2.4,6.2,5.8,8.4,9.5
					c0.1,0.1,0,0.3,0.1,0.9c-0.6-0.7-0.8-1.1-1.2-1.5c-2.2-2.3-4.1-5.1-6.6-6.9c-7.2-5.1-13.3-5-19,2.1c-2.2,2.7-3.8,5.7-4.8,9.1
					c-0.3,1.1,0,1.7,0.9,2.3c4.8,3.3,10.2,4.2,15.9,3.9C219.5,238.3,222.3,237.9,225.3,237.5z"/>
				<path class="st5" d="M165.4,246.1c2.9-1.7,5.8-3,8.8-2.2c5.1,1.4,10.4,1.7,15.6,1.9c3.7,0.1,7.1,1.6,10.4,3.2
					c1.5,0.7,2.9,1.5,4.3,2.3c0.3,0.2,0.4,0.8,0.7,1.2c-0.5,0-1,0.3-1.4,0.1c-0.9-0.5-1.8-1.1-2.6-1.7c-2.2-1.9-4.8-2.6-7.7-2.7
					c-3.9-0.1-7.9-0.2-11.8-0.3c-2.4,0-4.7-0.7-6.7-2c-1.8-1.1-3.4-1.1-5.1-0.1C168.6,246.6,167.2,247.1,165.4,246.1z"/>
				<path class="st5" d="M178.8,209.1c-5.5-1.6-10.5-0.8-14.9,3.2c2.8-1.1,5.6-1.3,8.4-0.1c1.8,0.8,3.4,2,5.1,3.1
					c0.4,0.3,0.9,0.5,1.3,0.8c0.2-0.5,0.4-1,0.6-1.5c0.1-0.2,0.2-0.5,0.2-0.8c2.3,1.1,3.4,9.5,0.5,13.5c-0.2-1.9-0.2-4-0.7-6
					c-1.6-6.8-10.3-10.7-15.9-7.1c-1.2,0.7-2,2-3,3c-0.3,0.3-0.6,0.4-0.9,0.6c0-0.3-0.1-0.7,0-1c2.3-4.7,5.9-7.7,11.1-8.6
					C173.4,207.6,176.2,207.8,178.8,209.1z"/>
				<path class="st5" d="M176.9,265.5c3.3,3.3,7.3,4.6,11.7,4.8c1.7,0.1,3.4,0.4,4.6,1.7c0.2,0.3,0.3,0.7,0.4,1.1
					c-0.4,0-0.8,0.2-1,0c-2.6-1.1-5.3-1-8-0.7C180,273.1,176.4,269.9,176.9,265.5z"/>
				<path class="st5" d="M236.5,227.6c-1.7-2.2-3.2-4.4-5-6.5c-3.5-4.3-7.6-7.8-13.1-9.3c-2-0.5-4.1-0.7-6.2-1.1
					c2.5-0.6,5.1-0.5,7.6,0.2c5.7,1.5,9.8,5.1,13,9.8c1.5,2.1,2.7,4.5,4,6.7C236.7,227.4,236.6,227.5,236.5,227.6z"/>
				<path class="st5" d="M214.2,201.9c12.3-1,23.8,9.4,28.2,21c-1.6-2.2-2.9-4.3-4.3-6.2c-4.5-6.1-9.9-11.1-17.3-13.4
					C218.7,202.8,216.5,202.4,214.2,201.9z"/>
				<path class="st5" d="M161.3,231.5c4.4,1.5,8.8,1.1,13.4,0.7c-5.1,4.4-13,4.2-15.9,0.7c1.3,0.2,2.6,0.4,4.3,0.7
					c-0.9-0.8-1.5-1.3-2.1-1.8C161.1,231.7,161.2,231.6,161.3,231.5z"/>
				<path class="st5" d="M173.5,246.9c0.4,0.1,0.6,0.1,0.7,0.2c2.9,2.4,6.4,2.3,9.8,2.4c2.6,0.1,5.1,0.2,7.7,0.4
					c-4.7,1.1-9.5,1.5-14.4,0.7C175.5,250.3,174.3,248.9,173.5,246.9z"/>
				<path class="st5" d="M180.7,232.3c0.9-0.6,1.7-1.4,2,0.5c0,0.2,0.9,0.5,1.3,0.4c0.7-0.1,1.3-0.5,2-0.7c0.7-0.2,1.4-0.4,2.1-0.3
					c0.4,0.1,0.7,0.9,1.1,1.4c-0.5,0.3-1.1,0.8-1.4,0.7c-1.1-0.5-2,0-3,0.1c-0.9,0.1-1.9-0.3-2.8-0.5c-0.3-0.1-0.6-0.2-0.8-0.2
					c-1.3,0.2-2.2-0.6-1.9-1.8c0.2-0.9,0.9-1.7,1.5-2.5c0.1-0.2,0.6-0.1,1-0.1c0,0.3,0,0.7-0.1,1c-0.3,0.6-0.7,1.1-1.1,1.7
					C180.5,232.1,180.6,232.2,180.7,232.3z"/>
				<path class="st5" d="M167.6,264.3c-4.7-2.2-7.7-5.9-9.6-10.8C161.3,257.1,164.4,260.7,167.6,264.3z"/>
				<path class="st5" d="M202.2,245c-4.8-1.8-7.3-5.1-7.2-8.7C196,240.1,199,242.4,202.2,245z"/>
				<path class="st5" d="M200.3,210.2c-1.1-2.9,0.2-6.2,3.4-8.4C201.4,204.1,200.9,207.1,200.3,210.2z"/>
				<path class="st5" d="M173.1,236.1c-1.4,1.9-5.4,3.6-7.8,3.3C168,238.3,170.6,237.2,173.1,236.1z"/>
				<path class="st5" d="M178.7,241.6c-0.3-2.5,0.8-4.6,3.4-5.7C181,237.7,180,239.5,178.7,241.6z"/>
				<path class="st5" d="M185.2,236.3c-1,2-1.8,3.7-2.7,5.5C181.5,239.9,182.6,237.4,185.2,236.3z"/>
				<path class="st5" d="M190.7,234.7c1.1-1.5,2.1-2.8,3.2-4.4C194.2,233.2,192.8,234.9,190.7,234.7z"/>
				<path class="st5" d="M183.1,202.4c-1.2,2.1-0.6,4.2,0,6.4C180.9,207.3,180.9,204.4,183.1,202.4z"/>
				<path d="M208.6,224.7c-0.2,2.5-0.7,4.4-2,6c-0.3,0.3-0.8,0.4-1.2,0.6c-0.2-0.4-0.6-0.8-0.6-1.2c-0.1-2.1,0.5-4,1.6-5.7
					c0.3-0.5,1-0.7,1.5-1.1C208.2,224,208.5,224.5,208.6,224.7z"/>
				<path d="M159.7,226.6c0.6-3.5,1.3-6.6,3.9-8.9c0.4-0.4,1.1-0.4,1.6-0.6c0.1,0.6,0.5,1.2,0.3,1.7c-0.3,1.1-0.8,2.1-1.2,3.2
					c-0.8,1.6-1.6,3.2-2.5,4.8c-0.3,0.5-0.9,0.8-1.4,1.2C160.2,227.4,159.9,226.9,159.7,226.6z"/>
			</g>
		</g>
		<path class="st4" d="M307.2,507.3c18.2-12.8,36.3-25.6,54.5-38.3c13.8-9.7,27.6-19.4,41.5-29c2.9-2,4.3-4.2,3.6-7.7
			c-0.3-1.6-0.3-3.3-0.4-5c-0.6-8.3-1.3-16.6-1.8-24.9c-0.8-12.4-1.4-24.8-2.2-37.2c-0.5-8.3-1.2-16.6-1.7-24.9
			c-1-15.7-1.9-31.4-3-47.1c-0.7-10.4-1.6-20.9-2.2-31.3c-0.7-10.5-1.1-21-1.8-31.5c-0.1-1.3-0.7-3-1.6-3.7c-1.5-1.1-1.9-2.4-2-4.1
			c-0.1-1.5-0.2-3-0.4-4.6c-0.8-0.1-1.5-0.2-2.2-0.1c-1.9,0.3-2.6-0.4-2.8-2.5c-1-15.1-4.9-29.5-11.4-43.2
			c-9.4-19.9-23-36.4-40.3-50c-19.3-15.1-41.1-25.1-64.9-30.7c-10.7-2.5-21.5-4-32.5-4.7c-14.5-0.9-29,0.1-43.3,2.6
			c-13.7,2.4-27,6.5-39.8,12.1c-17,7.5-32.3,17.5-45.8,30.3c-9.8,9.3-18.4,19.6-24.9,31.5c-3.5,6.3-6.5,12.7-9.8,19.3
			c0-0.5,0-1,0-1.5c1.6-20.5,3.2-41,4.7-61.5c1.7-22.7,3.5-45.4,5.2-68.1c0.2-2.8,2.9-5.2,5.7-5.1c14.1,0.7,28.2,1.3,42.4,2
			c1.9,0.1,2.8-0.4,2.6-2.4c-0.1-0.7,0.1-1.4,0-2.1c-0.5-3,0.9-4.6,3.5-5.9c4.8-2.5,9.5-5.2,14.2-7.9c6.9-4,5.3-1.7,5.5-9.6
			c0-0.2,0-0.3,0-0.5c0.1-1.4-0.5-2.1-2-2.2c-3.3-0.2-6.7-0.5-10-0.7c-9.1-0.5-18.1-0.9-27.2-1.5c-11.5-0.7-23-1.5-34.5-2.2
			c-1.9-0.1-4-0.2-5.6,0.5c-6.6,2.9-13.1,6.1-19.7,9.2c-1.6,0.7-1.8,1.6-1,3.1c5.1,9.2,10.1,18.3,15.1,27.5c1,1.8,2.2,3.9,2.2,5.9
			C72.7,67.4,72,75,71.3,82.5c-0.8,9.9-1.7,19.8-2.5,29.7c-1.1,13.2-2,26.5-3.1,39.7c-1,12.2-2,24.3-3,36.5
			c-0.9,11.6-1.8,23.3-2.7,34.9c-0.1,1-0.7,2.3-1.5,2.8c-1.6,1.1-1.9,2.5-2.1,4.1c-0.3,4.9-0.6,9.7-1,14.6
			c-1.1,16.7-2.1,33.5-3.2,50.2c-0.1,1.8-0.6,2.9-2.9,2.8c-3.6-0.3-3.9,0.2-4.1,3.9c-0.2,5.6-0.5,11.1-0.8,16.7
			c-0.4,6.3-0.9,12.6-1.3,18.9c-0.2,3-0.1,3.1,2.9,3.2c2.7,0.1,3,0.4,2.9,3.1c-0.3,5.3-0.6,10.7-0.9,16c-0.3,4.9-0.6,9.9-0.9,14.8
			c-0.4,5.9-0.9,11.7-1.3,17.6c-0.5,8.4-1,16.9-1.6,25.3c-0.4,5.9-0.8,11.7-1.1,17.6c-0.1,1.4,0.2,2.5,1.6,3.5
			c7.4,5.1,14.7,10.3,22.1,15.5c14.9,10.5,29.7,20.9,44.6,31.4c10.5,7.4,21,14.7,31.4,22H18.2v17.2h8.5v19.8h396.9v-19.8h8.5v-17.2
			H307.2z"/>
	</g>
</g>
<g id="Important_Component">
	<polyline class="st4" points="180.8,729.9 180.8,747.1 189.3,747.1 189.3,767 586.1,767 586.1,747.1 594.6,747.1 594.6,729.9 
		594.6,136.7 180.8,136.7 180.8,729.9 	"/>
	<g>
		<path d="M500.2,340.8c-1.7-9.3-4.5-18.4-4.9-27.7c-0.4-9-3.6-18.6,2-27.4c0.8,0.3,1.2,0.3,1.3,0.5c0.6,1.1,1.2,2.3,1.3,2.4
			c-1.3,3.1-2.3,5.6-3.6,8.8c2.7,0.4,4.3,0.6,6.6,1c2.8,4,4,11.1,2.1,16.2c-4.5-4.5-1-12.2-7.8-16.3c0.1,11.5,0.8,22,6,32.3
			c0.7-1.8,1.2-3.1,1.7-4.4c2.3,3.6,3.8,6.6,1.3,10.7c-1.8,2.9,1.3,4.9,4,6.8c3.6-4.3,3.7-9.4,4.1-14.1c0.5-5.5-0.1-11,0-16.5
			c0-2.2,0.5-4.5,1.1-6.7c2-6.9,2.6-13.9-0.9-20.5c-1.3-2.5-4.1-4.4-6.5-6.2c-1.7-1.3-3.8-2-6.4-3.3c1.9,2.8,3.7,5.1,4.9,7.6
			c2.4,5,7.8,9,5.9,15.5c-0.2,0.6-0.3,1.3-0.4,2c-0.4,0.1-0.8,0.2-1.2,0.3c-0.7-2-1.6-3.9-1.9-5.9c-1.1-7.7-4.6-14.5-9.6-20.3
			c-5-5.7-10.8-10.9-16.9-15.3c-6.2-4.5-13-8.8-20.2-11.3c-11.6-4-24-4-35.7-0.6c-7,2-13.2,6.3-19.7,9.8c-4,2.1-8,4.4-11.8,7
			c-4.8,3.2-9.8,6.3-14,10.2c-4.4,4.2-8,9.3-12.1,14.3c5.2,4.4,11.1,3.7,16.7,3.7c7.8-13.3,18.9-22.6,33.5-27.2
			c11.2-3.6,17.1,1.3,20.6,12.3c3.3,10.5-0.2,19.2-4,28.2c-3.1,7.3-7.2,14.1-14,18.7c-3.2,2.2-7.4,3-11.1,4.5
			c-4,1.6-7.9,2.1-12.3,1.8c-11.5-0.9-20.8-11.7-18.4-22.7c0.9-4.1,2.8-8,4.3-12.4c-3.1-0.2-6.1,0-8.8-0.7c-2.7-0.7-5-2.5-7.6-3.9
			c-4.3,6.3-9.6,12.4-13,19.3c-5.5,11.4-9.9,23.3-14.5,35.1c-5,12.9-5.2,26.3-2.6,39.6c1.2,6.3,4.2,12.4,7.1,18.2
			c2.3,4.6,6.7,5.4,12.6,3.4c2.7-1,5.5-1.9,8.1-3.2c1.4-0.7,2.6-1.9,3.4-3.2c1.7-2.8,4.3-3.6,6.9-1.7c4.3,3,14,2.6,17.7-0.7
			c2.9-2.6,5-2.3,7.2,0.8c1.3,1.9,3.2,3.4,4.8,5c0.2-0.5,0.4-1,0.5-1.5c1.9-0.8,3.8-2.3,5.7-2.2c0.9,0,1.6,3,2.5,4.5
			c0.4,0.8,1,1.8,1.7,2c3.8,1,6.7,3,8.7,6.3c0.3,0.5,0.7,1,1.2,1.3c9.5,5.6,11.4,16.7,18.4,24.1c2.5,2.6,4.6,5.5,6.3,7.6
			c6.7-0.6,12.7-1,18.6-1.6c8.1-0.7,15.4-3.4,22.9-6.6c11.2-4.8,18.2-13.8,26.2-21.7c6.6-6.5,9.8-14.6,9.7-24
			c-0.1-9.7-1.5-19-4.5-28.2c-1.6-4.8-1.6-10.1-2.2-15.2c-0.2-1.4-0.3-2.8-0.5-5.4c-1.4,2.4-2.3,3.6-2.8,5c-1.2,2.9-2.9,6.3-6.1,5.7
			c-2.8-0.5-5.1-3.3-7.7-5.1c0-0.1-0.5,0.7-0.4,1.4c1,7.6,2.2,15.2,3,22.8c1.5,12.8-7.1,31.7-22.7,36.7c-9.6,3-19.4,4.2-29.2,2.4
			c-6.4-1.2-12.5-4.4-18.8-6.3c-5.3-1.6-9.4-4.8-12.8-8.9c-3.6-4.2-7.7-8.4-9.9-13.2c-1.6-3.5-4.3-7.5-3.5-11.6
			c1.7-9.2,3.6-16,7.1-23.3c2-4.1,9-8.5,12.8-11.2c7-5.2,14.8-9.6,22.3-14.1c4.6-2.7,9.4-5,14.2-7.4c5.6-2.8,19.2-0.5,22.7,4.3
			c2.2,3,3.3,6.6,5.1,9.8C496.2,334.2,498.3,337.5,500.2,340.8z"/>
		<path d="M395.3,613.8c-3.5-0.2-6.9-0.7-10.4-1.2c-0.1,0-0.4-1.6,0-2.1c1.5-2.4,0.4-3.8-1.3-5.5c-1.4-1.5-3.2-3.6-3-5.4
			c0.4-5.7-3.9-9.3-7.3-11.2c-6.8-3.7-14.7-3.8-22.4-0.9c-5.2,1.9-8.5,5.8-12.2,9.4c-0.9,0.9-2.7,2.3-3.3,2c-4.1-2-8-4.4-11.9-6.8
			c-1.6-1-2.9-2.5-4.3-3.8c-4.8,4.6-4.6,6.6,0.7,9.3c2.4,1.2,4.9,2.2,7.6,3.5c-0.8,0.9-1.3,1.5-1.7,2c-3.1,4.6-6.9,8.7-5.7,15.1
			c0.7,3.7-0.1,7.7-0.5,11.6c-0.5,5-2.4,9.3-7.7,12.3c-1.4-2.1-2.8-4-4.1-6c-1-1.4-1.7-3.1-2.9-4.3c-3.3-3.3-3.7-10.9-1.2-14.6
			c1.2-1.7,1.4-4.3,1.5-6.6c0.1-1.3-1.4-2.9-1.1-4.1c2-8.4-0.7-16-3.4-23.7c-0.5-1.5,0-3.3,0-5c3.7,6.7,2.9,14.8,9.4,19.9
			c3.2-2.4,3-2.3,1.3-5.2c-0.7-1.2-0.6-3-0.3-4.5c0.3-1.8,1.7-3.4,1.8-5.2c0.2-5.3,0.8-10.7-0.2-15.9c-0.7-3.6,2.4-8.7-2.7-10.3
			c1.9-3.1,4.4-6,5.7-9.4c2.8-7.3,4.9-14.8,7.4-22.2c0.3-0.8,1.3-1.4,2.1-2.4c0.5,2.6,0.6,4.8,1.4,6.5c0.9,1.7,3.2,2.9,3.9,4.6
			c3.9,10.4,11.9,17.8,19.4,25.5c4.2,4.3,9.6,7.6,14.5,11.3c2.7,2.1,5.6,3.9,8.1,6.1c4.5,4.1,8.5,4.8,11.6-0.3
			c0.6-1.1,3.2-2.2,4.2-1.7c5.5,2.5,10.4,1.3,15.3-1.5c1.6-0.9,3.6-1,5.5-1.4c0.2,0.4,0.5,0.7,0.7,1.1c-1,1.7-2.1,3.3-3,5
			c-0.9,1.6-1.8,3.3-2.4,5c-0.2,0.7,0.3,2,1,2.4c2.1,1.3,11.6,0.4,13.1-1.5c5.2-6.6,10.8-13.1,15.2-20.2c4-6.6,6.6-14,10-21.3
			c4.3,1.6,7.5-0.4,10.5-2.9c-3,0.7-6,1.4-9.4,2.1c0.4-3.4,1.3-4.7,4.2-4.8c2.1-0.1,4.6-0.8,6.1-2.1c7.1-6.3,12-13.7,10.1-23.7
			c-1.9-10-3.8-20.1-5.7-30.1c-0.1-0.5-0.2-1.2-0.6-1.5c-4.8-3.9-5.9-8.2-3.9-14.4c1.2-3.7-1-8.3-1.4-12.5c-0.1-1,0.6-2.2,0.9-3.2
			c1.1,0.5,3,0.7,3.2,1.4c1.1,3.6,2.1,7.3,2.6,11.1c0.5,3.3,0.1,6.8,0.7,10.2c2.5,13,5.6,25.9,7.8,38.9c0.8,4.5,0.8,9.9-1,13.9
			c-2.2,4.6-1.3,7.3,1.5,10.7c3.6,4.4,1.5,9.4,1,14.1c-0.1,1-4.2,1.5-6.4,2.3c-0.3,0.1-0.5,0.3-0.9,0.5c-0.1,0.6,0,1.4-0.2,2
			c-0.5,1.2-1,3.1-1.8,3.3c-1.5,0.3-3.6,0-4.9-0.9c-2.7-1.8-5.1-4.2-7.6-6.3c-2.4-2-3.6-1.5-4.8,1.4c-1.7,4.4-3.7,8.7-6,12.8
			c-4.8,9-10.5,17.8-18.7,24c-4.9,3.8-6.7,8-5.4,12.8c2.3,8.6-3.8,14-6.1,20.2c-5.3,0-9.9-0.1-15.7-0.1c4.9,4.8,5.6,10.1,5.4,15.7
			c0,0.8,1,1.7,1.6,2.4c2.2,2.6,4.5,5.1,6.8,7.6c1.1,1.2,2.3,2.2,3.8,3.5c2.8-10-1.6-18.1-5-27.6c2.5,1.6,4.3,2.1,5,3.3
			c3.7,6.1,7.5,12.3,10.6,18.7c4.4,9,2.9,18.8,3.1,28.3c0.1,6.7-3.1,12-9.6,15.5c3.2-7.6,7.6-15,6.2-23.6
			c-1.3-8.4-1.1-17.2-7.2-24.3c-0.6,2.4-0.5,4.8-0.7,7.1c-0.3,4-1.9,4.6-5.4,2.6c-2.5-1.5-5.3-3.4-8.1-3.6c-4.6-0.3-8.9,1.4-12.1,5
			c-0.6,0.7-1.5,1-2.3,1.5c-0.3-0.5-0.6-0.9-0.9-1.4c5.1-3.1,10.2-6.2,14.7-8.9c-0.8-3.5-1.4-7.7-2.8-11.7
			c-2.4-6.6-6.2-12.3-12.4-17.3c3.5,0.9,6.5,1.8,9.6,2.5c1.1,0.2,3.2,0.2,3.4-0.3c1.7-3.6,4.9-3,7.9-3.2c1.4-0.1,2.8-0.9,4.1-1.4
			c-0.2-0.4-0.3-0.7-0.5-1.1c-3.5,0-7-0.1-10.4-0.1C396.2,611.9,395.7,613.8,395.3,613.8z M315.8,635.1c1.9-5.7,2.4-11.6,2.2-17.6
			c0-1.3-0.1-2.6-0.1-3.9c0-2.3,1-5.6-0.2-6.7c-1.8-1.6-5.1-1.7-7.7-2.5c-3-0.9-3.7,0.3-3.3,3c0.7,4.8,1.8,9.4-1.7,13.9
			c-1,1.2-1,3.9-0.3,5.4c2.1,4.4,4.7,8.6,7.7,13.8C314,638.1,315.3,636.7,315.8,635.1z"/>
		<path d="M410.9,443.9c2.8,6.9,5,12.5,7.3,18c0.5-0.2,1-0.3,1.4-0.5c-0.5-2.3-0.9-4.6-1.5-7.7c4.4,0.8,8.7,1,12.6,2.3
			c4,1.3,7.5,0.1,11.2-1c1.5,6.9,1.7,6.3-5,9c-3.5,1.4-8.2,0.3-12.4,0.1c-2.2-0.1-4.3-0.8-6.4-1.3c-0.9-0.2-1.7-0.8-2.6-1.2
			c-1.5-0.7-3.1-1.4-4.7-1.9c-1-0.4-2.8-0.4-3-0.9c-0.3-1,0.1-2.4,0.7-3.4c0.9-1.5,2.1-2.7,3.2-4.1c-0.3-0.3-0.7-0.5-1-0.8
			c-2,1.3-4.4,2.2-5.9,3.9c-0.8,0.9-0.7,3.6,0.1,4.6c2.5,3.4,5.8,6.4,8.4,9.8c3.1,4.2,5.8,8.6,9.1,13.7c0.6-5.8-5.5-9.9-2-15.5
			c7.8,2.8,15.2,0.7,23.6-4c-0.8,10-1.4,18.5-2.1,27c0.3-0.6,0.9-1.6,1.5-2.6c2-3.7,2.8-8.1,7.3-10.2c0.7-0.3,0.8-1.8,1.2-2.7
			c-1-0.3-2-0.6-3-0.7c-0.7-0.1-1.4,0.2-2.1,0.3c-1.7-5.5,5.5-6.3,6.2-11.8c-2.9,1.3-4.9,2.2-7,3.1c-1.9-5.5,6.6-6.3,5.2-13
			c-2,2.7-3.4,4.5-5,6.5c-2.3-4.3-0.8-7.6,3.6-10c-5.9-8.3-11.8-16.5-17.8-24.9c-5.5,0.9-6.8-0.3-6.5-6c0.2-3.8-8.5-10.6-12.4-9.2
			c-3.1,1.1-4.8,0.1-6.4-2c-1.8-2.3-3.8-3.1-6.8-2.2c-1.7,0.5-3.7,0.2-5.6,0.1c-5.3-0.2-10.6-0.6-15.8-0.7c-0.7,0-1.4,0.8-2.1,1.2
			c-0.9,0.5-2,1.5-2.6,1.2c-6.1-2.8-10.7,1.6-15.9,3c-2.5,0.7-5.2,0.9-9.2,1.5c9.6,7.2,16.3,16.1,28.5,18.7c-1,3.8-2.1,7.5-3.4,12.1
			c1.1-0.9,1.6-1.1,1.8-1.5c1.8-3,2.9-7.2,8-3.4c0.6,0.5,2.7-0.6,3.9-1.3c3.6-2.2,5.5-0.3,6.9,2.5c2.7,5.4,5.2,10.8,7.6,15.8
			C404.7,450.7,407.6,447.4,410.9,443.9z"/>
		<path d="M285.7,388.9c-9.3,1.7-10.3,8.3-9.6,15.8c-0.4-0.1-0.9-0.1-1.3-0.2c-0.1-1.9-0.4-3.8-0.4-5.7c0-7.4-2.7-9.7-11.2-8.4
			c2.6,7.1,5.3,14.1,7.6,21.1c0.7,2.1,1.1,4.7,0.5,6.8c-2,8-0.4,14,6.2,15.6c3.9,1,8.5-0.4,12.7-0.9c1.6-0.2,3.2-1,5.5-1.7
			c-0.4-2.1-0.1-5.7-1.6-6.9c-1.7-1.3-5.2-0.3-8.3-1c11.8,0.8,9.3-8.1,10.3-14.6c0.5,0.2,1,0.3,1.6,0.5c0,2.3,0.2,4.6-0.1,6.9
			c-0.7,4.9-0.4,5.5,4.6,5.8c1.2,0.1,2.4,0.2,3.6,0.5c-8.9,1.6-8.5,1.9-8.3,9.6c3-1.6,5.6-3.1,8.4-4.2c1.3-0.5,3.9-0.9,4.2-0.4
			c2.3,3.5,4.1,3.4,6.1-0.1c0.3-0.6,1.1-1,2.2-1.9c0.3,0.8,0.7,1.7,1,2.5c0.5-0.3,1-0.6,1.4-0.9c-0.9-1.9-1.7-3.8-2.8-6.1
			c0.6-1.1,1.7-3.1,2.5-4.4c-3.9,0.7-7.5,2-11,1.7c-2.1-0.1-5.3-2.5-5.6-4.2c-0.3-2,1.4-5.2,3.3-6.6c3.5-2.6,7.6-2.4,11.4,0.3
			c1,0.7,2.5,0.7,3.8,1.1c0.1-1.2,0.1-2.3,0.2-3.7c0.5-0.2,1.4-0.5,2.6-0.9c-0.6-1.4-1.1-2.5-1.8-4.2c-3.3,5.4-8.4,4.1-12.8,3.4
			c-1.7-0.2-3.2-3.1-4.2-5c-0.3-0.5,1.6-2.7,2.8-3.1c2.3-0.6,5.1-1,6.3,2.1c0.6,1.5,1.3,3.1,2.2,5.3c1.4-1.5,2.5-2.7,3.9-4.2
			c-5.5-4.5,1.2-8.1,0.6-12.3c1.5-0.3,3-0.5,4.9-0.9c0.8,1.6,1.7,3.4,2.7,5.4c4.7-4.6-2-6.6-2-10c-2.5,0.7-5.1,0.7-6.5,1.9
			c-1.4,1.2-1.7,3.6-2.4,5.5c-9.2-1-12.1-7.5-13.9-16c-1,1-2,1.6-2.2,2.4c-0.6,3.7,2.1,9,5.8,11c-1.6,0.6-2.8,1-3.9,1.4
			c-0.2,2.1-0.3,4.2-0.5,6.3c-0.4,0-0.8,0-1.3,0.1c-0.1-1.7,0.1-3.4-0.4-5c-0.4-1.4-1.5-2.7-2.4-4.2c0.2-0.2,1.3-0.6,1.8-1.4
			c0.4-0.7,0.4-1.9,0-2.7c-0.1-0.3-1.7-0.5-2.3-0.3c-4.2,2.1-7.8,1.1-11.3-1.7c-3-2.3-6.7-2.4-10-0.5c-1.1,0.7-2.2,3.6-1.7,4.2
			C279.1,384.9,280.9,388.5,285.7,388.9z"/>
		<path d="M435,274.1c-0.3,1.6-1.1,3.3-0.7,4.6c2.4,7.8-2.7,14.4-11.4,14.2c-0.5,3.2-0.4,7.3-5.5,6.7c-0.8-0.1-2-2.5-1.9-3.9
			c0.1-3.4,2.1-5.2,6.2-4.3c0.7-6.2,2.7-11.6,9.4-14.3c1.4-0.6,1.8-3.6,2.7-5.4c-7-2.6-15.3,0.3-20.2,5.3c-6.9,7-11.4,15-13.6,24.3
			c-0.7,3-0.5,6.1-0.9,10c4.7-3.4,4-11,11.3-9.8c1.2,7.6-0.7,10.1-8,10.4c-0.9,4.2,1.2,7,5.6,7.6c5.8,0.8,11-1,15-4.8
			c9.9-9.4,16.6-20.5,15.5-34.7c-0.2-2.1-1.3-4.1-2-6.2C436.1,274,435.5,274.1,435,274.1z"/>
		<path d="M271.1,487.9c-4.6,1.1-9.9-0.9-11.9,5.5c-0.5,1.6-3.3,2.6-5.1,3.7c-4.9,2.8-5,4.2-0.5,7.4c0.3,0.2,0.6,0.7,1.1,1.4
			c-2,2.7-4,5.6-6.5,9c2,0.6,3.6,1.5,5.2,1.6c3.8,0.4,3.7,2,2,4.6c-2.6,4.1-2.6,4.1,0.6,7c3.1-0.9,5.7-2.3,8.2-2.2
			c2.1,0,3.7,1.9,3,4.7c-0.4,1.5,0.2,3.2,0.3,4.8c1.7-0.5,3.5-0.8,5.1-1.5c7.5-3.2,14.4-7.8,23.2-7.6c2,0,3.9-1.3,6.2-2.1
			c-5.4-1.1-10.6-1.1-14.9-3.1c-7.9-3.8-15.6-8.7-18.4-17.6c-0.8-2.6-0.1-5.8,0.3-8.7C269.5,492.6,270.3,490.6,271.1,487.9z"/>
		<path d="M278.9,494.1c1.1,1.5,2.6,2.8,3.2,4.4c1.8,4.6,2.4,9.8,5,13.8c2.2,3.3,4.7,7.8,10,8c3.2,0.1,6.1,3.2,9.6,0.3
			c3.3-2.8,7-5.1,11.1-7.9c-4-1.3-7-2.3-10.2-3.3c-1.4,1.7-3,3.7-5.1,6.4c-3.1-5-11.1-6-7.7-14c-0.4-0.1-0.9-0.2-1.3-0.3
			c-0.5,1.2-0.9,2.4-1.2,3c-1.3-0.3-1.8-0.3-1.8-0.4c-1.6-2.8-4.2-5.4-4.6-8.4c-0.4-2.5,1.5-5.4,2.6-8.1c0.3-0.6,1.4-0.9,1.2-0.8
			c0-5-1.4-10.1,0.4-13.4c3.1-5.5,7.6-10.7,12.8-14.4c10.1-7,21.4-12.4,31.5-19.3c10.1-6.9,21.9-6.6,33-9c1.1-0.2,2.2-0.4,3.3-0.5
			c0.1-0.5,0.2-1,0.3-1.5c-2.8-0.6-5.6-1.9-8.3-1.6c-10,0.9-20.2,2.4-28.7,7.7c-6.7,4.1-13.9,7-20.4,11.1c-9.7,6-18.9,13-25.1,22.8
			c-2.8,4.5-4.4,9.7-7.7,13.8c-3.3,4-3,7.7-1.7,11.9L278.9,494.1z"/>
		<path d="M393.2,262.7c8.2-4.5,8.2-4.5,1.5-12.3c-8.7-10-19.3-10.2-28.6-2.6c-3.6,2.9-6.4,7.9-7.4,12.5c-1.2,5.6-1.1,11.9,0.4,17.4
			c1.1,4.2,5.1,7.6,8.3,12c3.2-4.4,5.8-7.9,8.5-11.6c-1.3-1.5-2.7-2.9-4-4.4c-5.1-6.1-5-12.2,0.4-18c0.8-0.9,1.5-1.9,2.5-2.4
			c3-1.5,6.4-4.1,9.2-3.7c4.3,0.6,6.8,4.5,8,8.7C392.4,259.6,392.8,261.1,393.2,262.7z"/>
		<path d="M288.7,599.4c-0.8,3.6-1.7,7.2-2.5,10.8c-0.6-0.1-1.1-0.3-1.7-0.4c0.7-3,1-6.2,2.2-9.1c2.7-6.4,5.6-12.8,9-18.8
			c2.1-3.7,5.4-6.8,8.6-10.6c0.4,2.7,0.8,5.3,1.2,7.8c0.3,0,0.6-0.1,1-0.1c0.2-4.3,0.5-8.6,0.7-13c0.7,0,1.4,0,2.2,0
			c0.3,4.6,0.6,9.2,0.9,13.8c0.5,0,0.9-0.1,1.4-0.1c-0.6-7.2-1.2-14.4-1.8-21.6c-0.4,0-0.8,0.1-1.2,0.1c-4.3,6.3-8.7,12.5-13,18.8
			c-4.3,6.1-8.6,12.1-12.8,18.3c-0.6,0.9-0.8,2.1-0.8,3.2c0.3,9,0.3,18-3.3,26.5c-0.3,0.8-0.7,1.7-0.5,2.5c0.3,1.2,1.1,2.3,1.7,3.5
			c1.3-0.7,3.2-1.2,3.7-2.2c1.3-2.7,2.1-5.6,2.7-8.5c1.6-6.7,3-13.5,4.5-20.2C290,599.8,289.3,599.6,288.7,599.4z"/>
		<path d="M383.6,490.7c0.7,2.9,1.5,5.8,2,7.8c1.4-0.3,4.1-1.8,5.8-1.1c5.2,2.2,10.1,5.3,15.1,8.1c0.5,0.3,1.1,1.1,1,1.6
			c-0.9,3.4-0.8,7.3-5.4,8.9c-2.1,0.8-3.7,3-5.5,4.6c-1.1,0.9-2.1,1.8-3.7,3.1c0.2-5.9,3-9.1,7.8-10c3.5-0.7,3.9-3,4-5.2
			c0-1.4-1.6-3.1-3-4.1c-1.6-1.2-3.7-1.7-5.5-2.7c-6.5-3.6-6.6-3.6-9,1.2c1,4.7,2.7,8,2,10.9c-0.9,3.6-3.2,7.2-5.9,9.9
			c-1.7,1.7-5.4,2.7-7.7,2.2c-2.1-0.5-5.2-4-4.9-5.6c1.4-7.3-0.2-16.1,9.2-20.2c1.4-0.6,2.8-3.6,2.5-5.2c-0.6-3.2-12.4-7.8-16-6.8
			c-0.2-3.6,0.7-4.3,3.5-3.1c4,1.7,8.1,3.3,12.1,4.9C382.6,490.3,383.1,490.5,383.6,490.7z M373.8,519.6c-0.3,1,1.1,3.2,2.2,3.6
			c1.4,0.4,3.9,0.1,4.7-0.9c2.4-2.9,4.4-6.1,6-9.4c0.5-1.1-0.8-3.1-1.4-4.6c-0.7-1.5-1.7-3-2.5-4.5
			C371.8,504.5,375.5,513.5,373.8,519.6z"/>
		<path d="M412.6,688.9c-4.6,1.4-8.5,4.1-11.4,3.2c-6.4-2-13.3-4.2-16.5-11.1c-1.1-2.4-2.8-4.6-4.3-6.9c-3.8-6.1-4.8-12.7-4.3-19.7
			c0.1-2-1.1-4.2-1.7-6.3c-0.7-2.7-1.3-5.5-2.2-9.3c5.6,2.5,3.1,6.6,4.5,9.7c3-1.6,4-3,2.2-6.1c-1.6-2.7-3.3-6.1-3.1-9.1
			c0.3-6.1-1.4-11-6.4-15.2c0.3,1,0.2,2,0.7,2.5c5.6,6.2,3.7,12.3,0.9,19c-1.4,3.3-0.2,7.7,0.3,11.6c0.5,4.4,1.5,8.7,2.2,13
			c1.6,9.8,7,17.5,13.4,25c6,7,18.1,7.4,23.8,2.7C411.6,691.3,411.9,690.1,412.6,688.9z"/>
		<path d="M334.3,601.8c-1.7-1.3-2.6-2-3.4-2.6c-9.7,9.5-8,21.3-7.5,33.1c0.4,9.7,1,19.7-1,29.1c-1.3,5.9-3.6,13.2-11.2,16.6
			c0.5,1.2,1.1,2.3,1.8,3.9c3.4-3.5,7.5-6.3,9.2-10c2.6-5.9,4.7-12.4,5.1-18.7c0.6-12-0.2-24-0.3-36
			C326.8,611,325.9,604.5,334.3,601.8z"/>
		<path d="M374,591.9c-4.1,9.5-8.4,19.2-12.3,29c-0.9,2.2-0.8,5.3,0.2,7.4c1.6,3.6,4.3,6.7,6.7,10.1c5-4.2-2.6-7.2-0.7-11.1
			c1,1.8,2.1,3.7,3.1,5.5c0.5-0.2,1-0.4,1.5-0.7c-1.8-3.8-3.5-7.7-5.4-11.5c-1-1.9-2.3-2.9,1-4.3c1.5-0.6,1.6-4.3,2.4-6.6
			c0.8-2.2,1.5-4.4,2.3-6.7c0.4,0,0.8,0,1.2,0c1,2.4,1.8,4.9,3,7.2c0.8,1.4,2.1,2.5,3.4,3.6c0.2,0.2,2-0.8,2-1.2
			c-0.1-1.6-0.3-3.3-0.9-4.8c-1.1-2.7-3.5-5.3-3.7-7.9C377.5,594.8,378,594.8,374,591.9z"/>
		<path d="M364.6,489.3c0.5,2.1,0.4,3.5,1.1,4.1c3.2,3.3,2,6.7,0.9,10.3c-2,6.6-4.1,13.2-5.5,20c-1.2,5.9,3.3,9.4,7.8,11.9
			c6.8,3.7,13.1,2.7,18.4-2.7c2-2.1,3.4-4.8,4.9-7.3c0.2-0.3-0.5-1.5-0.9-1.6c-0.7-0.1-1.6,0.2-2.2,0.7c-2.5,2.2-4.8,4.6-7.3,6.8
			c-5.5,4.7-11.3,2.8-14.8-3.3c-3.5-6-1.3-11.4,0.1-17c0.9-3.7,2.5-7.3,3.1-11C370.8,496.2,369.3,492.6,364.6,489.3z"/>
		<path d="M423.4,487c-1.7,6.2-3.1,12.4-5.2,18.5c-3,9-5.9,18.1-10,26.6c-5,10.2-11.2,19.8-16.8,29.8c-1.6,2.8-2.5,6-3.1,9.8
			c0.9-0.6,2.1-1,2.6-1.8c2.1-3.7,3.9-7.6,6-11.4c4.4-8.2,9.1-16.3,13.4-24.6c5.9-11.1,9.8-22.9,11.7-35.3c0.6-3.8,2-7.4,3.1-11.1
			C424.6,487.3,424,487.2,423.4,487z"/>
		<path d="M411.3,570.4c4.9-9,9.7-17.8,12.4-28c3.4-13,5.1-26.7,12.9-38.4c1.8-2.7,2.3-6.3,3.4-9.5c-0.4-0.2-0.8-0.3-1.2-0.5
			c-3,5.7-6.9,11-8.8,17c-5,15-9,30.2-13.8,45.3c-1.3,4-4,7.6-6,11.4c-0.4,0.7-0.1,1.7-0.1,2.6C410.5,570.3,410.9,570.3,411.3,570.4
			z"/>
		<path d="M309.9,682c0.4-2.7-0.2-3.9-3.1-4c-8.8-0.3-14.8-5.4-18.5-12.5c-4.8-9.2-9-18.9-7.9-29.7c0.1-1.2-0.7-2.5-1.5-3.7
			C272.9,650.1,289,682,309.9,682z"/>
		<path d="M466.4,319.3c4.8,3.3,9.4,6.7,14.3,9.9c2.1,1.4,7-0.5,8-2.8c1.1-2.9-0.2-5.2-2.9-6.1c-4.8-1.5-9.7-2.7-14.6-3.6
			c-1.4-0.3-3,0.8-4.5,1.3L466.4,319.3z"/>
		<path d="M382,490.1c0.5,0.2,1.1,0.4,1.6,0.7c7.7,4.2,15.4,8.4,23.1,12.6c1,0.5,2,1,3.3,1.7c-1.7,5-1.2,11.2-8.4,12.9
			c-0.5,0.1-0.7,1.6-1,2.5c1,0.2,2.2,0.8,2.9,0.5c4.7-2.4,6.6-6.9,8.2-11.4c1.8-5,0.8-6.6-4.2-9.3c-9-4.9-18.1-9.7-27-14.7
			c-2.7-1.5-5-3.6-7.5-5.4c-0.4,0.4-0.8,0.7-1.2,1.1c1.2,1.4,2.3,3,3.7,4.1C377.5,487.2,379.8,488.6,382,490.1z"/>
		<path d="M360.5,534.3c0.6,1.4,0.9,3.2,2,4.1c8,6.7,20,7.2,27.6,0c4.2-3.9,6.6-9.6,9.7-14.5c0.3-0.5-0.5-1.8-1.3-2.7
			c-1.7,8-7.4,12.7-13.5,16.9c-6.3,4.3-13,3-21.2-3.3c-0.5-0.4-1.1-0.9-1.6-1.3C361.6,533.8,361.1,534.1,360.5,534.3z"/>
		<path d="M445.6,535.5c6-4.5,14.3-49.3,11.2-54.1C453.2,498.8,449.5,516.8,445.6,535.5z"/>
		<path d="M282.6,632c-1.5,6.4,0.2,11.9,3,16.8c4.1,7.1,9,13.9,13.7,20.7c3.4,4.9,8.3,6.4,13.9,4.4c1.3-0.5,2.4-1.6,3.6-2.4
			c-0.3-0.5-0.5-0.9-0.8-1.4c-2,0.9-4.3,2.9-6,2.6c-3.3-0.6-7.5-1.8-9.3-4.2C290.9,655.5,285.6,650.9,282.6,632z"/>
		<path d="M330.3,517.2c-0.5-2.3-1-4-1.3-5.8c-0.2-1.4,0-2.9,0-5.2c2.2-1.4,5.2-3.5,8.2-5.5c-0.3-0.5-0.6-1.1-1-1.6
			c-0.9,0.3-2.4,0.3-2.7,1c-3.5,6-13.7,5.6-15,14.9c2-1.4,3.3-2.3,5.4-3.8c-0.3,3.9-0.5,7.1-0.7,10.5c2.1-0.8,1.9-0.8,1.9-5.8
			c0-2.4,0.7-4.9,1.1-7.4C330.2,510.3,324.2,516.2,330.3,517.2z"/>
		<path d="M279,494.2c-2.8,2.3-6.3,4.2-8,7.1c-0.9,1.5,1.3,4.8,2,7.2c1.1-0.2,1.2-0.2,1.3-0.2c8-2.8,7.1-8.2,4.5-14.2
			C278.9,494.1,279,494.2,279,494.2z"/>
		<path d="M379,649.3c0.1,1.3,0.2,2.6,0.4,3.8c1.5,9,7.3,15.6,12.7,22.5c1.7,2.1,3.6,4.1,5.4,6.2c3.8,4.5,12.1,5.2,16.7,1.1
			c-3,0.3-6,1.5-8.2,0.7c-6.1-2.3-11.5-5.8-15-11.6c-1.9-3.2-4.8-5.8-6.3-9.1c-2-4.4-3.1-9.1-4.7-13.7
			C379.8,649.2,379.4,649.2,379,649.3z"/>
		<path d="M316.9,416c-2.2-1.1-3.2-1.7-4.3-2.2c0-0.2,0.1-0.4,0.1-0.6c1.5,0.2,3.1,0.5,4.7,0.7c0.7-2.6,1-5.5-2.3-5.7
			c-2.9-0.2-6.1,1-8.7,2.3c-0.8,0.4-1,4.1-0.1,5.2C309,418.8,312.5,417.4,316.9,416z"/>
		<path d="M360.9,534c-3.7-13.3-1.4-25,3.6-36.4C356.5,505.7,353.7,528,360.9,534z"/>
		<path d="M305.6,509.3c-5.3-7.6-10.1-14.5-15.2-21.9c-0.3,3.3-0.6,6.4-1,9.8c1.6,0,2.8,0,3.5,0c3.1,4.2,5.9,8.2,9,11.9
			C302.3,509.7,304.1,509.3,305.6,509.3z"/>
		<path d="M338.9,497.6c7.2-8.5,12.4-18.1,16.8-28.2c-0.3-0.2-0.7-0.4-1-0.6c-5.6,9.4-11.2,18.7-16.9,28.1
			C338.2,497.2,338.6,497.4,338.9,497.6z"/>
		<path d="M361.1,496.3c0.9-3.9,2.3-7.5,2.4-11.1c0.3-5.2,4.8-4.2,7.9-5.5c-3.4-4.1-6.1-3.9-8,0.3c-1.4,3.1-3,6.1-4.2,9.3
			C358,492.3,358,495.1,361.1,496.3z"/>
		<path d="M262.2,387.8c6.4,0.6,12.5-4.7,11.7-9.6C267.9,378.8,266.3,384.1,262.2,387.8z"/>
		<path d="M373.2,443.7c-7.6,6.3-12.4,14.5-16.3,23.2C362.3,459.2,367.7,451.4,373.2,443.7z"/>
		<path d="M326.8,413.6c3.7-2.4,6.8-4.8,2.5-9.3c-0.5-0.5-0.6-2-0.2-2.4c4-4,0.1-6.6-1.6-10c-0.3,0.4-0.8,0.8-0.7,0.9
			c2.5,3.7,1.1,7.5,0.8,11.4c-0.1,1.3,1.3,2.6,2,3.9c-1.2,1.5-2.5,3.1-3.8,4.8C326.2,413.1,326.5,413.4,326.8,413.6z"/>
		<path d="M321.5,431.4c4.8,0.5,7.5-2.3,6.6-7.1c-0.3-1.3,0.4-2.8,0.7-4.1c0.4-1.6,0.8-3.3,1.2-4.9c-0.7-0.1-1.5-0.3-2.2-0.4
			c-0.4,3.7-0.4,7.6-1.5,11.1C325.7,428,323.2,429.6,321.5,431.4z"/>
		<path d="M346.3,508.4c-3,6-10.1,3.7-13.8,8.3c2.2-0.4,4.5-0.7,6.7-1.3c2.3-0.6,4.6-1.5,7.1-2.2C346.3,511.6,346.3,510,346.3,508.4
			z"/>
		<path d="M330.9,507.6c5.5-0.8,11-1.6,16.5-2.4c-0.1-0.7-0.3-1.4-0.4-2.1c-5.5,0.9-11,1.9-16.5,2.8
			C330.6,506.5,330.7,507,330.9,507.6z"/>
		<path d="M285.3,637.3c4.4-6.2,10.2-6.2,16.1-6.3c-3.9-2.4-7.9-1.3-11.5,0.3C287.8,632.3,284.8,632.9,285.3,637.3z"/>
		<path d="M310.8,395.9c-1.3,1.5-3,2.8-2.7,3.4c0.5,1.3,2,2.3,3,3.4c1.1-1.2,2.4-2.3,3.1-3.7C314.3,398.6,312.5,397.3,310.8,395.9z"
			/>
		<path d="M299.6,618.9c-4.4,1.9-8.7,3.8-13.1,5.7c0.2,0.5,0.4,0.9,0.6,1.4c4.4-1.9,8.7-3.9,13.1-5.8
			C300.1,619.8,299.8,619.3,299.6,618.9z"/>
		<path d="M302.5,598c-5.8-2.4-10.6-1.3-10.7,2C295.2,599.4,298.7,598.7,302.5,598z"/>
		<path d="M302.4,607.1c-3.7,1.1-7.6,2.4-11.3,3.5C294.7,612.9,299.7,611.4,302.4,607.1z"/>
		<path d="M394.4,637.4c-1.2-0.7-2.4-1.8-2.9-1.6c-3.6,1.9-7,4-10.3,6.6C385.4,640.8,389.6,639.3,394.4,637.4z"/>
		<path d="M389.7,624.3c-3.9,1.7-7.8,3.4-11.7,5.2c0.2,0.4,0.3,0.8,0.5,1.1c3.9-1.6,7.9-3.2,11.8-4.8
			C390.2,625.3,389.9,624.8,389.7,624.3z"/>
		<path class="st5" d="M304.7,626.7c-0.7-1.5-0.7-4.2,0.3-5.4c3.5-4.4,2.5-9.1,1.7-13.9c-0.4-2.6,0.3-3.9,3.3-3
			c2.6,0.8,6,0.9,7.7,2.5c1.2,1.1,0.2,4.4,0.2,6.7c0,1.3,0,2.6,0.1,3.9c0.1,6-0.4,11.9-2.2,17.6c-0.5,1.6-1.9,3-3.4,5.3
			C309.4,635.2,306.8,631.1,304.7,626.7z M309.6,608.2c1.5,0.7,3.1,1.2,4.7,1.6c0.9,0.2,1.9-0.2,2.8-0.3c-0.5-0.8-0.9-2.2-1.6-2.4
			c-2.2-0.6-4.6-0.8-8.2-1.3C308.4,607,308.9,607.9,309.6,608.2z M305.8,623.1c-0.1,0.4-0.2,0.8-0.3,1.2c3.4,0.6,6.8,1.3,10.1,1.9
			c0.2-0.4,0.3-0.8,0.5-1.2C313,622.9,309.5,622.6,305.8,623.1z"/>
		<path class="st5" d="M382.7,503.7c-10.9,0.7-7.2,9.8-8.9,15.8c-0.3,1,1.1,3.2,2.2,3.6c1.4,0.4,3.9,0.1,4.7-0.9
			c2.4-2.9,4.4-6.1,6-9.4c0.5-1.1-0.8-3.1-1.4-4.6C384.6,506.7,383.6,505.3,382.7,503.7z"/>
		<path d="M307.1,605.7c1.3,1.4,1.7,2.2,2.4,2.5c1.5,0.7,3.1,1.2,4.7,1.6c0.9,0.2,1.9-0.2,2.8-0.3c-0.5-0.8-0.9-2.2-1.6-2.4
			C313.2,606.4,310.8,606.2,307.1,605.7z"/>
		<path d="M316.2,624.9c-3.1-2-6.6-2.3-10.4-1.8c-0.1,0.4-0.2,0.8-0.3,1.2c3.4,0.6,6.8,1.3,10.1,1.9
			C315.9,625.7,316,625.3,316.2,624.9z"/>
	</g>
</g>
</svg>
